<svg version="1.1" xmlns="http://www.w3.org/2000/svg" xmlns:xlink="http://www.w3.org/1999/xlink" viewBox="0 0 226 226">
  <g fill="none" fill-rule="nonzero" stroke="none" stroke-width="1" stroke-linecap="butt" stroke-linejoin="miter"
    stroke-miterlimit="10" stroke-dasharray="" stroke-dashoffset="0" font-family="none" font-weight="none"
    font-size="none" text-anchor="none" style="mix-blend-mode: normal">
    <path d="M0,226v-226h226v226z" fill="none"></path>
    <g fill="#4FD1C5">
      <path
        d="M111.56543,7.07629c-1.76562,0.0138 -3.53125,0.09656 -5.31067,0.20691c-23.90491,1.43457 -45.65796,10.89722 -62.67969,25.69812c-20.80127,18.01489 -34.49866,44.03027 -36.29187,73.27344c-1.84839,29.58801 8.29016,57.76904 28.52588,79.2738c19.94605,21.22888 48.05811,33.40893 77.19092,33.40893c8.40051,0 16.73205,-0.99316 24.8291,-2.92432c13.65601,-3.29675 24.11182,-13.35254 27.96033,-26.98096c3.88989,-13.80774 0.17932,-28.07068 -9.95923,-38.18164l-4.16577,-4.16577c-6.1383,-6.17969 -6.00037,-13.98706 -3.80713,-19.24255c2.15186,-5.29687 7.58667,-10.91101 16.30444,-10.91101h27.22925c7.76599,0 14.93884,-3.53125 19.67016,-9.71094c3.35193,-4.37268 5.08997,-9.60059 5.08997,-14.96643c0,-2.16565 -0.28968,-4.3175 -0.85523,-6.46936c-5.61414,-20.91162 -17.40796,-38.88513 -32.98132,-52.30664c-19.22876,-16.60791 -44.23718,-26.30505 -70.74914,-26.00159zM112.82068,14.125c22.20825,0 43.18884,7.49011 60.1416,20.33228c1.48975,1.1311 2.92432,2.30359 4.30371,3.54504c14.75952,12.56629 25.91882,29.47766 31.2157,49.2168c1.44836,5.33826 0.31726,10.91101 -3.03467,15.32507c-3.39331,4.37268 -8.51087,6.92456 -14.05603,6.92456h-27.22925c-10.19372,0 -18.95288,5.86243 -22.84277,15.25611c-3.91748,9.43506 -1.83459,19.73913 5.36585,26.93957l4.16577,4.16577c8.27637,8.30396 11.29724,19.98743 8.12463,31.28467c-3.14502,11.13171 -11.65588,19.35291 -22.80139,22.04273c-7.53149,1.80701 -15.33887,2.71741 -23.17383,2.71741c-27.5741,0 -53.17566,-11.09033 -72.07336,-31.17432c-18.85632,-20.09778 -28.31897,-46.37524 -26.58093,-74.01831c1.68286,-27.47754 14.60779,-51.87903 34.27795,-68.72144c15.78027,-13.60083 35.94702,-22.24963 58.05872,-23.61523c2.0415,-0.15173 4.0968,-0.2207 6.1383,-0.2207zM113,24.71875c-9.73852,0 -17.65625,7.91773 -17.65625,17.65625c0,9.73853 7.91773,17.65625 17.65625,17.65625c9.73853,0 17.65625,-7.91772 17.65625,-17.65625c0,-9.73852 -7.91772,-17.65625 -17.65625,-17.65625zM113,31.78125c5.83484,0 10.59375,4.75891 10.59375,10.59375c0,5.83484 -4.75891,10.59375 -10.59375,10.59375c-5.83484,0 -10.59375,-4.75891 -10.59375,-10.59375c0,-5.83484 4.75891,-10.59375 10.59375,-10.59375zM67.09375,42.375c-9.73852,0 -17.65625,7.91773 -17.65625,17.65625c0,9.73853 7.91773,17.65625 17.65625,17.65625c9.73853,0 17.65625,-7.91772 17.65625,-17.65625c0,-9.73852 -7.91772,-17.65625 -17.65625,-17.65625zM158.90625,42.375c-9.73852,0 -17.65625,7.91773 -17.65625,17.65625c0,9.73853 7.91773,17.65625 17.65625,17.65625c9.73853,0 17.65625,-7.91772 17.65625,-17.65625c0,-9.73852 -7.91772,-17.65625 -17.65625,-17.65625zM67.09375,49.4375c5.83484,0 10.59375,4.75891 10.59375,10.59375c0,5.83484 -4.75891,10.59375 -10.59375,10.59375c-5.83484,0 -10.59375,-4.75891 -10.59375,-10.59375c0,-5.83484 4.75891,-10.59375 10.59375,-10.59375zM158.90625,49.4375c5.83484,0 10.59375,4.75891 10.59375,10.59375c0,5.83484 -4.75891,10.59375 -10.59375,10.59375c-5.83484,0 -10.59375,-4.75891 -10.59375,-10.59375c0,-5.83484 4.75891,-10.59375 10.59375,-10.59375zM113,74.15625c-1.77942,0 -3.55884,0.12414 -5.29687,0.35864c-1.93115,0.26208 -3.28296,2.0553 -3.02087,3.98645c0.27588,1.91736 2.0415,3.26916 3.98645,3.00708c7.90393,-1.07593 16.13891,0.89661 22.70483,5.55896c0.63452,0.44141 1.33801,0.66211 2.0415,0.66211c1.11731,0 2.20703,-0.52417 2.88293,-1.48975c1.13111,-1.6001 0.75867,-3.80713 -0.82764,-4.92444c-6.5935,-4.68994 -14.3595,-7.15906 -22.47034,-7.15906zM91.44006,78.87378c-0.46899,0.05518 -0.93799,0.2207 -1.39319,0.48279c-1.83459,1.06214 -2.26221,3.13123 -1.28284,4.82788l3.53125,6.11072c0.64832,1.14489 1.83459,1.77942 3.04846,1.77942c0.469,0.06897 1.15869,-0.12414 1.76563,-0.48279c1.83459,-1.06213 2.26221,-3.13123 1.28284,-4.82788l-3.53125,-6.11072c-0.71729,-1.26904 -2.02771,-1.95874 -3.4209,-1.77942zM42.375,88.28125c-9.73852,0 -17.65625,7.91773 -17.65625,17.65625c0,9.73853 7.91773,17.65625 17.65625,17.65625c9.73853,0 17.65625,-7.91772 17.65625,-17.65625c0,-9.73852 -7.91772,-17.65625 -17.65625,-17.65625zM142.60181,91.08142c-0.4552,0.05518 -0.89661,0.2207 -1.31043,0.48279c-1.66907,1.02075 -2.19324,3.1864 -1.17248,4.85547c1.17248,1.91736 2.13806,3.95886 2.88293,6.05554c0.51038,1.46216 1.87598,2.37256 3.32434,2.37256c0.38623,0 0.78625,-0.06897 1.17248,-0.19311c1.8346,-0.64832 2.81396,-2.66223 2.16565,-4.51062c-0.89661,-2.57947 -2.09668,-5.07617 -3.51746,-7.40735c-0.77246,-1.25525 -2.17945,-1.86218 -3.54504,-1.65527zM79.34277,91.8125c-1.3518,-0.19311 -2.71741,0.38623 -3.51746,1.76563c-1.06213,1.83459 -0.40002,3.84851 1.29663,4.81409l6.11072,3.53125c0.56555,0.33105 1.07593,0.63452 1.71045,0.59314c1.26904,-0.08276 2.41394,-0.64832 3.11743,-1.87598c1.06213,-1.83459 0.40002,-3.84851 -1.29663,-4.81409l-6.11072,-3.53125c-0.42761,-0.24829 -0.86902,-0.41382 -1.31043,-0.48279zM42.375,95.34375c5.83484,0 10.59375,4.75891 10.59375,10.59375c0,5.83484 -4.75891,10.59375 -10.59375,10.59375c-5.83484,0 -10.59375,-4.75891 -10.59375,-10.59375c0,-5.83484 4.75891,-10.59375 10.59375,-10.59375zM74.15625,109.46875c-1.95874,0 -3.53125,1.40698 -3.53125,3.53125c0,2.12427 1.57251,3.53125 3.53125,3.53125h7.0625c1.95874,0 3.53125,-1.40698 3.53125,-3.53125c0,-2.12427 -1.57251,-3.53125 -3.53125,-3.53125zM84.55689,123.59375c-0.4552,0.06897 -0.89661,0.2345 -1.31043,0.48279l-6.12451,3.53125c-1.69666,0.96557 -2.34497,2.97949 -1.29663,4.81409c0.71729,1.22766 1.84839,1.79321 3.13123,1.87598c0.62073,0.04138 1.13111,-0.26209 1.69666,-0.59314l6.12451,-3.53125c1.68286,-0.96557 2.34497,-2.97949 1.28284,-4.81409c-0.80005,-1.37939 -2.15186,-1.95874 -3.50366,-1.76562zM95.71619,133.92541c-1.39319,-0.17932 -2.70361,0.51038 -3.4209,1.76563l-3.53125,6.12451c-0.97937,1.69666 -0.55176,3.76575 1.28284,4.82788c0.60693,0.34485 1.29663,0.55176 1.76563,0.46899c1.21387,0 2.40015,-0.63452 3.04846,-1.76562l3.53125,-6.12451c0.97937,-1.68286 0.55176,-3.75195 -1.28284,-4.81409c-0.4552,-0.26209 -0.9242,-0.42761 -1.39319,-0.48279zM56.5,137.71875c-9.73852,0 -17.65625,7.91773 -17.65625,17.65625c0,9.73853 7.91773,17.65625 17.65625,17.65625c9.73853,0 17.65625,-7.91772 17.65625,-17.65625c0,-9.73852 -7.91772,-17.65625 -17.65625,-17.65625zM56.5,144.78125c5.83484,0 10.59375,4.75891 10.59375,10.59375c0,5.83484 -4.75891,10.59375 -10.59375,10.59375c-5.83484,0 -10.59375,-4.75891 -10.59375,-10.59375c0,-5.83484 4.75891,-10.59375 10.59375,-10.59375zM120.0625,155.375c-11.68347,0 -21.1875,9.50403 -21.1875,21.1875c0,11.68347 9.50403,21.1875 21.1875,21.1875c11.68347,0 21.1875,-9.50403 21.1875,-21.1875c0,-11.68347 -9.50403,-21.1875 -21.1875,-21.1875zM120.0625,162.4375c7.79358,0 14.125,6.33142 14.125,14.125c0,7.79358 -6.33142,14.125 -14.125,14.125c-7.79358,0 -14.125,-6.33142 -14.125,-14.125c0,-7.79358 6.33142,-14.125 14.125,-14.125z">
      </path>
    </g>
  </g>
</svg>