<svg version="1.1" xmlns="http://www.w3.org/2000/svg" xmlns:xlink="http://www.w3.org/1999/xlink" viewBox="0 0 226 226">
  <g fill="none" fill-rule="nonzero" stroke="none" stroke-width="1" stroke-linecap="butt" stroke-linejoin="miter"
    stroke-miterlimit="10" stroke-dasharray="" stroke-dashoffset="0" font-family="none" font-weight="none"
    font-size="none" text-anchor="none" style="mix-blend-mode: normal">
    <path d="M0,226v-226h226v226z" fill="none"></path>
    <g fill="#63B3ED">
      <path
        d="M88.90198,2.52429c-3.48987,0 -6.88318,1.03455 -9.83508,3.02087c-3.94507,2.67602 -6.6073,6.71765 -7.47632,11.3938l-5.10376,27.20166c-14.3457,3.84851 -24.11182,9.76611 -24.11182,17.65625c0,7.14527 7.9867,12.66284 20.12537,16.49756c-3.17261,0.86902 -5.40723,3.69678 -6.27625,7.9867c-0.70349,3.44848 -0.48279,7.64184 0.64832,11.80762c1.87598,7.04871 5.84863,12.34558 10.16614,13.97327c1.47595,4.48303 3.40711,8.93848 5.6969,13.2008l-43.58887,20.85645c-13.42151,6.41419 -22.08411,20.16675 -22.08411,35.03662v27.18787c0,5.83484 4.75891,10.59375 10.59375,10.59375h190.6875c5.83484,0 10.59375,-4.75891 10.59375,-10.59375v-27.18787c0,-14.86987 -8.6626,-28.62243 -22.08411,-35.03662l-43.58887,-20.85645c2.28979,-4.26233 4.23474,-8.71777 5.6969,-13.2008c4.3313,-1.62768 8.29016,-6.92456 10.17993,-13.97327c1.11731,-4.16577 1.33801,-8.35913 0.63452,-11.80762c-0.86902,-4.28992 -3.10364,-7.11768 -6.27625,-7.9867c12.13867,-3.83472 20.12537,-9.35229 20.12537,-16.49756c0,-7.89014 -9.76611,-13.80774 -24.11182,-17.65625l-5.08996,-27.20166c-0.88281,-4.67615 -3.53125,-8.71777 -7.47632,-11.3938c-3.94507,-2.66223 -8.67639,-3.61402 -13.35254,-2.67603l-7.43493,1.48975c-8.73157,1.73804 -17.58728,1.73804 -26.30505,0l-7.44873,-1.48975c-1.17248,-0.2345 -2.34497,-0.34485 -3.50366,-0.34485zM88.91577,9.58679c0.70349,0 1.40698,0.06897 2.11047,0.20691l7.43494,1.48975c9.64197,1.93115 19.43567,1.93115 29.09143,0l7.43494,-1.48975c2.80017,-0.56555 5.64172,0.01379 8.01428,1.61389c2.35877,1.6001 3.95886,4.01404 4.48303,6.828l7.37976,39.31274c-27.39478,7.86255 -56.14136,7.89014 -83.70166,0l1.21387,-6.55212c13.28357,3.51746 26.85681,5.37964 40.5542,5.37964c3.93127,0 7.87634,-0.15173 11.82141,-0.44141c1.95874,-0.13794 3.40711,-1.83459 3.26916,-3.77954c-0.13794,-1.94495 -1.8208,-3.4209 -3.77954,-3.26916c-17.06311,1.26904 -34.07105,-0.35864 -50.56861,-4.80029l4.84168,-25.84985c0.53796,-2.81396 2.12427,-5.22791 4.49683,-6.828c1.76563,-1.20007 3.80713,-1.8208 5.90381,-1.8208zM143.13977,46.29248c-2.5105,0.49658 -5.021,0.95178 -7.53149,1.32422c-1.94495,0.28967 -3.25537,2.09668 -2.9657,4.02783c0.26209,1.73804 1.76563,2.99329 3.48987,2.99329c0.17932,0 0.34485,0 0.52417,-0.02759c2.63464,-0.40002 5.26929,-0.86902 7.89014,-1.40698c1.90356,-0.37243 3.14502,-2.24841 2.75879,-4.15198c-0.38623,-1.91736 -2.23462,-3.13123 -4.16577,-2.75879zM160.97534,51.948c9.97302,3.07605 15.58716,6.78662 15.58716,9.84888c0,6.48316 -24.76013,15.89063 -63.5625,15.89063c-38.80237,0 -63.5625,-9.40747 -63.5625,-15.89062c0,-3.06225 5.61414,-6.77283 15.57336,-9.83508l-1.39319,7.42114c-0.33105,1.76563 0.93799,3.55884 2.64844,4.08301c15.28369,4.71753 31.00879,7.0625 46.73389,7.0625c15.7113,0 31.4364,-2.35876 46.72009,-7.0625l0.2207,-0.06897c1.71045,-0.52417 2.75879,-2.26221 2.42773,-4.02783zM155.09912,80.55664c0.06897,0.70349 0.13794,1.40698 0.16553,2.19324c0.06897,1.25525 0.80005,2.40014 1.93115,2.97949c1.11731,0.56555 2.45532,0.49658 3.53125,-0.19312c0.62073,-0.40002 0.93799,-0.42761 0.9242,-0.42761c0.12414,0.04138 0.81384,0.62073 1.21387,2.57947c0.48279,2.37256 0.27588,5.48999 -0.53796,8.56604c-1.75183,6.51074 -5.07617,9.25573 -6.12451,9.25573c-1.55871,0 -2.93811,1.03455 -3.37952,2.52429c-5.95898,20.02881 -21.54614,40.27832 -39.82312,40.27832c-18.27698,0 -33.86414,-20.2633 -39.80932,-40.27832c-0.4552,-1.48975 -1.8208,-2.52429 -3.39331,-2.52429c-1.03455,0 -4.37268,-2.74499 -6.11072,-9.25573c-0.82764,-3.07605 -1.02075,-6.19348 -0.53796,-8.56604c0.40002,-1.97253 1.08972,-2.55188 1.17248,-2.56567c0.01379,0 0.31726,0 0.95178,0.41382c1.07593,0.70349 2.42773,0.75867 3.54504,0.19312c1.13111,-0.57935 1.86218,-1.71045 1.91736,-2.97949c0.04138,-0.74487 0.16553,-1.44836 0.2345,-2.17945c12.27661,2.75879 27.18787,4.17957 42.03015,4.17957c14.86987,0 29.80871,-1.42078 42.09912,-4.19336zM71.48023,133.69092l27.18786,78.18408h-8.62121l-29.13281,-38.84375l9.00745,-12.01453c0.56555,-0.74487 0.80005,-1.68286 0.66211,-2.60705l-3.24157,-22.73242zM154.51978,133.70471l4.13818,1.97254l-3.24158,22.73242c-0.13794,0.9242 0.09656,1.86218 0.66211,2.62085l8.93848,11.90417l-30.04321,36.70569c-0.52417,0.64831 -0.73108,1.44836 -0.73108,2.23462h-6.91077zM79.82556,136.17383c8.71777,11.18689 20.30469,19.20117 33.17444,19.20117c12.86975,0 24.47046,-8.01428 33.18823,-19.20117l-25.91882,74.54248c-0.13794,0.38623 -0.16553,0.77246 -0.16553,1.15869h-14.20777c0,-0.38623 -0.01379,-0.77246 -0.15173,-1.15869zM60.66577,138.87744l2.7312,19.07703l-9.72473,12.96631c-0.93799,1.24145 -0.93799,2.97949 0,4.22095l27.54651,36.73328h-63.5625c-1.94495,0 -3.53125,-1.5863 -3.53125,-3.53125v-27.18787c0,-12.16626 7.09009,-23.42212 18.07007,-28.66382zM165.33423,138.87744l28.4707,13.61462c10.97998,5.2417 18.07007,16.49756 18.07007,28.66382v27.18787c0,1.94495 -1.5863,3.53125 -3.53125,3.53125h-66.0592l29.94666,-36.60913c1.02075,-1.25525 1.06213,-3.04846 0.08276,-4.34509l-9.71094,-12.95252zM24.71875,190.6875c-1.95874,0 -3.53125,1.5863 -3.53125,3.53125v7.0625c0,1.94495 1.57251,3.53125 3.53125,3.53125c1.95874,0 3.53125,-1.5863 3.53125,-3.53125v-7.0625c0,-1.94495 -1.57251,-3.53125 -3.53125,-3.53125zM42.375,190.6875c-1.95874,0 -3.53125,1.5863 -3.53125,3.53125v7.0625c0,1.94495 1.57251,3.53125 3.53125,3.53125c1.95874,0 3.53125,-1.5863 3.53125,-3.53125v-7.0625c0,-1.94495 -1.57251,-3.53125 -3.53125,-3.53125zM60.03125,190.6875c-1.95874,0 -3.53125,1.5863 -3.53125,3.53125v7.0625c0,1.94495 1.57251,3.53125 3.53125,3.53125c1.95874,0 3.53125,-1.5863 3.53125,-3.53125v-7.0625c0,-1.94495 -1.57251,-3.53125 -3.53125,-3.53125zM165.96875,190.6875c-1.95874,0 -3.53125,1.5863 -3.53125,3.53125v7.0625c0,1.94495 1.57251,3.53125 3.53125,3.53125c1.95874,0 3.53125,-1.5863 3.53125,-3.53125v-7.0625c0,-1.94495 -1.57251,-3.53125 -3.53125,-3.53125zM183.625,190.6875c-1.95874,0 -3.53125,1.5863 -3.53125,3.53125v7.0625c0,1.94495 1.57251,3.53125 3.53125,3.53125c1.95874,0 3.53125,-1.5863 3.53125,-3.53125v-7.0625c0,-1.94495 -1.57251,-3.53125 -3.53125,-3.53125zM201.28125,190.6875c-1.95874,0 -3.53125,1.5863 -3.53125,3.53125v7.0625c0,1.94495 1.57251,3.53125 3.53125,3.53125c1.95874,0 3.53125,-1.5863 3.53125,-3.53125v-7.0625c0,-1.94495 -1.57251,-3.53125 -3.53125,-3.53125z">
      </path>
    </g>
  </g>
</svg>