<svg version="1.1" xmlns="http://www.w3.org/2000/svg" xmlns:xlink="http://www.w3.org/1999/xlink" viewBox="0 0 226 226">
  <g fill="none" fill-rule="nonzero" stroke="none" stroke-width="1" stroke-linecap="butt" stroke-linejoin="miter"
    stroke-miterlimit="10" stroke-dasharray="" stroke-dashoffset="0" font-family="none" font-weight="none"
    font-size="none" text-anchor="none" style="mix-blend-mode: normal">
    <path d="M0,226v-226h226v226z" fill="none"></path>
    <g fill="#F6E05E">
      <path
        d="M153.60938,0c-1.55871,0 -2.93811,1.02075 -3.37952,2.52429l-7.76599,26.00159c-0.33105,1.13111 -1.17248,1.98633 -2.28979,2.34497c-1.10352,0.37243 -2.2898,0.16553 -3.22778,-0.55176l-21.57373,-16.46997c-1.22766,-0.95178 -2.9519,-0.97937 -4.20715,-0.05518c-1.26904,0.9242 -1.77942,2.55188 -1.25525,4.02783l9.00745,25.60156c0.40003,1.10352 0.2207,2.2898 -0.46899,3.25537c-0.6897,0.95178 -1.76562,1.6001 -2.95191,1.44836l-27.11889,-0.66211h-0.09656c-1.51733,0 -2.88293,0.97937 -3.35193,2.44153c-0.48279,1.48975 0.06897,3.10364 1.35181,4.00024l22.34619,15.40784c0.96557,0.66211 1.51733,1.72425 1.51733,2.91052c0,1.17248 -0.55176,2.23462 -1.51733,2.89673l-22.34619,15.42163c-1.28284,0.88281 -1.83459,2.4967 -1.35181,3.98645c0.48279,1.48975 1.8346,2.42773 3.44849,2.44153l21.20129,-0.52417l-104.72363,104.72363c-2.67602,2.67603 -4.13818,6.22107 -4.13818,9.98682c0,3.77954 1.46216,7.32459 4.13818,9.98682c2.66223,2.67603 6.20728,4.13818 9.98682,4.13818c3.76575,0 7.31079,-1.46216 9.98682,-4.13818l114.77942,-114.79321l10.62134,35.57458c0.44141,1.50354 1.8208,2.52429 3.37952,2.52429c1.55871,0 2.93811,-1.02075 3.37952,-2.52429l7.76599,-26.00159c0.33105,-1.1449 1.17248,-2.00012 2.2898,-2.37256c1.10352,-0.35864 2.28979,-0.15173 3.22778,0.56555l21.57373,16.48377c1.22766,0.95178 2.95191,0.96558 4.20715,0.05518c1.26904,-0.9242 1.77942,-2.56567 1.25525,-4.02783l-9.00745,-25.60156c-0.40002,-1.11731 -0.2207,-2.30359 0.46899,-3.25537c0.67591,-0.93799 1.71045,-1.46216 2.85535,-1.46216c0.02759,0 0.05518,0 0.09656,0.01379l27.11889,0.66211c1.55872,-0.04138 2.9657,-0.96558 3.46228,-2.45532c0.48279,-1.47595 -0.08276,-3.10364 -1.3656,-3.98645l-22.34619,-15.40784c-0.96557,-0.6759 -1.51733,-1.72424 -1.51733,-2.91052c0,-1.18628 0.55176,-2.23462 1.51733,-2.91052l22.34619,-15.40784c1.28284,-0.88281 1.84839,-2.5105 1.3656,-3.98645c-0.48279,-1.48975 -1.88977,-2.52429 -3.46228,-2.45532l-27.11889,0.66211c-1.35181,0.06897 -2.26221,-0.49658 -2.95191,-1.44836c-0.6897,-0.95178 -0.86902,-2.13806 -0.46899,-3.25537l9.00745,-25.60156c0.52417,-1.46216 0.01379,-3.10364 -1.25525,-4.02783c-1.25525,-0.9104 -2.97949,-0.89661 -4.20715,0.05518l-21.57373,16.48377c-0.93799,0.71729 -2.12427,0.9104 -3.22778,0.53796c-1.11731,-0.35864 -1.95874,-1.21387 -2.2898,-2.34497l-7.76599,-26.00159c-0.44141,-1.50354 -1.8208,-2.52429 -3.37952,-2.52429zM89.7572,0.02759c-0.9104,-0.09656 -1.84839,0.13794 -2.59326,0.75867c-1.53113,1.22766 -1.76562,3.44849 -0.53796,4.96582l4.45545,5.48999c0.6897,0.85522 1.71045,1.31043 2.745,1.31043c0.78625,0 1.55871,-0.26209 2.22082,-0.78626c1.51733,-1.22766 1.75183,-3.44848 0.51038,-4.96582l-4.42786,-5.48999c-0.62073,-0.75867 -1.47595,-1.20007 -2.37256,-1.28284zM76.14258,13.40771c-0.89661,0.15173 -1.73804,0.62073 -2.31738,1.40698c-1.1449,1.5863 -0.80005,3.79333 0.78625,4.93823l5.7107,4.16577c0.62073,0.4552 1.3518,0.66211 2.06909,0.66211c1.08972,0 2.16565,-0.49658 2.85535,-1.44837c1.15869,-1.57251 0.81384,-3.77954 -0.77246,-4.92444l-5.71069,-4.16577c-0.78626,-0.56555 -1.73804,-0.77246 -2.62085,-0.63452zM153.60938,15.89063l4.37268,14.64917c0.99316,3.33813 3.57263,5.97278 6.88318,7.0487c3.29675,1.08972 6.92456,0.469 9.69714,-1.65527l12.15246,-9.28332l-5.07617,14.42847c-1.15869,3.28296 -0.62073,6.92456 1.42078,9.73852c2.0415,2.82776 5.36584,4.38648 8.82813,4.35889l15.29748,-0.37244l-12.59387,8.70398c-2.86914,1.97254 -4.57959,5.22791 -4.57959,8.71777c0,3.47607 1.71045,6.73145 4.57959,8.71777l12.59387,8.69019l-15.29748,-0.37244c-3.46228,-0.02759 -6.78662,1.54492 -8.82812,4.35889c-2.0415,2.81396 -2.57947,6.45557 -1.42078,9.73852l5.07617,14.44226l-12.15246,-9.28332c-2.75879,-2.12427 -6.40039,-2.745 -9.69714,-1.66907c-3.31055,1.07593 -5.89002,3.71057 -6.88318,7.0487l-4.37268,14.66296l-8.31775,-27.87756l19.35291,-19.35291c2.67603,-2.67602 4.13818,-6.22107 4.13818,-9.98682c0,-3.77954 -1.46216,-7.32459 -4.13818,-9.98682c-2.66223,-2.67602 -6.20727,-4.13818 -9.98682,-4.13818c-3.76575,0 -7.31079,1.46216 -9.98682,4.13818l-27.86377,27.86377l-16.77344,0.41382l12.58008,-8.69019c2.86914,-1.98633 4.57959,-5.2417 4.57959,-8.71777c0,-3.48987 -1.69666,-6.74524 -4.57959,-8.71777l-12.58008,-8.70398l15.28369,0.37244c3.51746,0.02759 6.80041,-1.54492 8.84192,-4.35889c2.0415,-2.81396 2.57947,-6.45557 1.42078,-9.73852l-5.07617,-14.42847l12.13867,9.28332c2.77258,2.12427 6.40039,2.745 9.71094,1.65527c3.31055,-1.07593 5.89002,-3.71057 6.88318,-7.0487zM67.75586,29.56043c-1.3656,0.04138 -2.64844,0.9104 -3.1864,2.276c-0.6897,1.80701 0.2207,3.8623 2.0415,4.5658l6.59351,2.52429c0.41382,0.16553 0.84143,0.2345 1.26904,0.2345c1.40698,0 2.745,-0.86902 3.28296,-2.26221c0.70349,-1.8208 -0.20691,-3.8623 -2.01391,-4.5658l-6.6073,-2.53809c-0.44141,-0.17932 -0.9104,-0.24829 -1.37939,-0.2345zM63.93494,47.50635c-1.91736,-0.2345 -3.68298,1.20007 -3.88989,3.14502c-0.19311,1.94495 1.21387,3.66919 3.14502,3.8761l7.03491,0.74487c0.11035,0.01379 0.24829,0.01379 0.35864,0.01379c1.79321,0 3.32434,-1.33801 3.51746,-3.15881c0.20691,-1.94495 -1.20007,-3.68298 -3.14502,-3.88989zM154.65771,64.27979c1.88977,0 3.66919,0.73108 5.0072,2.0553c1.32422,1.33802 2.0553,3.11743 2.0553,5.0072c0,1.87598 -0.73108,3.65539 -2.0553,4.97961l-35.64355,35.64355l-9.98682,-9.98682l35.64355,-35.64355c1.32422,-1.32422 3.10364,-2.0553 4.97961,-2.0553zM70.45947,64.85913l-6.97973,1.10352c-1.93115,0.30347 -3.24158,2.11047 -2.93811,4.04163c0.27588,1.73804 1.77942,2.97949 3.48987,2.97949c0.17932,0 0.35864,-0.01379 0.55176,-0.04138l6.97973,-1.10352c1.91736,-0.30347 3.24158,-2.11047 2.93811,-4.02783c-0.30347,-1.94495 -2.11047,-3.26916 -4.04163,-2.9519zM109.04114,106.97205l9.98682,9.98682l-99.19226,99.20605c-2.67603,2.66223 -7.32459,2.66223 -9.98682,0c-1.33802,-1.33801 -2.06909,-3.11743 -2.06909,-5.0072c0,-1.87598 0.73108,-3.65539 2.06909,-4.97961zM129.89758,148.43664c-1.24145,0 -2.48291,0.57935 -3.10364,1.71045l-4.44165,8.13843c-0.67591,1.22766 -1.68286,2.23462 -2.91052,2.91052l-8.13843,4.44165c-1.1311,0.62073 -1.83459,1.8208 -1.83459,3.10364c0,1.28284 0.70349,2.48291 1.83459,3.08984l8.15222,4.45545c1.21387,0.6759 2.22082,1.68286 2.89673,2.91052l4.44165,8.13843c0.62073,1.13111 1.8208,1.84839 3.10364,1.84839c1.28284,0 2.48291,-0.70349 3.08984,-1.84839l4.46924,-8.13843c0.66211,-1.22766 1.66907,-2.23462 2.91052,-2.91052l8.12463,-4.45545c1.13111,-0.60693 1.84839,-1.807 1.84839,-3.08984c0,-1.28284 -0.71729,-2.48291 -1.84839,-3.10364l-8.12463,-4.44165c-1.24145,-0.67591 -2.24841,-1.68286 -2.92432,-2.91052l-4.45545,-8.13843c-0.60693,-1.1311 -1.84839,-1.71045 -3.08984,-1.71045zM129.89758,159.19592l1.35181,2.46912c1.31043,2.41394 3.29675,4.40027 5.71069,5.72449l2.46912,1.3518l-2.45532,1.35181c-2.42773,1.32422 -4.40027,3.29675 -5.7107,5.71069l-1.3656,2.46912l-1.3518,-2.46912c-1.32422,-2.41394 -3.31055,-4.38647 -5.72449,-5.6969l-2.46912,-1.3656l2.46912,-1.3518c2.42773,-1.32422 4.40027,-3.29675 5.72449,-5.72449zM193.46008,162.56164c-1.24145,0 -2.48291,0.57935 -3.10364,1.71045l-7.22803,13.22839c-1.31043,2.38635 -3.24158,4.3175 -5.62793,5.62793l-13.22839,7.22803c-1.1311,0.62073 -1.83459,1.8208 -1.83459,3.10364c0,1.28284 0.70349,2.48291 1.83459,3.08984l13.22839,7.25562c2.38635,1.29663 4.3313,3.22778 5.62793,5.60034l7.22803,13.24219c0.62073,1.13111 1.8208,1.84839 3.10364,1.84839c1.28284,0 2.48291,-0.71729 3.08984,-1.84839l7.25562,-13.22839c1.29663,-2.37256 3.24158,-4.31751 5.61414,-5.61414l13.22839,-7.25562c1.1449,-0.60693 1.84839,-1.807 1.84839,-3.08984c0,-1.28284 -0.71729,-2.48291 -1.84839,-3.10364l-13.22839,-7.22803c-2.38636,-1.31043 -4.31751,-3.25537 -5.61414,-5.62793l-7.25562,-13.22839c-0.60693,-1.1311 -1.84839,-1.71045 -3.08984,-1.71045zM193.46008,173.32092l4.13818,7.58667c1.94495,3.55884 4.85547,6.45557 8.4281,8.40051l7.57288,4.15198l-7.57288,4.13818c-3.55884,1.94495 -6.48315,4.86927 -8.4281,8.4281l-4.13818,7.57288l-4.15198,-7.57288c-1.94495,-3.55884 -4.85547,-6.48315 -8.4143,-8.4281l-7.57288,-4.13818l7.58667,-4.15198c3.55884,-1.94495 6.45557,-4.85547 8.40051,-8.4143z">
      </path>
    </g>
  </g>
</svg>