<svg version="1.1" xmlns="http://www.w3.org/2000/svg" xmlns:xlink="http://www.w3.org/1999/xlink" viewBox="0 0 226 226"><g fill="none" fill-rule="nonzero" stroke="none" stroke-width="1" stroke-linecap="butt" stroke-linejoin="miter" stroke-miterlimit="10" stroke-dasharray="" stroke-dashoffset="0" font-family="none" font-weight="none" font-size="none" text-anchor="none" style="mix-blend-mode: normal"><path d="M0,226v-226h226v226z" fill="none"></path><g fill="#ff8080"><path d="M63.17627,21.1875c-34.83578,0 -63.17627,28.34049 -63.17627,63.17627c0,18.34131 9.74349,38.283 28.95349,59.26569c24.15022,26.54794 56.97479,48.05789 74.38385,58.51392c2.8815,1.74444 6.18349,2.66223 9.55231,2.66223h0.2207c3.36881,0 6.6745,-0.91796 9.54541,-2.65533c17.41966,-10.46309 50.23733,-31.97304 74.37695,-58.51392c19.22059,-20.98975 28.96729,-40.93127 28.96729,-59.27258c0,-34.83578 -28.34049,-63.17627 -63.17627,-63.17627c-16.71341,0 -32.46118,6.4762 -44.35443,18.24939c-0.9605,0.95697 -3.55889,2.93811 -5.4693,2.93811c-1.91041,0 -4.512,-1.98081 -5.48309,-2.95191c-11.88266,-11.75906 -27.62723,-18.23559 -44.34064,-18.23559zM63.17627,28.25c14.84184,0 28.82377,5.75252 39.36102,16.1803c0.83338,0.83691 5.26824,5.0072 10.46271,5.0072c5.19447,0 9.62966,-4.17063 10.44891,-4.99341c10.55138,-10.44191 24.53297,-16.19409 39.37482,-16.19409c30.94081,0 56.11377,25.17296 56.11377,56.11377c0,16.51566 -9.12348,34.85184 -27.12579,54.50678c-24.41506,26.84809 -59.04316,48.96089 -72.80444,57.23108c-1.79741,1.09116 -3.79383,1.62382 -5.97968,1.64148h-0.02759h-0.02759c-2.22469,0 -4.17841,-0.55016 -5.99347,-1.64838c-13.75422,-8.26313 -48.37879,-30.37592 -72.80444,-57.23108c-17.99172,-19.64787 -27.112,-37.98069 -27.112,-54.49988c0,-30.94081 25.17296,-56.11377 56.11377,-56.11377zM162.4375,38.84375c-1.94925,0 -3.53125,1.57847 -3.53125,3.53125c0,1.95278 1.582,3.53125 3.53125,3.53125c3.94441,0 7.83402,0.58669 11.55243,1.74494c0.34959,0.10594 0.70228,0.15863 1.04834,0.15863c1.50431,0 2.89944,-0.968 3.37262,-2.48291c0.57913,-1.86097 -0.45978,-3.84184 -2.32428,-4.42096c-4.39994,-1.37013 -8.99139,-2.06219 -13.64911,-2.06219zM186.62518,46.87183c-0.89208,0.14434 -1.72639,0.63154 -2.29669,1.42077c-1.14059,1.582 -0.78195,3.78384 0.80005,4.92444c7.46859,5.38162 12.79725,13.2375 15.00781,22.11859c0.39903,1.60672 1.8389,2.68292 3.4209,2.68292c0.2825,0 0.5692,-0.03636 0.85523,-0.10346c1.89275,-0.47319 3.04222,-2.3938 2.57257,-4.28302c-2.61312,-10.50194 -8.90416,-19.78664 -17.72522,-26.14642c-0.791,-0.565 -1.74256,-0.75817 -2.63464,-0.61383zM46.00281,116.37952c-0.90179,-0.06754 -1.82764,0.21094 -2.56568,0.84833l-5.35895,4.60718c-1.47606,1.27125 -1.63679,3.50002 -0.36554,4.97961c0.69566,0.81219 1.68374,1.22766 2.67602,1.22766c0.81572,0 1.63618,-0.2761 2.30359,-0.85523l5.35205,-4.60718c1.47606,-1.27125 1.64368,-3.50002 0.37244,-4.97962c-0.63386,-0.73803 -1.51215,-1.15323 -2.41394,-1.22076zM57.68628,129.1665c-0.904,-0.00927 -1.80971,0.32879 -2.5036,1.01385l-5.04858,4.94513c-1.39484,1.36659 -1.41487,3.59856 -0.04828,4.99341c0.68859,0.70272 1.6097,1.05524 2.52429,1.05524c0.89341,0 1.78405,-0.32896 2.46911,-1.00696l5.04859,-4.94513c1.39484,-1.36659 1.41487,-3.59857 0.04828,-4.99341c-0.6833,-0.69742 -1.58581,-1.05286 -2.48981,-1.06213zM70.33533,140.96722c-0.90179,0.04855 -1.78825,0.44168 -2.44153,1.16559l-4.71753,5.25549c-1.30303,1.45134 -1.18236,3.68701 0.26898,4.98651c0.67447,0.60738 1.51833,0.9035 2.35877,0.9035c0.96403,0 1.93209,-0.39561 2.62774,-1.17248l4.71753,-5.25549c1.30303,-1.45135 1.18236,-3.68701 -0.26898,-4.98651c-0.72567,-0.64975 -1.64319,-0.94516 -2.54498,-0.89661zM83.6189,151.961c-0.8965,0.10859 -1.74979,0.5597 -2.35187,1.32422l-4.36578,5.55206c-1.20769,1.53256 -0.94295,3.75124 0.59314,4.95892c0.64622,0.51203 1.4167,0.75866 2.17945,0.75866c1.04878,0 2.08382,-0.46546 2.77948,-1.3518l4.36579,-5.55206c1.20769,-1.53256 0.94295,-3.75124 -0.59314,-4.95892c-0.76981,-0.60561 -1.71056,-0.83966 -2.60705,-0.73108zM97.55078,162.18231c-0.88899,0.16464 -1.71133,0.6657 -2.26221,1.46906l-4.00025,5.82105c-1.10175,1.61025 -0.69632,3.80536 0.9104,4.91064c0.61091,0.42022 1.31153,0.62073 2.00012,0.62073c1.12294,0 2.22899,-0.53532 2.91052,-1.53113l4.00024,-5.82105c1.10175,-1.61025 0.69632,-3.80536 -0.9104,-4.91064c-0.80513,-0.55088 -1.75945,-0.7233 -2.64844,-0.55866zM113.4483,171.26563c-1.36279,-0.18804 -2.76795,0.43865 -3.51746,1.69666l-3.61401,6.06934c-0.99581,1.67734 -0.44968,3.84233 1.22766,4.84167c0.565,0.339 1.19257,0.49659 1.80701,0.49659c1.20416,0 2.37432,-0.6119 3.03467,-1.72425l3.61401,-6.06934c0.99581,-1.67734 0.44968,-3.84233 -1.22766,-4.84168c-0.41845,-0.24983 -0.86996,-0.40631 -1.32422,-0.46899z"></path></g></g></svg>