<svg version="1.1" xmlns="http://www.w3.org/2000/svg" xmlns:xlink="http://www.w3.org/1999/xlink" viewBox="0 0 172 172">
  <g fill="none" fill-rule="nonzero" stroke="none" stroke-width="1" stroke-linecap="butt" stroke-linejoin="miter"
    stroke-miterlimit="10" stroke-dasharray="" stroke-dashoffset="0" font-family="none" font-weight="none"
    font-size="none" text-anchor="none" style="mix-blend-mode: normal">
    <path d="M0,172v-172h172v172z" fill="none"></path>
    <g fill="#F6AD55">
      <path
        d="M85.94751,8.0625c-0.23455,0.00461 -0.46749,0.0399 -0.69287,0.10498c0,0 -11.60329,3.34728 -25.09558,6.6925c-13.4923,3.34522 -29.14692,6.64001 -35.97156,6.64001c-1.4842,0.00015 -2.68735,1.2033 -2.6875,2.6875v72.2948c0,24.44297 16.17786,42.67141 31.9718,54.65283c15.79395,11.98142 31.56763,17.9989 31.56763,17.9989c0.61318,0.23437 1.29093,0.23624 1.90539,0.00525c0,0 15.78535,-5.92917 31.58338,-17.86768c15.79803,-11.93863 31.9718,-30.17543 31.9718,-54.7893v-72.2948c-0.00015,-1.4842 -1.2033,-2.68735 -2.6875,-2.6875c-6.83502,0 -22.48695,-3.29481 -35.97681,-6.64001c-13.48986,-3.3452 -25.09033,-6.6925 -25.09033,-6.6925c-0.25918,-0.07483 -0.52814,-0.11022 -0.79785,-0.10498zM86,13.53198c0.66035,0.19012 11.33613,3.27145 24.53918,6.54553c12.50887,3.10194 25.88731,5.96477 34.58582,6.45105v69.95374c0,22.25075 -14.73248,39.08364 -29.8407,50.50085c-14.34869,10.84325 -27.87112,16.15195 -29.27905,16.69714c-1.41368,-0.55559 -14.94008,-5.94274 -29.28955,-16.82837c-15.11231,-11.46433 -29.8407,-28.3081 -29.8407,-50.36963v-69.95374c8.69192,-0.48654 22.06504,-3.3493 34.57532,-6.45105c13.20541,-3.27409 23.88932,-6.35549 24.54968,-6.54553zM85.85303,24.19275c-0.16992,0.00849 -0.33864,0.0331 -0.50391,0.07349c-9.2877,2.32192 -29.68825,7.22963 -45.45654,9.71069c-1.30642,0.20678 -2.26821,1.33332 -2.26758,2.65601v60.37952c0,15.20514 8.70333,27.64296 18.79675,36.95837c10.09342,9.31541 21.70736,15.68311 28.39197,18.94373c0.74372,0.3628 1.61309,0.3628 2.35681,0c2.26789,-1.10649 5.0966,-2.56824 8.23572,-4.37769c1.28569,-0.74213 1.72632,-2.38601 0.98419,-3.67169c-0.74213,-1.28569 -2.38601,-1.72632 -3.67169,-0.98419c-2.55503,1.47277 -4.72064,2.57659 -6.69776,3.56409c-6.51725,-3.24828 -16.91523,-9.08732 -25.95117,-17.42676c-7.94664,-7.33411 -14.55175,-16.34354 -16.48193,-26.81201l85.41211,-55.26697v49.07312c0,11.73506 -6.03681,21.83117 -14.10413,30.11365c-0.6865,0.685 -0.95075,1.6867 -0.69147,2.62119c0.25927,0.93449 1.00186,1.65685 1.94316,1.89022c0.9413,0.23337 1.93532,-0.05845 2.6011,-0.7636c8.65969,-8.89065 15.62634,-20.28564 15.62634,-33.86145v-60.37952c0.00023,-1.32438 -0.96432,-2.45154 -2.27283,-2.65601c-15.76172,-2.47555 -36.16288,-7.38859 -45.45129,-9.71069c-0.26079,-0.06422 -0.52972,-0.08899 -0.79785,-0.07349zM86,29.62024c9.04798,2.25714 27.52978,6.60216 43,9.18579v2.72949l-85.99475,55.6449c-0.00028,-0.05645 -0.00525,-0.11144 -0.00525,-0.16797v-58.20642c15.47426,-2.58744 33.95049,-6.92838 43,-9.18579zM61.8125,51.0625l-8.0625,10.75l8.0625,10.75l8.0625,-10.75zM121.2052,70.65711c-0.34261,0.06546 -0.67842,0.19791 -0.98682,0.40417c-1.23356,0.82506 -1.56774,2.49056 -0.74536,3.72681l2.98145,4.47217c0.51869,0.77668 1.37327,1.19678 2.24133,1.19678c0.51062,0 1.02591,-0.14773 1.48547,-0.45142c1.23356,-0.82506 1.56774,-2.49055 0.74536,-3.72681l-2.98145,-4.47217c-0.62081,-0.92719 -1.71215,-1.34593 -2.73999,-1.14954zM110.59692,77.72754c-0.34304,0.06534 -0.67843,0.19858 -0.98682,0.40418c-1.23356,0.82237 -1.57042,2.49055 -0.74536,3.7268l2.98145,4.47217c0.516,0.77669 1.36802,1.19678 2.23608,1.19678c0.51331,0 1.03116,-0.14504 1.49072,-0.45141c1.23356,-0.82237 1.57042,-2.49056 0.74536,-3.72681l-2.98145,-4.47217c-0.61678,-0.92719 -1.71089,-1.34555 -2.73999,-1.14954zM99.98865,84.79797c-0.34282,0.06534 -0.67842,0.19858 -0.98682,0.40418c-1.23356,0.82506 -1.56774,2.49581 -0.74536,3.73206l2.98145,4.47217c0.51869,0.77669 1.37327,1.19153 2.24133,1.19153c0.51062,0 1.02591,-0.14504 1.48548,-0.45142c1.23356,-0.82506 1.56773,-2.49056 0.74536,-3.72681l-2.98145,-4.47217c-0.6188,-0.92719 -1.71152,-1.34556 -2.73999,-1.14954zM89.38037,91.87366c-0.34282,0.06546 -0.67842,0.19791 -0.98682,0.40418c-1.23356,0.82506 -1.56774,2.49055 -0.74536,3.7268l2.98145,4.47217c0.51869,0.77669 1.37327,1.19678 2.24133,1.19678c0.51062,0 1.02591,-0.14773 1.48547,-0.45142c1.23356,-0.82506 1.56774,-2.49055 0.74536,-3.7268l-2.98145,-4.47217c-0.6188,-0.92719 -1.71152,-1.34593 -2.73999,-1.14954zM78.7721,98.94409c-0.34283,0.06526 -0.67843,0.20316 -0.98682,0.40942c-1.23356,0.82506 -1.56773,2.49056 -0.74536,3.72681l2.98145,4.47217c0.51869,0.77669 1.36802,1.19678 2.23608,1.19678c0.51331,0 1.03385,-0.14773 1.49072,-0.45142c1.23356,-0.82506 1.56774,-2.49581 0.74536,-3.73206l-2.98145,-4.47217c-0.6188,-0.92517 -1.71152,-1.34531 -2.73999,-1.14954zM110.1875,99.4375l-8.0625,10.75l8.0625,10.75l8.0625,-10.75zM68.16382,106.01978c-0.34303,0.06534 -0.67842,0.19858 -0.98682,0.40417c-1.23356,0.82237 -1.57042,2.49056 -0.74536,3.72681l2.98145,4.47217c0.516,0.77669 1.36802,1.19678 2.23608,1.19678c0.51331,0 1.03116,-0.14773 1.49072,-0.45142c1.23356,-0.82238 1.57042,-2.49055 0.74536,-3.7268l-2.98145,-4.47217c-0.61678,-0.92719 -1.71089,-1.34556 -2.73999,-1.14954zM57.55554,113.09021c-0.34283,0.06547 -0.67843,0.19791 -0.98682,0.40418c-1.23356,0.82506 -1.56774,2.49055 -0.74536,3.72681l2.98145,4.47217c0.51869,0.77669 1.36802,1.19678 2.23609,1.19678c0.51331,0 1.03385,-0.14773 1.49072,-0.45141c1.23356,-0.82506 1.56774,-2.49056 0.74536,-3.72681l-2.98145,-4.47217c-0.6188,-0.92718 -1.71152,-1.34593 -2.73999,-1.14954zM107.76245,134.35401c-0.605,0.0031 -1.19127,0.21024 -1.66394,0.58789c-1.16871,0.90986 -2.34796,1.78134 -3.5221,2.61926c-0.7821,0.55786 -1.20714,1.49061 -1.11501,2.44685c0.09213,0.95624 0.68745,1.79068 1.56167,2.18896c0.87422,0.39828 1.89451,0.29988 2.67651,-0.25812c1.22849,-0.87671 2.46664,-1.7951 3.70056,-2.75574c0.9215,-0.69903 1.29245,-1.90921 0.92098,-3.00458c-0.37147,-1.09536 -1.40205,-1.83024 -2.55868,-1.82452z">
      </path>
    </g>
  </g>
</svg>