<svg version="1.1" xmlns="http://www.w3.org/2000/svg" xmlns:xlink="http://www.w3.org/1999/xlink" viewBox="0 0 172 172">
  <g fill="none" fill-rule="nonzero" stroke="none" stroke-width="1" stroke-linecap="butt" stroke-linejoin="miter"
    stroke-miterlimit="10" stroke-dasharray="" stroke-dashoffset="0" font-family="none" font-weight="none"
    font-size="none" text-anchor="none" style="mix-blend-mode: normal">
    <path d="M0,172v-172h172v172z" fill="none"></path>
    <g fill="#9F7AEA">
      <path
        d="M18.8125,16.125c-4.44067,0 -8.0625,3.62183 -8.0625,8.0625v123.625c0,4.44067 3.62183,8.0625 8.0625,8.0625h134.375c4.44067,0 8.0625,-3.62183 8.0625,-8.0625v-123.625c0,-4.44067 -3.62183,-8.0625 -8.0625,-8.0625zM18.8125,21.5h134.375c1.48022,0 2.6875,1.20728 2.6875,2.6875v123.625c0,1.48022 -1.20728,2.6875 -2.6875,2.6875h-134.375c-1.48022,0 -2.6875,-1.20728 -2.6875,-2.6875v-123.625c0,-1.48022 1.20728,-2.6875 2.6875,-2.6875zM48.375,75.25c-5.9314,0 -10.75,4.8186 -10.75,10.75c0,5.9314 4.8186,10.75 10.75,10.75c5.9314,0 10.75,-4.8186 10.75,-10.75c0,-5.9314 -4.8186,-10.75 -10.75,-10.75zM86,75.25c-5.9314,0 -10.75,4.8186 -10.75,10.75c0,5.9314 4.8186,10.75 10.75,10.75c5.9314,0 10.75,-4.8186 10.75,-10.75c0,-5.9314 -4.8186,-10.75 -10.75,-10.75zM123.625,75.25c-5.9314,0 -10.75,4.8186 -10.75,10.75c0,5.9314 4.8186,10.75 10.75,10.75c5.9314,0 10.75,-4.8186 10.75,-10.75c0,-5.9314 -4.8186,-10.75 -10.75,-10.75zM86,79.28125c3.70581,0 6.71875,3.01294 6.71875,6.71875c0,3.70581 -3.01294,6.71875 -6.71875,6.71875c-3.70581,0 -6.71875,-3.01294 -6.71875,-6.71875c0,-3.70581 3.01294,-6.71875 6.71875,-6.71875zM123.625,79.44922c3.61133,0 6.55078,2.93945 6.55078,6.55078c0,3.61133 -2.93945,6.55078 -6.55078,6.55078c-3.61133,0 -6.55078,-2.93945 -6.55078,-6.55078c0,-3.61133 2.93945,-6.55078 6.55078,-6.55078zM48.375,79.61719c3.51685,0 6.38281,2.86597 6.38281,6.38281c0,3.51685 -2.86597,6.38281 -6.38281,6.38281c-3.51685,0 -6.38281,-2.86597 -6.38281,-6.38281c0,-3.51685 2.86597,-6.38281 6.38281,-6.38281zM24.1875,134.375c-1.49072,0 -2.6875,1.19678 -2.6875,2.6875v5.375c0,1.49072 1.19678,2.6875 2.6875,2.6875c1.49072,0 2.6875,-1.19678 2.6875,-2.6875v-5.375c0,-1.49072 -1.19678,-2.6875 -2.6875,-2.6875zM37.625,134.375c-1.49072,0 -2.6875,1.19678 -2.6875,2.6875v5.375c0,1.49072 1.19678,2.6875 2.6875,2.6875c1.49072,0 2.6875,-1.19678 2.6875,-2.6875v-5.375c0,-1.49072 -1.19678,-2.6875 -2.6875,-2.6875zM51.0625,134.375c-1.49072,0 -2.6875,1.19678 -2.6875,2.6875v5.375c0,1.49072 1.19678,2.6875 2.6875,2.6875c1.49072,0 2.6875,-1.19678 2.6875,-2.6875v-5.375c0,-1.49072 -1.19678,-2.6875 -2.6875,-2.6875zM64.5,134.375c-1.49072,0 -2.6875,1.19678 -2.6875,2.6875v5.375c0,1.49072 1.19678,2.6875 2.6875,2.6875c1.49072,0 2.6875,-1.19678 2.6875,-2.6875v-5.375c0,-1.49072 -1.19678,-2.6875 -2.6875,-2.6875zM77.9375,134.375c-1.49072,0 -2.6875,1.19678 -2.6875,2.6875v5.375c0,1.49072 1.19678,2.6875 2.6875,2.6875c1.49072,0 2.6875,-1.19678 2.6875,-2.6875v-5.375c0,-1.49072 -1.19678,-2.6875 -2.6875,-2.6875zM91.375,134.375c-1.49072,0 -2.6875,1.19678 -2.6875,2.6875v5.375c0,1.49072 1.19678,2.6875 2.6875,2.6875c1.49072,0 2.6875,-1.19678 2.6875,-2.6875v-5.375c0,-1.49072 -1.19678,-2.6875 -2.6875,-2.6875zM104.8125,134.375c-1.49072,0 -2.6875,1.19678 -2.6875,2.6875v5.375c0,1.49072 1.19678,2.6875 2.6875,2.6875c1.49072,0 2.6875,-1.19678 2.6875,-2.6875v-5.375c0,-1.49072 -1.19678,-2.6875 -2.6875,-2.6875zM118.25,134.375c-1.49072,0 -2.6875,1.19678 -2.6875,2.6875v5.375c0,1.49072 1.19678,2.6875 2.6875,2.6875c1.49072,0 2.6875,-1.19678 2.6875,-2.6875v-5.375c0,-1.49072 -1.19678,-2.6875 -2.6875,-2.6875zM131.6875,134.375c-1.49072,0 -2.6875,1.19678 -2.6875,2.6875v5.375c0,1.49072 1.19678,2.6875 2.6875,2.6875c1.49072,0 2.6875,-1.19678 2.6875,-2.6875v-5.375c0,-1.49072 -1.19678,-2.6875 -2.6875,-2.6875zM145.125,134.375c-1.49072,0 -2.6875,1.19678 -2.6875,2.6875v5.375c0,1.49072 1.19678,2.6875 2.6875,2.6875c1.49072,0 2.6875,-1.19678 2.6875,-2.6875v-5.375c0,-1.49072 -1.19678,-2.6875 -2.6875,-2.6875z">
      </path>
    </g>
  </g>
</svg>