<svg viewBox="0 0 56 56" fill="none" xmlns="http://www.w3.org/2000/svg">
  <path
    d="M15.6543 5.25C7.02242 5.25 0 12.2724 0 20.9043C0 25.449 2.41432 30.3903 7.17432 35.5896C13.1584 42.1679 21.292 47.4978 25.6057 50.0886C26.3197 50.5209 27.1379 50.7483 27.9727 50.7483H28.0273C28.8621 50.7483 29.6812 50.5208 30.3926 50.0903C34.709 47.4977 42.8408 42.1678 48.8223 35.5913C53.5849 30.3903 56 25.449 56 20.9043C56 12.2724 48.9776 5.25 40.3457 5.25C36.2043 5.25 32.3022 6.85473 29.3552 9.77198C29.1172 10.0091 28.4734 10.5 28 10.5C27.5266 10.5 26.882 10.0092 26.6414 9.76856C23.697 6.85481 19.7957 5.25 15.6543 5.25V5.25ZM15.6543 7C19.3319 7 22.7965 8.4254 25.4075 11.0093C25.614 11.2167 26.7129 12.25 28 12.25C29.2871 12.25 30.3861 11.2166 30.5891 11.0127C33.2036 8.42532 36.6681 7 40.3457 7C48.0125 7 54.25 13.2375 54.25 20.9043C54.25 24.9967 51.9893 29.5401 47.5286 34.4104C41.4788 41.063 32.8984 46.5423 29.4885 48.5916C29.0432 48.8619 28.5485 48.9939 28.0068 48.9983H28H27.9932C27.4419 48.9983 26.9578 48.862 26.5081 48.5898C23.0999 46.5423 14.5204 41.0631 8.46802 34.4087C4.00989 29.5402 1.75 24.9975 1.75 20.9043C1.75 13.2375 7.98755 7 15.6543 7ZM40.25 9.625C39.767 9.625 39.375 10.0161 39.375 10.5C39.375 10.9839 39.767 11.375 40.25 11.375C41.2274 11.375 42.1912 11.5204 43.1125 11.8074C43.1992 11.8336 43.2866 11.8467 43.3723 11.8467C43.7451 11.8467 44.0908 11.6068 44.208 11.2314C44.3515 10.7703 44.0941 10.2795 43.6321 10.136C42.5418 9.79649 41.4041 9.625 40.25 9.625V9.625ZM46.2434 11.6143C46.0224 11.65 45.8156 11.7707 45.6743 11.9663C45.3917 12.3583 45.4806 12.9039 45.8726 13.1865C47.7232 14.52 49.0436 16.4666 49.5913 18.6672C49.6902 19.0654 50.047 19.332 50.439 19.332C50.509 19.332 50.58 19.323 50.6509 19.3064C51.1199 19.1891 51.4047 18.7132 51.2883 18.2451C50.6408 15.6429 49.082 13.3422 46.8962 11.7664C46.7002 11.6264 46.4645 11.5785 46.2434 11.6143V11.6143ZM11.3989 28.8374C11.1755 28.8207 10.9461 28.8897 10.7632 29.0476L9.4353 30.1892C9.06955 30.5042 9.02973 31.0565 9.34472 31.4231C9.5171 31.6243 9.76194 31.7273 10.0078 31.7273C10.2099 31.7273 10.4132 31.6589 10.5786 31.5154L11.9048 30.3738C12.2705 30.0588 12.3121 29.5065 11.9971 29.1399C11.84 28.957 11.6224 28.8541 11.3989 28.8374L11.3989 28.8374ZM14.2939 32.0059C14.0699 32.0036 13.8455 32.0873 13.6736 32.2571L12.4226 33.4824C12.077 33.821 12.072 34.3741 12.4106 34.7197C12.5813 34.8939 12.8095 34.9812 13.0361 34.9812C13.2575 34.9812 13.4782 34.8997 13.6479 34.7317L14.8989 33.5063C15.2446 33.1677 15.2495 32.6147 14.9109 32.269C14.7416 32.0962 14.5179 32.0082 14.2939 32.0059ZM17.4282 34.9299C17.2048 34.942 16.9851 35.0394 16.8232 35.2188L15.6543 36.521C15.3314 36.8806 15.3613 37.4346 15.7209 37.7566C15.8881 37.9071 16.0972 37.9805 16.3054 37.9805C16.5443 37.9805 16.7842 37.8824 16.9565 37.6899L18.1255 36.3877C18.4484 36.0281 18.4185 35.4741 18.0588 35.1521C17.879 34.9911 17.6517 34.9179 17.4282 34.9299ZM20.7197 37.6541C20.4976 37.681 20.2861 37.7927 20.137 37.9822L19.0552 39.3579C18.7559 39.7377 18.8215 40.2874 19.2022 40.5867C19.3623 40.7135 19.5532 40.7747 19.7422 40.7747C20.0021 40.7747 20.2585 40.6593 20.4309 40.4397L21.5127 39.064C21.8119 38.6842 21.7464 38.1345 21.3657 37.8352C21.175 37.6851 20.9419 37.6271 20.7197 37.6541H20.7197ZM24.1719 40.1868C23.9516 40.2276 23.7478 40.3517 23.6113 40.5508L22.6201 41.9932C22.3471 42.3922 22.4476 42.9361 22.8457 43.21C22.9971 43.3141 23.1707 43.3638 23.3413 43.3638C23.6196 43.3638 23.8936 43.2311 24.0625 42.9844L25.0537 41.542C25.3267 41.143 25.2262 40.5991 24.8281 40.3252C24.6286 40.1887 24.3922 40.146 24.1719 40.1868H24.1719ZM28.1111 42.4375C27.7734 42.3909 27.4252 42.5462 27.2395 42.8579L26.344 44.3618C26.0972 44.7774 26.2326 45.3139 26.6482 45.5615C26.7882 45.6455 26.9437 45.6846 27.0959 45.6846C27.3943 45.6846 27.6843 45.533 27.8479 45.2573L28.7434 43.7534C28.9902 43.3378 28.8548 42.8013 28.4392 42.5537C28.3355 42.4918 28.2236 42.453 28.1111 42.4375Z"
    fill="#FF8080" />
</svg>