<svg id="404-illustratrion" xmlns="http://www.w3.org/2000/svg" length="auto" viewBox="0 0 586.75 280.77"><path d="M38.64,233.18c-15,0-23.9,3.29-23.9,7.73s46.51,35.32,64.45,38.77,22.63-7.08,22.63-7.08-20.63-12.77-23.44-14.44S38.64,233.18,38.64,233.18Z" fill="#666db3"/><path d="M27.12,164.87c-2.82,7.77-4.55,70.68-3,73.46,4,7.16,60.81,37.6,60.81,37.6s31-51.63,27.2-54.41-7.51-34.42-14.07-33.31S27.12,164.87,27.12,164.87Z" fill="#f5e5d6"/><path d="M569.41,189.54s-61.66-36.83-72.35-40.78-459.49,3-474.21,8.38c-3.8,1.39-10.09,6.24-5.76,8.37,10.73,5.29,64.77,29.56,64.77,29.56S96.55,218,107.24,217.21s346-4,350-5.53S569.41,189.54,569.41,189.54Z" fill="#666db3"/><path d="M569.41,189.54c-8-1.58-479.88,6.52-487.55,5.53s-8,80.66-2.67,84.61,481-3.95,487.64-6.32S569.41,189.54,569.41,189.54Z" fill="#888ec5"/><path d="M59.64,191.38a3.74,3.74,0,0,0-2.52-1.67c-1.3-.39-2.61-.74-3.9-1.14-2.47-.76-4.92-1.56-7.34-2.45s-4.67-1.79-7-2.72c-1.24-.49-2.45-1-3.69-1.51a9,9,0,0,0-1.67-.61,5.32,5.32,0,0,0-1.53.16.13.13,0,0,0-.09.21,5.57,5.57,0,0,0,.77,1.31,9,9,0,0,0,1.63,1c1.15.65,2.35,1.23,3.55,1.81,2.4,1.15,4.85,2.17,7.34,3.1s4.85,1.76,7.31,2.51c2.06.62,5,2.09,7,.82A.59.59,0,0,0,59.64,191.38Z" fill="#e7ceb4"/><path d="M53.88,199.31c-.55-1.15-2.44-1.46-3.54-1.81-1.42-.44-2.83-.95-4.22-1.48-2.73-1-5.39-2.57-8.31-2.89-.11,0-.25.11-.16.23A10.21,10.21,0,0,0,41,196a41,41,0,0,0,4.2,1.95c1.42.59,2.87,1.11,4.33,1.58,1.16.39,3.06,1.2,4.18.42A.51.51,0,0,0,53.88,199.31Z" fill="#e7ceb4"/><path d="M68.21,212.24c-1.14-1.59-3.81-1.61-5.56-2-2.24-.51-4.46-1.12-6.64-1.84s-4.39-1.65-6.54-2.61c-1-.44-1.94-.92-2.92-1.36a7.25,7.25,0,0,0-2.83-.71c-.13,0-.19.16-.13.26a6,6,0,0,0,2.09,2.15,33.94,33.94,0,0,0,3.2,1.84,56,56,0,0,0,6.32,2.73,59.07,59.07,0,0,0,6.48,2c1.79.43,4.75,1.52,6.39.21A.48.48,0,0,0,68.21,212.24Z" fill="#e7ceb4"/><path d="M62.1,217.3c-.88-.37-1.77-.72-2.65-1.11a10.19,10.19,0,0,0-2.79-.63,25.16,25.16,0,0,0-2.74-.27,7.43,7.43,0,0,0-1.42.07c-.27,0-.55.26-.82.24s-.17.22,0,.26.47.37.71.5a8.16,8.16,0,0,0,1.34.54,22.94,22.94,0,0,0,2.69.66,9.8,9.8,0,0,0,2.85.29c.93-.1,1.87-.1,2.81-.16A.2.2,0,0,0,62.1,217.3Z" fill="#e7ceb4"/><path d="M58,226.73c-.19-.34-.17-.75-.41-1.07a3.37,3.37,0,0,0-1.48-.92,17.32,17.32,0,0,0-3.62-.85c-2.49-.39-5-.7-7.42-1.33a51.91,51.91,0,0,1-7-2.38c-1.15-.48-2.27-1-3.4-1.56-.83-.38-1.79-.94-2.7-.6a.13.13,0,0,0-.09.15c.14,1.84,3.3,3.13,4.69,3.87a37.34,37.34,0,0,0,6.91,2.88,48.31,48.31,0,0,0,7,1.55,36.3,36.3,0,0,1,3.75.66c.64.15,1.27.4,1.91.5a5.49,5.49,0,0,0,1.11-.22C57.7,227.55,58.24,227.15,58,226.73Z" fill="#e7ceb4"/><path d="M62.21,237.33Z" fill="#e7ceb4"/><path d="M62.67,234.78a20.72,20.72,0,0,0-4.28-.88c-1.38-.23-2.77-.48-4.16-.68s-2.79-.42-4.19-.6c-.72-.09-1.43-.17-2.15-.22a3.73,3.73,0,0,0-.82-.05.11.11,0,0,0-.07,0v0c-.74-.89-1.67.43-1.1,1.25a3.27,3.27,0,0,0,2,1c1,.25,1.92.45,2.89.65,1.88.37,3.77.73,5.67,1.06a46.39,46.39,0,0,0,4.88.8s0,0,0,.05a1.48,1.48,0,0,0,.64.25,1.06,1.06,0,0,0,.31,0l-.13,0,.21,0a1.09,1.09,0,0,0,1-.78,1.46,1.46,0,0,0,.08-.62A1.25,1.25,0,0,0,62.67,234.78Z" fill="#e7ceb4"/><path d="M38.61,240.9c-.06-.08-.17-.15-.21-.23l.06.24a1,1,0,0,0-.61-.78l.26.26a2.35,2.35,0,0,0-1.18-.77,8,8,0,0,0-1-.34c-.35-.1-.72-.16-1.08-.23a3,3,0,0,0-1.11-.08h-.12a.58.58,0,0,0-.5.28.15.15,0,0,0-.07.27v0a.6.6,0,0,0,.29.5c-.14-.1.18.2.22.23l.28.13c.22.1.44.21.67.3.41.17.81.34,1.23.47a8.78,8.78,0,0,0,1.23.29,3.58,3.58,0,0,0,.73,0,1.11,1.11,0,0,0,.4-.06,1.32,1.32,0,0,0,.2-.12,1.66,1.66,0,0,0,.22,0A.26.26,0,0,0,38.61,240.9Z" fill="#e7ceb4"/><path d="M62.8,247.1a3.52,3.52,0,0,0-1.55-1.36,15.89,15.89,0,0,0-2.33-.77,15.88,15.88,0,0,0-2.24-.54,8.32,8.32,0,0,0-1.12-.1,3.21,3.21,0,0,0-.54,0,2.12,2.12,0,0,1-.62.11.22.22,0,0,0-.1.41,3.9,3.9,0,0,1,.46.45,3.47,3.47,0,0,0,.38.29,6.92,6.92,0,0,0,.94.57,20.87,20.87,0,0,0,2.27.88,14.9,14.9,0,0,0,2.16.65,3.58,3.58,0,0,0,2.19-.22A.29.29,0,0,0,62.8,247.1Z" fill="#e7ceb4"/><path d="M154.52,231.75c-.13-4.83-.16-9.68-.58-14.5-.22-2.61-.49-5.23-.78-7.83A63.19,63.19,0,0,0,152,201a2.33,2.33,0,0,0-1.63-1.63,2.17,2.17,0,0,0-1.62.15l-.17.09a2.33,2.33,0,0,0-1.16,2c-.12,2.36.11,4.74.21,7.1s.16,4.75.2,7.12c.08,4.68.24,9.35.24,14,0,9.42-.64,18.9-1.38,28.28-.22,2.69-.46,5.38-.74,8.06q-.19,1.89-.42,3.78a12.88,12.88,0,0,0-.13,4.71l0,0a3.39,3.39,0,0,0,1.23,1.85,3.49,3.49,0,0,0,5.15-1c1.21-2.25,1.12-5.39,1.39-7.91s.46-4.74.66-7.11c.4-4.82.65-9.64.79-14.48S154.65,236.52,154.52,231.75Z" fill="#666db3"/><path d="M142.44,247.64c-.11-9.24-.17-18.5-.66-27.72-.13-2.57-.25-5.15-.43-7.71-.09-1.29-.19-2.57-.29-3.86a19.61,19.61,0,0,0-.48-4.27c-.7-2.25-4.19-2.48-4.78,0-.54,2.25-.24,4.85-.27,7.16s0,4.5,0,6.75c0,4.58,0,9.16.1,13.74q.19,13.86.13,27.72c0,2.57,0,5.15-.05,7.72l0,3.86c0,1.62-.23,3.29.66,4.73l0,0a3.13,3.13,0,0,0,.78.92,3.17,3.17,0,0,0,4.65-.88c.81-1.25.7-2.59.71-4l0-3.62v-6.75Q142.52,254.51,142.44,247.64Z" fill="#666db3"/><path d="M163.66,215.25c-.22-2.79-.44-5.57-.78-8.34-.19-1.48-.34-3-.58-4.46s-.5-2.94-1.8-3.65a1.74,1.74,0,0,0-2,.27c-1,.79-1,2.15-1,3.32s0,2.54,0,3.81c.05,2.46.15,4.92.22,7.38q.24,7.38.24,14.78c0,9.86-.4,19.72-.93,29.56q-.21,4.05-.5,8.1c-.11,1.43-.22,2.86-.34,4.28s-.56,3.31,0,4.75c.83,2.09,3.09,3.36,5.21,2.11a3.34,3.34,0,0,0,1.24-1.29l0,0c.83-1.32.8-2.88.92-4.4.11-1.35.21-2.69.31-4q.26-3.69.46-7.38c.26-5,.41-10,.41-15C164.75,235.11,164.42,225.16,163.66,215.25Z" fill="#666db3"/><path d="M485.73,228.3c-.14-4.83-.17-9.68-.58-14.5q-.34-3.93-.78-7.84a64.71,64.71,0,0,0-1.2-8.44,2.35,2.35,0,0,0-1.63-1.63,2.17,2.17,0,0,0-1.62.15l-.18.09a2.33,2.33,0,0,0-1.16,2c-.12,2.37.12,4.75.21,7.11s.16,4.75.2,7.12c.08,4.68.24,9.35.24,14,0,9.42-.64,18.9-1.38,28.28-.21,2.69-.46,5.37-.74,8.06-.13,1.26-.27,2.52-.41,3.78a12.88,12.88,0,0,0-.14,4.71l0,0a3.46,3.46,0,0,0,1.24,1.85,3.5,3.5,0,0,0,5.15-1c1.21-2.25,1.12-5.39,1.38-7.91s.47-4.74.66-7.11q.6-7.23.79-14.48C485.93,237.8,485.86,233.07,485.73,228.3Z" fill="#666db3"/><path d="M473.64,244.19c-.1-9.24-.17-18.5-.65-27.72-.14-2.58-.26-5.15-.43-7.72-.09-1.28-.2-2.57-.3-3.85a19.76,19.76,0,0,0-.47-4.28c-.71-2.24-4.2-2.47-4.79,0-.53,2.26-.23,4.86-.26,7.17s0,4.5,0,6.75q0,6.87.1,13.74Q467,242.14,467,256c0,2.57,0,5.14-.06,7.72l0,3.85c0,1.63-.23,3.29.66,4.73l0,0a3.13,3.13,0,0,0,.78.92,3.18,3.18,0,0,0,4.65-.89c.8-1.24.7-2.59.71-4,0-1.21,0-2.41,0-3.62q0-3.37,0-6.75Q473.72,251.06,473.64,244.19Z" fill="#666db3"/><path d="M494.86,211.79c-.21-2.78-.43-5.56-.78-8.33-.18-1.49-.34-3-.58-4.47s-.5-2.93-1.79-3.64a1.76,1.76,0,0,0-2,.27c-1,.79-1,2.15-1,3.32s0,2.54.06,3.81c.05,2.46.14,4.92.22,7.38q.22,7.38.23,14.77c0,9.87-.4,19.72-.92,29.57q-.21,4.05-.51,8.1c-.1,1.43-.22,2.85-.33,4.28s-.56,3.31,0,4.74c.83,2.09,3.08,3.36,5.2,2.12a3.39,3.39,0,0,0,1.25-1.3l0,0c.83-1.33.8-2.89.93-4.4.1-1.35.21-2.7.3-4q.27-3.69.46-7.38.4-7.51.41-15C496,231.66,495.62,221.71,494.86,211.79Z" fill="#666db3"/><path d="M65.71,146.41c-12.9,0-20.55,2.79-20.55,6.54s40,29.88,55.44,32.8,19.47-6,19.47-6S102.32,169,99.9,167.55,65.71,146.41,65.71,146.41Z" fill="#666db3"/><path d="M55.8,88.63c-2.42,6.58-3.91,59.79-2.57,62.14,3.47,6.06,52.32,31.8,52.32,31.8s26.62-43.67,23.39-46-6.45-29.11-12.1-28.18S55.8,88.63,55.8,88.63Z" fill="#f5e5d6"/><path d="M522.32,109.5S469.27,78.35,460.08,75,64.8,77.53,52.13,82.09c-3.26,1.17-8.67,5.28-5,7.09,9.23,4.47,55.72,25,55.72,25s12.64,19.4,21.83,18.73,297.62-3.35,301.07-4.68S522.32,109.5,522.32,109.5Z" fill="#666db3"/><path d="M522.32,109.5c-6.89-1.34-412.83,5.51-419.42,4.68s-6.9,68.23-2.3,71.57,413.76-3.34,419.5-5.35S522.32,109.5,522.32,109.5Z" fill="#888ec5"/><path d="M83.79,111.06a3.29,3.29,0,0,0-2.17-1.42c-1.12-.33-2.25-.63-3.36-1C76.14,108,74,107.36,72,106.6s-4-1.51-6-2.29c-1.06-.42-2.11-.87-3.17-1.28a8.46,8.46,0,0,0-1.43-.52,5,5,0,0,0-1.33.14.11.11,0,0,0-.07.18,4.4,4.4,0,0,0,.66,1.1,7.32,7.32,0,0,0,1.4.84c1,.55,2,1,3.06,1.53,2.06,1,4.17,1.84,6.31,2.63s4.17,1.48,6.29,2.11c1.77.53,4.31,1.77,6,.7A.5.5,0,0,0,83.79,111.06Z" fill="#e7ceb4"/><path d="M78.83,117.76c-.48-1-2.1-1.23-3-1.52-1.22-.38-2.43-.81-3.63-1.26-2.35-.87-4.63-2.18-7.14-2.45-.1,0-.23.1-.14.2a8.69,8.69,0,0,0,2.9,2.26,35.67,35.67,0,0,0,3.61,1.65c1.22.49,2.47.93,3.72,1.34,1,.32,2.63,1,3.6.35A.43.43,0,0,0,78.83,117.76Z" fill="#e7ceb4"/><path d="M91.16,128.7c-1-1.35-3.28-1.36-4.79-1.69-1.92-.43-3.83-.94-5.71-1.56a59,59,0,0,1-5.62-2.2c-.85-.37-1.67-.78-2.52-1.15a6.36,6.36,0,0,0-2.43-.61c-.12,0-.16.14-.11.22a5,5,0,0,0,1.8,1.82,28.6,28.6,0,0,0,2.75,1.56A47.47,47.47,0,0,0,80,127.4a48.76,48.76,0,0,0,5.56,1.68c1.55.37,4.1,1.29,5.51.18A.41.41,0,0,0,91.16,128.7Z" fill="#e7ceb4"/><path d="M85.9,133c-.76-.31-1.52-.61-2.28-.94a8.88,8.88,0,0,0-2.4-.53,23.55,23.55,0,0,0-2.36-.23,6.2,6.2,0,0,0-1.22.06c-.23,0-.47.22-.7.2s-.15.19,0,.22.41.31.61.43a7,7,0,0,0,1.15.45,18.65,18.65,0,0,0,2.32.56,8.8,8.8,0,0,0,2.45.25c.8-.08,1.61-.09,2.41-.13A.17.17,0,0,0,85.9,133Z" fill="#e7ceb4"/><path d="M82.37,141c-.16-.29-.15-.64-.35-.91a3,3,0,0,0-1.28-.77,15,15,0,0,0-3.11-.72c-2.14-.33-4.28-.59-6.38-1.13a45.3,45.3,0,0,1-6-2c-1-.41-2-.88-2.93-1.32a3.23,3.23,0,0,0-2.32-.51.14.14,0,0,0-.08.13c.12,1.55,2.85,2.65,4,3.27a32.69,32.69,0,0,0,5.94,2.44A43.32,43.32,0,0,0,76,140.74a32.06,32.06,0,0,1,3.23.56c.54.13,1.09.34,1.64.42a4.34,4.34,0,0,0,1-.19C82.11,141.65,82.58,141.32,82.37,141Z" fill="#e7ceb4"/><path d="M86,149.92Z" fill="#e7ceb4"/><path d="M86.39,147.77a18.35,18.35,0,0,0-3.68-.75c-1.19-.19-2.38-.4-3.58-.57s-2.4-.36-3.6-.5c-.62-.08-1.24-.15-1.86-.2a4.05,4.05,0,0,0-.7,0h-.06v0c-.64-.76-1.44.36-1,1.06a2.9,2.9,0,0,0,1.73.82c.82.21,1.65.38,2.49.54,1.62.32,3.24.62,4.87.9a41.51,41.51,0,0,0,4.21.69l0,0a1.33,1.33,0,0,0,.55.22,1.23,1.23,0,0,0,.27,0H86l.17,0a1,1,0,0,0,.89-.66,1.33,1.33,0,0,0,.06-.52A1.05,1.05,0,0,0,86.39,147.77Z" fill="#e7ceb4"/><path d="M65.69,153c0-.07-.15-.13-.18-.2l0,.2a.82.82,0,0,0-.52-.66c.07.08.15.15.22.22a2.09,2.09,0,0,0-1-.65,7.4,7.4,0,0,0-.91-.29c-.3-.08-.62-.13-.93-.19a2.78,2.78,0,0,0-.95-.07h-.1a.52.52,0,0,0-.43.24.12.12,0,0,0-.07.22v0a.5.5,0,0,0,.25.43c-.13-.09.15.16.19.19l.24.11.57.25a10.45,10.45,0,0,0,1.06.4,7.77,7.77,0,0,0,1.06.25,4.46,4.46,0,0,0,.63,0,1.33,1.33,0,0,0,.34,0,.71.71,0,0,0,.17-.11.4.4,0,0,0,.19,0A.21.21,0,0,0,65.69,153Z" fill="#e7ceb4"/><path d="M86.5,158.19A3,3,0,0,0,85.17,157a14.27,14.27,0,0,0-2-.65,14.11,14.11,0,0,0-1.92-.46,7.93,7.93,0,0,0-1-.08,2.33,2.33,0,0,0-.46,0,1.9,1.9,0,0,1-.53.09.18.18,0,0,0-.1.34,2.47,2.47,0,0,1,.4.39,2.52,2.52,0,0,0,.33.24,5.56,5.56,0,0,0,.81.48,15.32,15.32,0,0,0,2,.74,12.07,12.07,0,0,0,1.86.56,3.19,3.19,0,0,0,1.88-.19A.24.24,0,0,0,86.5,158.19Z" fill="#e7ceb4"/><path d="M427.43,121.5c0-1.41,0-3-1.19-4a2.32,2.32,0,0,0-2.74-.35c-1.41,1-1.58,2.23-1.75,3.87-.11,1.12-.17,2.24-.22,3.37-.1,2.41-.21,4.81-.3,7.22-.19,4.89-.32,9.78-.47,14.67l-.45,14.43c-.08,2.41-.15,4.81-.23,7.22,0,1.2-.08,2.4-.11,3.61-.05,1.51-.28,3,.56,4.31a2.86,2.86,0,0,0,4.89,0c.88-1.25.7-2.85.74-4.31l.09-3.37.21-7.22.42-14.43c.14-4.81.3-9.62.41-14.43.06-2.41.09-4.81.13-7.22C427.44,123.75,427.46,122.63,427.43,121.5Z" fill="#666db3"/><path d="M437.05,146.88c-.05-2.32-.08-4.65-.19-7-.06-1.13-.18-2.25-.32-3.37a8.56,8.56,0,0,0-.47-2,3.83,3.83,0,0,0-1-1.39,1.39,1.39,0,0,0-2,0,3.8,3.8,0,0,0-1.05,1.39,9.76,9.76,0,0,0-.5,2c-.14,1.12-.3,2.24-.37,3.37-.16,2.32-.23,4.65-.33,7-.19,4.57-.36,9.13-.38,13.7a3.26,3.26,0,0,0,2.24,3.66l.23.08c2.12.75,4.22-1.2,4.26-3.25C437.27,156.34,437.16,151.61,437.05,146.88Z" fill="#666db3"/><path d="M302.12,145.87c-.21-4.16-.95-8.41-2.77-11.08-3.51-5.15-8.23-4.5-13.55-5.19l-.32,0a15.57,15.57,0,0,0-11.77,3.94c-5.51,4.68-7.52,12.9-5.65,19.74a21.53,21.53,0,0,0,14.51,14.45,16.72,16.72,0,0,0,12.19-.62c4.9-2.41,6.76-7.33,7.2-12.65A64.58,64.58,0,0,0,302.12,145.87Z" fill="#666db3"/><path d="M156.11,150.42c-.06-5-.14-10-.28-14.94-.07-2.5-.22-5-.37-7.47-.15-2.33.13-5.57-1.19-7.6a1.69,1.69,0,0,0-2.89,0c-1.19,2.14-.75,5.23-.78,7.6s-.09,4.82-.09,7.23c0,5.06,0,10.12-.17,15.18s-.37,10-.56,14.94-.59,10.13-.59,15.18a3.19,3.19,0,0,0,6.37,0c.49-4.93.49-10,.59-14.94S156.18,155.48,156.11,150.42Z" fill="#666db3"/><path d="M145.64,133.94c-.09-1-.83-3.43-2.4-2.85s-2,1.84-2.34,3.39-.57,3.25-.77,4.89q-.54,4.62-.87,9.24c-.22,3.08-.27,6.18-.29,9.26,0,1.59,0,3.17,0,4.75,0,1.81,0,3.48.88,5.1s3.64,1.79,4.46,0a6.16,6.16,0,0,0,.72-2.72c0-.79-.06-1.59-.08-2.38,0-1.58-.06-3.16-.07-4.75,0-3.24.08-6.49.16-9.73s.22-6.32.44-9.48A32.33,32.33,0,0,0,145.64,133.94Z" fill="#666db3"/><path d="M107,65.91c-10.55,0-16.8,2.53-16.8,6s32.7,27.16,45.31,29.82,15.91-5.46,15.91-5.46-14.5-9.81-16.48-11.1S107,65.91,107,65.91Z" fill="#666db3"/><path d="M98.87,13.38c-2,6-3.2,54.36-2.1,56.49,2.84,5.51,42.76,28.92,42.76,28.92S161.28,59.08,158.65,57s-5.28-26.48-9.89-25.62S98.87,13.38,98.87,13.38Z" fill="#f5e5d6"/><path d="M480.16,32.35S436.81,4,429.29,1,106.22,3.29,95.87,7.43c-2.67,1.07-7.09,4.8-4.05,6.44,7.54,4.07,45.54,22.74,45.54,22.74s10.33,17.63,17.84,17,243.25-3,246.07-4.25S480.16,32.35,480.16,32.35Z" fill="#666db3"/><path d="M480.16,32.35c-5.63-1.22-337.41,5-342.8,4.26s-5.64,62-1.88,65.07,338.17-3,342.87-4.87S480.16,32.35,480.16,32.35Z" fill="#888ec5"/><path d="M121.74,33.77A2.66,2.66,0,0,0,120,32.48c-.92-.3-1.84-.57-2.75-.88-1.73-.58-3.45-1.2-5.16-1.88s-3.28-1.37-4.92-2.09c-.86-.38-1.72-.79-2.59-1.16a5.61,5.61,0,0,0-1.17-.47,3.62,3.62,0,0,0-1.08.12c-.07,0-.09.1-.06.16a4.24,4.24,0,0,0,.54,1,6.65,6.65,0,0,0,1.14.76c.82.51,1.66.95,2.5,1.39,1.69.89,3.41,1.67,5.16,2.39s3.41,1.35,5.14,1.93c1.45.48,3.53,1.6,4.94.63A.49.49,0,0,0,121.74,33.77Z" fill="#e7ceb4"/><path d="M117.69,39.86c-.39-.88-1.72-1.12-2.49-1.39-1-.34-2-.73-3-1.13-1.92-.8-3.79-2-5.84-2.23-.08,0-.18.09-.11.18a7.17,7.17,0,0,0,2.37,2.05,27.24,27.24,0,0,0,2.95,1.5c1,.45,2,.85,3,1.22.82.29,2.15.92,2.94.32A.43.43,0,0,0,117.69,39.86Z" fill="#e7ceb4"/><path d="M127.76,49.81c-.8-1.23-2.67-1.24-3.91-1.54a48,48,0,0,1-4.66-1.41,46.75,46.75,0,0,1-4.6-2c-.69-.34-1.37-.71-2.06-1.05a4.91,4.91,0,0,0-2-.55c-.09,0-.13.13-.09.21a4.5,4.5,0,0,0,1.47,1.65,22.88,22.88,0,0,0,2.25,1.41,36.91,36.91,0,0,0,4.45,2.11,36.79,36.79,0,0,0,4.55,1.52c1.26.33,3.34,1.17,4.5.17A.4.4,0,0,0,127.76,49.81Z" fill="#e7ceb4"/><path d="M123.47,53.7c-.62-.29-1.25-.56-1.86-.85a6.7,6.7,0,0,0-2-.49,15.58,15.58,0,0,0-1.93-.2,4.2,4.2,0,0,0-1,.05c-.18,0-.38.2-.57.18s-.12.17,0,.2.33.28.5.39a5.58,5.58,0,0,0,.94.41,16,16,0,0,0,1.89.51,6.18,6.18,0,0,0,2,.22c.66-.07,1.32-.07,2-.12A.16.16,0,0,0,123.47,53.7Z" fill="#e7ceb4"/><path d="M120.58,61c-.13-.26-.12-.58-.29-.82a2.4,2.4,0,0,0-1-.71,11.29,11.29,0,0,0-2.54-.65,49.13,49.13,0,0,1-5.22-1,34.66,34.66,0,0,1-4.89-1.82c-.81-.37-1.6-.8-2.39-1.2-.58-.3-1.26-.73-1.9-.47a.12.12,0,0,0-.07.12c.1,1.41,2.33,2.41,3.3,3a26.22,26.22,0,0,0,4.86,2.21,31.56,31.56,0,0,0,4.95,1.19,26.17,26.17,0,0,1,2.64.51,13.45,13.45,0,0,0,1.34.38,2.77,2.77,0,0,0,.78-.17A.38.38,0,0,0,120.58,61Z" fill="#e7ceb4"/><path d="M123.55,69.1Z" fill="#e7ceb4"/><path d="M123.86,67.14a14.5,14.5,0,0,0-3-.68c-1-.17-2-.36-2.93-.52s-2-.32-2.94-.45c-.51-.07-1-.14-1.52-.18a2.73,2.73,0,0,0-.57,0h-.05v0c-.52-.68-1.18.34-.78,1a2.25,2.25,0,0,0,1.42.74c.67.2,1.35.35,2,.5,1.33.29,2.65.56,4,.81a28,28,0,0,0,3.43.63s0,0,0,0a1.08,1.08,0,0,0,.45.2.82.82,0,0,0,.22,0h-.09l.14,0a.78.78,0,0,0,.72-.6,1.08,1.08,0,0,0,0-.47A.94.94,0,0,0,123.86,67.14Z" fill="#e7ceb4"/><path d="M107,71.85c0-.06-.12-.11-.15-.18l0,.19a.71.71,0,0,0-.42-.6l.18.2a1.77,1.77,0,0,0-.83-.6c-.24-.1-.49-.18-.74-.26s-.51-.12-.76-.17a1.87,1.87,0,0,0-.78-.07h-.08a.4.4,0,0,0-.35.22.11.11,0,0,0-.06.2v0a.46.46,0,0,0,.2.39c-.1-.09.13.15.16.17a1.24,1.24,0,0,0,.2.1l.47.23a9.19,9.19,0,0,0,.86.36,4.53,4.53,0,0,0,.86.22,1.83,1.83,0,0,0,.52,0,.7.7,0,0,0,.28,0,.67.67,0,0,0,.14-.09l.15,0A.21.21,0,0,0,107,71.85Z" fill="#e7ceb4"/><path d="M124,76.62a2.62,2.62,0,0,0-1.09-1.05,20.07,20.07,0,0,0-3.21-1,5.39,5.39,0,0,0-.79-.07,1.59,1.59,0,0,0-.38,0,2.14,2.14,0,0,1-.44.08c-.15,0-.19.23-.07.31a2.66,2.66,0,0,1,.32.35c.09.09.18.15.27.23a5.74,5.74,0,0,0,.66.43,11.76,11.76,0,0,0,1.6.67,9.36,9.36,0,0,0,1.52.51,2.42,2.42,0,0,0,1.54-.17A.23.23,0,0,0,124,76.62Z" fill="#e7ceb4"/><path d="M151.39,13.38c-4-.42,16.16,12.31,20.92,13.49s51.73,0,51.73,0c2.73-1-21.54-15.81-25.23-16.7S151.39,13.38,151.39,13.38Z" fill="#888ec5"/><path d="M187.33,54.88c-.12-2.41-.32-4.82-.51-7.23s-.23-5-1.15-7.32c-.78-1.92-3.56-2.22-4.23,0-.72,2.37-.57,4.87-.6,7.32s-.08,4.82-.1,7.23c0,4.81-.22,9.63-.27,14.45s-.17,9.63-.35,14.45-.57,9.62-.69,14.44a3.92,3.92,0,0,0,4.44,3.84,3.86,3.86,0,0,0,3.35-3.87l0,0c.4-4.79.41-9.64.51-14.44s.14-9.64.12-14.45S187.59,59.68,187.33,54.88Z" fill="#666db3"/><path d="M200.29,67.37c-.15-5-.4-9.93-.7-14.89-.15-2.56-.31-5.14-.58-7.69a20.19,20.19,0,0,0-.65-4A2.47,2.47,0,0,0,195,39.2c-1.43.75-1.47,2.24-1.65,3.67s-.23,2.55-.28,3.84c-.09,2.4-.19,4.81-.23,7.21-.09,4.81-.13,9.6-.09,14.41q.13,13.77.36,27.54a3.36,3.36,0,0,0-.43,1.78,4.08,4.08,0,0,0,4,4l.45,0a4.05,4.05,0,0,0,4-4Q200.77,82.51,200.29,67.37Z" fill="#666db3"/><path d="M416.36,51.75c-.06-2.25-.11-4.51-.16-6.76s.29-5.66-1.4-7.3a2.2,2.2,0,0,0-3,0c-1,.85-1.18,2.16-1.38,3.4s-.34,2.43-.47,3.66c-.25,2.33-.49,4.67-.74,7-.47,4.49-.71,9-1,13.51-.48,8.79-.94,17.57-1.33,26.36a4.91,4.91,0,0,0,.1,2.28,4.26,4.26,0,0,0,8.35-1.13c.36-9.17.62-18.34.87-27.51C416.33,60.76,416.46,56.25,416.36,51.75Z" fill="#666db3"/><path d="M429.11,66.4c0-4.89-.15-9.79-.33-14.69-.1-2.48-.2-5-.22-7.44s.27-5.18-.22-7.65a2.62,2.62,0,0,0-2.51-1.92,2.73,2.73,0,0,0-2.51,1.92c-1,2.3-1,5.19-1.3,7.65s-.53,5-.71,7.44c-.35,4.81-.38,9.64-.44,14.46s-.2,9.61-.48,14.41c-.15,2.47-.36,4.94-.65,7.4,0,.3-.07.61-.11.92-.07.53-.08.61,0,.25-.09.61-.18,1.22-.28,1.83-.31,2-.69,3.55.3,5.41,1.27,2.37,4.36,2.4,6.19.8,1.35-1.18,1.53-2.76,1.78-4.41.23-1.44.42-2.89.6-4.34q.45-3.69.67-7.39C429.17,76.18,429.15,71.28,429.11,66.4Z" fill="#666db3"/><path d="M467.41,63.57a13.36,13.36,0,0,0-.23-1.65,11.2,11.2,0,0,0-7-8,10.56,10.56,0,0,0-9.71,1.5,14.16,14.16,0,0,0-5.56,8.15,14.86,14.86,0,0,0,1,9.68,12.27,12.27,0,0,0,15,6.14,11.08,11.08,0,0,0,6.92-7.15A15.75,15.75,0,0,0,467.41,63.57Z" fill="#666db3"/></svg>