<svg xmlns="http://www.w3.org/2000/svg" viewBox="0 0 811.78 191.8" width="100px">
  <defs>
    <style>
      .cls-1 {
        fill: #4d5499;
      }
    </style>
  </defs>
  <g id="Layer_2" data-name="Layer 2">
    <g id="Layer_1-2" data-name="Layer 1">
      <path class="cls-1" shape-rendering="geometricPrecision"
        d="M81,64.2v79.2c0,30.8-15.4,48.4-41,48.4-21.2,0-39-12.4-40-35H8.4c1.4,17,14.2,27.4,31.6,27.4,32.2,0,33-32.4,33-40.8V131.8A39.11,39.11,0,0,1,40.8,148C20.8,148,.6,133.4.6,105c0-23.6,15.6-42.6,41.2-42.6,13.4,0,24.2,6,31.2,16V64.2ZM9,105.4c0,19.6,12.4,35,31.6,35,20.2,0,32.8-15.8,32.8-35.8C73.4,85.6,61,70,41,70,20.8,70,9,86.6,9,105.4Z" />
      <path class="cls-1" shape-rendering="geometricPrecision"
        d="M109.8,64.2h8V74.8c3-7,9.2-12.4,18-12.4a19,19,0,0,1,8.6,2l-4,7.2c-.8-.6-2.4-1.6-6-1.6-16.4,0-16.6,21.8-16.6,32v43.8h-8Z" />
      <path class="cls-1" shape-rendering="geometricPrecision"
        d="M165,106c0,20.8,15.2,34.4,32.4,34.4,13.2,0,23.2-7.8,28.4-18.6l6.8,4C227.8,135,217,148,196.8,148c-25.4,0-40.2-18.8-40.2-42.6,0-28.4,19.6-43,39.6-43,22,0,38.59,17.6,38.59,43.6Zm61.4-7.6c-2-16.2-14-28.4-30.2-28.4-16.6,0-28.4,12.6-30.6,28.4Z" />
      <path class="cls-1" shape-rendering="geometricPrecision"
        d="M324.79,64.2h8v81.6h-8V131.2c-8.2,12.6-21.2,16.8-31.8,16.8-21.4,0-39.8-16.2-39.8-43,0-25.2,16-42.6,39.8-42.6,12.8,0,24,5,31.8,16Zm-63.2,40.2c0,18.4,11.4,36,32,36,20.4,0,31.6-17.2,31.6-36,0-24.2-17.8-34.4-31.8-34.4C277.19,70,261.59,82.2,261.59,104.4Z" />
      <path class="cls-1" d="M370.19,71.8v74h-8v-74h-9V64.2h9V35h8V64.2h14.2v7.6Z" />
      <path class="cls-1" shape-rendering="geometricPrecision"
        d="M399.59,62.8H414v9c1.4-2.2,7.6-11,18.8-11a30.41,30.41,0,0,1,12.8,3.4l-6.8,13a14.82,14.82,0,0,0-8.4-2.8c-5.8,0-9.4,2.4-11.6,5.2-2.4,3.2-4.8,8.8-4.8,22.4v43.8h-14.4Z" />
      <path class="cls-1" shape-rendering="geometricPrecision"
        d="M527.59,124.6a49.66,49.66,0,0,1-10.2,13.4c-7.6,6.8-17,10.2-27.6,10.2-20,0-41-12.6-41-43.4,0-24.8,15.2-44,40.2-44,16.2,0,26.4,8,31.4,15.2,5.2,7.4,8.2,20.2,7.8,31.2h-64.6c.2,17.2,12,28.2,26.4,28.2a25.23,25.23,0,0,0,17-6,33.07,33.07,0,0,0,8.6-11.4Zm-14.2-29.4c-2.4-13-12.2-21.6-24.4-21.6s-22.2,9.2-24.4,21.6Z" />
      <path class="cls-1" shape-rendering="geometricPrecision"
        d="M613.79,62.8h14.4v83h-14.4V134.2a35,35,0,0,1-28.4,14c-21,0-40.4-14.8-40.4-44,0-28.6,19.2-43.4,40.4-43.4,16,0,24.6,8.8,28.4,13.8Zm-54,41.4c0,17.8,10,31.2,27.2,31.2,17.6,0,27.6-14.6,27.6-31,0-21.4-14.8-30.8-27.6-30.8C572.79,73.6,559.79,84,559.79,104.2Z" />
      <path class="cls-1" shape-rendering="geometricPrecision"
        d="M719,0h14.4V145.8H719V134.2a35,35,0,0,1-28.4,14c-21,0-40.4-14.8-40.4-44,0-28.6,19.2-43.4,40.4-43.4,16,0,24.6,8.8,28.4,13.8ZM665,104.2c0,17.8,10,31.2,27.2,31.2,17.6,0,27.6-14.6,27.6-31,0-21.4-14.8-30.8-27.6-30.8C678,73.6,665,84,665,104.2Z" />
      <path class="cls-1" shape-rendering="geometricPrecision"
        d="M794.78,82c-2-4.8-6.2-8.4-11.6-8.4-5.2,0-10,3-10,9.4,0,6,4,7.8,13.4,11.8,12,5,17.6,8.8,20.8,12.8,3.6,4.4,4.4,8.8,4.4,13.4,0,17.4-12.6,27.2-28.6,27.2-3.4,0-22-.4-29-21.2l12.4-5.2c1.6,4.4,6.4,13.6,16.8,13.6,9.4,0,13.6-7,13.6-13.2,0-7.8-5.6-10.4-13.4-13.8-10-4.4-16.4-7.6-20.2-12.2-3.2-4-3.8-8-3.8-12.2,0-14.6,10.2-23.2,24.2-23.2,4.4,0,16.2.8,22.8,15Z" />
    </g>
  </g>
</svg>