<svg id="hero-illustration" xmlns="http://www.w3.org/2000/svg" viewBox="0 0 586.75 358.39" length="auto">
  <defs>
    <style>
      .cls-1 {
        fill: #ede5ed;
      }

      .cls-2 {
        fill: #666db3;
      }

      .cls-3 {
        fill: #f5e5d6;
      }

      .cls-4 {
        fill: #888ec5;
      }

      .cls-5 {
        fill: #e7ceb4;
      }

      .cls-6 {
        fill: #ffc9a7;
      }

      .cls-7 {
        fill: #73a8b6;
      }

      .cls-8 {
        fill: #2f3336;
      }

      .cls-9 {
        fill: #fa8;
      }

      .cls-10 {
        fill: #1b2416;
      }

      .cls-11 {
        fill: #ffa088;
      }

      .cls-12 {
        fill: #488094;
      }

      .cls-13 {
        fill: #ffb093;
      }

      .cls-14 {
        fill: #de938c;
      }

      .cls-15 {
        fill: #ff8c70;
      }

      .cls-16 {
        fill: #dc5b4f;
      }
    </style>
  </defs>
  <path class="cls-1"
    d="M30.72,219.43c-14.57.85-35.91,8.74-29.57,26.78C7,262.84,25.91,273.9,40.57,281.31c45.51,23,106,21.4,155.88,19,46.18-2.25,92.39.22,138.38-3.72,34.46-2.94,69.25-8.76,103.64-9.09,36.25-.35,72.08-3.86,108.1-6.34,13.65-.94,54.71-5.47,34.84-28-17.6-20-67-15.89-90.21-16.05-38.08-.28-76.21-3-114.25-4.51-31.21-1.2-62.46.85-93.66.84-60.16,0-119.45-8.32-179.44-9.19C81,223.84,57.52,221,34.76,221.94v-2.56C33.5,219.33,32.14,219.35,30.72,219.43Z" />
  <path class="cls-2"
    d="M38.64,233.18c-15,0-23.9,3.29-23.9,7.73s46.51,35.32,64.45,38.77,22.63-7.08,22.63-7.08-20.63-12.77-23.44-14.44S38.64,233.18,38.64,233.18Z" />
  <path class="cls-3"
    d="M27.12,164.87c-2.82,7.77-4.55,70.68-3,73.46,4,7.16,60.81,37.6,60.81,37.6s31-51.63,27.2-54.41-7.51-34.42-14.07-33.31S27.12,164.87,27.12,164.87Z" />
  <path class="cls-2"
    d="M569.41,189.54s-61.66-36.83-72.35-40.78-459.49,3-474.21,8.38c-3.8,1.39-10.09,6.24-5.76,8.37,10.73,5.29,64.77,29.56,64.77,29.56S96.55,218,107.24,217.21s346-4,350-5.53S569.41,189.54,569.41,189.54Z" />
  <path class="cls-4"
    d="M569.41,189.54c-8-1.58-479.88,6.52-487.55,5.53s-8,80.66-2.67,84.61,481-3.95,487.64-6.32S569.41,189.54,569.41,189.54Z" />
  <path class="cls-5"
    d="M59.64,191.38a3.74,3.74,0,0,0-2.52-1.67c-1.3-.39-2.61-.74-3.9-1.14-2.47-.76-4.92-1.56-7.34-2.45s-4.67-1.79-7-2.72c-1.24-.49-2.45-1-3.69-1.51a9,9,0,0,0-1.67-.61,5.32,5.32,0,0,0-1.53.16.13.13,0,0,0-.09.21,5.57,5.57,0,0,0,.77,1.31,9,9,0,0,0,1.63,1c1.15.65,2.35,1.23,3.55,1.81,2.4,1.15,4.85,2.17,7.34,3.1s4.85,1.76,7.31,2.51c2.06.62,5,2.09,7,.82A.59.59,0,0,0,59.64,191.38Z" />
  <path class="cls-5"
    d="M53.88,199.31c-.55-1.15-2.44-1.46-3.54-1.81-1.42-.44-2.83-.95-4.22-1.48-2.73-1-5.39-2.57-8.31-2.89-.11,0-.25.11-.16.23A10.21,10.21,0,0,0,41,196a41,41,0,0,0,4.2,1.95c1.42.59,2.87,1.11,4.33,1.58,1.16.39,3.06,1.2,4.18.42A.51.51,0,0,0,53.88,199.31Z" />
  <path class="cls-5"
    d="M68.21,212.24c-1.14-1.59-3.81-1.61-5.56-2-2.24-.51-4.46-1.12-6.64-1.84s-4.39-1.65-6.54-2.61c-1-.44-1.94-.92-2.92-1.36a7.25,7.25,0,0,0-2.83-.71c-.13,0-.19.16-.13.26a6,6,0,0,0,2.09,2.15,33.94,33.94,0,0,0,3.2,1.84,56,56,0,0,0,6.32,2.73,59.07,59.07,0,0,0,6.48,2c1.79.43,4.75,1.52,6.39.21A.48.48,0,0,0,68.21,212.24Z" />
  <path class="cls-5"
    d="M62.1,217.3c-.88-.37-1.77-.72-2.65-1.11a10.19,10.19,0,0,0-2.79-.63,25.16,25.16,0,0,0-2.74-.27,7.43,7.43,0,0,0-1.42.07c-.27,0-.55.26-.82.24s-.17.22,0,.26.47.37.71.5a8.16,8.16,0,0,0,1.34.54,22.94,22.94,0,0,0,2.69.66,9.8,9.8,0,0,0,2.85.29c.93-.1,1.87-.1,2.81-.16A.2.2,0,0,0,62.1,217.3Z" />
  <path class="cls-5"
    d="M58,226.73c-.19-.34-.17-.75-.41-1.07a3.37,3.37,0,0,0-1.48-.92,17.32,17.32,0,0,0-3.62-.85c-2.49-.39-5-.7-7.42-1.33a51.91,51.91,0,0,1-7-2.38c-1.15-.48-2.27-1-3.4-1.56-.83-.38-1.79-.94-2.7-.6a.13.13,0,0,0-.09.15c.14,1.84,3.3,3.13,4.69,3.87a37.34,37.34,0,0,0,6.91,2.88,48.31,48.31,0,0,0,7,1.55,36.3,36.3,0,0,1,3.75.66c.64.15,1.27.4,1.91.5a5.49,5.49,0,0,0,1.11-.22C57.7,227.55,58.24,227.15,58,226.73Z" />
  <path class="cls-5" d="M62.21,237.33Z" />
  <path class="cls-5"
    d="M62.67,234.78a20.72,20.72,0,0,0-4.28-.88c-1.38-.23-2.77-.48-4.16-.68s-2.79-.42-4.19-.6c-.72-.09-1.43-.17-2.15-.22a3.73,3.73,0,0,0-.82-.05.11.11,0,0,0-.07,0v0c-.74-.89-1.67.43-1.1,1.25a3.27,3.27,0,0,0,2,1c1,.25,1.92.45,2.89.65,1.88.37,3.77.73,5.67,1.06a46.39,46.39,0,0,0,4.88.8s0,0,0,.05a1.48,1.48,0,0,0,.64.25,1.06,1.06,0,0,0,.31,0l-.13,0,.21,0a1.09,1.09,0,0,0,1-.78,1.46,1.46,0,0,0,.08-.62A1.25,1.25,0,0,0,62.67,234.78Z" />
  <path class="cls-5"
    d="M38.61,240.9c-.06-.08-.17-.15-.21-.23l.06.24a1,1,0,0,0-.61-.78l.26.26a2.35,2.35,0,0,0-1.18-.77,8,8,0,0,0-1-.34c-.35-.1-.72-.16-1.08-.23a3,3,0,0,0-1.11-.08h-.12a.58.58,0,0,0-.5.28.15.15,0,0,0-.07.27v0a.6.6,0,0,0,.29.5c-.14-.1.18.2.22.23l.28.13c.22.1.44.21.67.3.41.17.81.34,1.23.47a8.78,8.78,0,0,0,1.23.29,3.58,3.58,0,0,0,.73,0,1.11,1.11,0,0,0,.4-.06.82.82,0,0,0,.2-.12,1.66,1.66,0,0,0,.22,0A.26.26,0,0,0,38.61,240.9Z" />
  <path class="cls-5"
    d="M62.8,247.1a3.52,3.52,0,0,0-1.55-1.36,15.89,15.89,0,0,0-2.33-.77,15.88,15.88,0,0,0-2.24-.54,8.32,8.32,0,0,0-1.12-.1,3.21,3.21,0,0,0-.54,0,2.12,2.12,0,0,1-.62.11.22.22,0,0,0-.1.41,3.9,3.9,0,0,1,.46.45,3.47,3.47,0,0,0,.38.29,6.92,6.92,0,0,0,.94.57,20.87,20.87,0,0,0,2.27.88,14.9,14.9,0,0,0,2.16.65,3.58,3.58,0,0,0,2.19-.22A.29.29,0,0,0,62.8,247.1Z" />
  <path class="cls-2"
    d="M154.52,231.75c-.13-4.83-.16-9.68-.58-14.5-.23-2.61-.49-5.23-.78-7.83A63.19,63.19,0,0,0,152,201a2.33,2.33,0,0,0-1.63-1.63,2.17,2.17,0,0,0-1.62.15l-.17.09a2.33,2.33,0,0,0-1.16,2c-.12,2.36.11,4.74.21,7.1s.16,4.75.2,7.12c.08,4.68.24,9.35.24,14,0,9.42-.64,18.9-1.38,28.28-.22,2.69-.46,5.38-.74,8.06q-.19,1.89-.42,3.78a12.88,12.88,0,0,0-.13,4.71l0,0a3.39,3.39,0,0,0,1.23,1.85,3.49,3.49,0,0,0,5.15-1c1.21-2.25,1.12-5.39,1.39-7.91s.46-4.74.66-7.11c.4-4.82.65-9.64.79-14.48S154.65,236.52,154.52,231.75Z" />
  <path class="cls-2"
    d="M142.44,247.64c-.11-9.24-.17-18.5-.66-27.72-.13-2.57-.25-5.15-.43-7.71-.09-1.29-.19-2.57-.29-3.86a19.61,19.61,0,0,0-.48-4.27c-.7-2.25-4.19-2.48-4.78,0-.54,2.25-.24,4.85-.27,7.16s0,4.5,0,6.75c0,4.58,0,9.16.1,13.74q.19,13.86.13,27.72c0,2.57,0,5.15-.05,7.72l0,3.86c0,1.62-.23,3.29.66,4.73l0,0a3.13,3.13,0,0,0,.78.92,3.17,3.17,0,0,0,4.65-.88c.81-1.25.7-2.59.71-4l0-3.62v-6.75Q142.52,254.51,142.44,247.64Z" />
  <path class="cls-2"
    d="M163.66,215.25c-.22-2.79-.44-5.57-.78-8.34-.19-1.48-.34-3-.58-4.46s-.5-2.94-1.8-3.65a1.74,1.74,0,0,0-2,.27c-1,.79-1,2.15-1,3.32s0,2.55,0,3.81c.05,2.46.15,4.92.22,7.38q.24,7.38.24,14.78c0,9.86-.4,19.72-.93,29.56q-.21,4.05-.5,8.1c-.11,1.43-.22,2.86-.34,4.28s-.56,3.31,0,4.75c.83,2.09,3.09,3.36,5.21,2.11a3.34,3.34,0,0,0,1.24-1.29l0,0c.83-1.32.8-2.88.92-4.4.11-1.35.21-2.69.31-4q.26-3.69.46-7.38c.26-5,.41-10,.41-15C164.75,235.11,164.42,225.16,163.66,215.25Z" />
  <path class="cls-2"
    d="M485.73,228.3c-.14-4.83-.17-9.68-.58-14.5q-.34-3.93-.78-7.84a64.71,64.71,0,0,0-1.2-8.44,2.35,2.35,0,0,0-1.63-1.63,2.17,2.17,0,0,0-1.62.15l-.18.09a2.33,2.33,0,0,0-1.16,2c-.12,2.37.12,4.75.21,7.11s.16,4.75.2,7.12c.08,4.68.24,9.35.24,14,0,9.42-.64,18.9-1.38,28.28-.21,2.69-.46,5.37-.74,8.06-.13,1.26-.27,2.52-.41,3.78a12.88,12.88,0,0,0-.14,4.71l0,0a3.46,3.46,0,0,0,1.24,1.85,3.5,3.5,0,0,0,5.15-1c1.21-2.25,1.12-5.39,1.38-7.91s.47-4.74.66-7.11q.6-7.23.79-14.48C485.93,237.8,485.86,233.07,485.73,228.3Z" />
  <path class="cls-2"
    d="M473.64,244.19c-.1-9.24-.17-18.5-.66-27.72-.13-2.58-.25-5.15-.42-7.72-.09-1.28-.2-2.57-.3-3.85a19.76,19.76,0,0,0-.47-4.28c-.71-2.24-4.2-2.47-4.79,0-.53,2.26-.23,4.86-.26,7.17s0,4.5,0,6.75q0,6.87.1,13.74Q467,242.14,467,256c0,2.57,0,5.14-.06,7.72l0,3.85c0,1.63-.23,3.29.66,4.73l0,0a3.13,3.13,0,0,0,.78.92,3.18,3.18,0,0,0,4.65-.89c.8-1.24.7-2.59.71-4,0-1.21,0-2.41,0-3.62q0-3.37,0-6.75Q473.72,251.06,473.64,244.19Z" />
  <path class="cls-2"
    d="M494.86,211.79c-.21-2.78-.43-5.56-.78-8.33-.18-1.49-.34-3-.58-4.47s-.5-2.93-1.79-3.64a1.76,1.76,0,0,0-2,.27c-1,.79-1,2.15-1,3.32s0,2.54.06,3.81c.05,2.46.14,4.92.22,7.38q.22,7.38.23,14.77c0,9.87-.4,19.72-.92,29.57q-.21,4.05-.51,8.1c-.1,1.43-.22,2.85-.33,4.28s-.56,3.31,0,4.74c.83,2.09,3.08,3.36,5.2,2.12a3.39,3.39,0,0,0,1.25-1.3l0,0c.83-1.33.8-2.89.93-4.4.1-1.35.21-2.7.3-4q.27-3.69.46-7.38.4-7.51.41-15C496,231.66,495.62,221.71,494.86,211.79Z" />
  <path class="cls-2"
    d="M65.71,146.41c-12.9,0-20.55,2.79-20.55,6.54s40,29.88,55.44,32.8,19.47-6,19.47-6S102.32,169,99.9,167.55,65.71,146.41,65.71,146.41Z" />
  <path class="cls-3"
    d="M55.8,88.63c-2.42,6.58-3.91,59.79-2.57,62.14,3.47,6.06,52.32,31.81,52.32,31.81s26.62-43.68,23.39-46-6.45-29.11-12.1-28.18S55.8,88.63,55.8,88.63Z" />
  <path class="cls-2"
    d="M522.32,109.5S469.27,78.35,460.08,75,64.8,77.53,52.13,82.09c-3.26,1.18-8.67,5.28-5,7.09,9.23,4.47,55.72,25,55.72,25s12.64,19.4,21.83,18.73,297.62-3.35,301.07-4.68S522.32,109.5,522.32,109.5Z" />
  <path class="cls-4"
    d="M522.32,109.5c-6.89-1.34-412.83,5.51-419.42,4.68s-6.9,68.23-2.3,71.57,413.76-3.34,419.5-5.35S522.32,109.5,522.32,109.5Z" />
  <path class="cls-5"
    d="M83.79,111.06a3.29,3.29,0,0,0-2.17-1.42c-1.12-.33-2.25-.63-3.36-1C76.14,108,74,107.36,72,106.6s-4-1.51-6-2.29c-1.06-.42-2.11-.87-3.17-1.28a7.63,7.63,0,0,0-1.43-.51,4.62,4.62,0,0,0-1.33.13.11.11,0,0,0-.07.18,4.4,4.4,0,0,0,.66,1.1,7.32,7.32,0,0,0,1.4.84c1,.55,2,1,3.06,1.53,2.06,1,4.17,1.84,6.31,2.63s4.17,1.48,6.29,2.11c1.77.53,4.31,1.77,6,.7A.5.5,0,0,0,83.79,111.06Z" />
  <path class="cls-5"
    d="M78.83,117.76c-.48-1-2.1-1.23-3-1.52-1.22-.38-2.43-.81-3.63-1.26-2.35-.87-4.63-2.18-7.14-2.45-.1,0-.23.1-.14.2a8.69,8.69,0,0,0,2.9,2.26,35.67,35.67,0,0,0,3.61,1.65c1.22.49,2.47.93,3.72,1.34,1,.32,2.63,1,3.6.35A.43.43,0,0,0,78.83,117.76Z" />
  <path class="cls-5"
    d="M91.16,128.7c-1-1.35-3.28-1.36-4.79-1.69-1.92-.43-3.83-.94-5.71-1.56a59,59,0,0,1-5.62-2.2c-.85-.37-1.67-.78-2.52-1.15a6.36,6.36,0,0,0-2.43-.61c-.12,0-.16.14-.11.22a5,5,0,0,0,1.8,1.82,28.6,28.6,0,0,0,2.75,1.56A47.47,47.47,0,0,0,80,127.4a48.76,48.76,0,0,0,5.56,1.68c1.55.37,4.1,1.29,5.51.18A.41.41,0,0,0,91.16,128.7Z" />
  <path class="cls-5"
    d="M85.9,133c-.76-.31-1.52-.61-2.28-.94a8.88,8.88,0,0,0-2.4-.53,20.91,20.91,0,0,0-2.36-.22,6.2,6.2,0,0,0-1.22.05c-.23,0-.47.22-.7.2s-.15.19,0,.22.41.31.61.43a7,7,0,0,0,1.15.45,18.65,18.65,0,0,0,2.32.56,8.8,8.8,0,0,0,2.45.25c.8-.08,1.61-.09,2.41-.13A.17.17,0,0,0,85.9,133Z" />
  <path class="cls-5"
    d="M82.37,141c-.16-.29-.15-.64-.35-.91a3,3,0,0,0-1.28-.77,15,15,0,0,0-3.11-.72c-2.14-.33-4.28-.59-6.38-1.13a45.3,45.3,0,0,1-6-2c-1-.41-2-.88-2.93-1.32a3.23,3.23,0,0,0-2.32-.51.14.14,0,0,0-.08.13c.12,1.55,2.85,2.65,4,3.27a32.69,32.69,0,0,0,5.94,2.44A43.32,43.32,0,0,0,76,140.74a32.06,32.06,0,0,1,3.23.56c.54.13,1.09.34,1.64.42a4.34,4.34,0,0,0,1-.19C82.11,141.65,82.58,141.32,82.37,141Z" />
  <path class="cls-5" d="M86,149.92Z" />
  <path class="cls-5"
    d="M86.39,147.77a18.35,18.35,0,0,0-3.68-.75c-1.19-.19-2.38-.4-3.58-.57s-2.4-.36-3.6-.5c-.62-.08-1.24-.15-1.86-.2a4.05,4.05,0,0,0-.7,0h-.06v0c-.64-.76-1.44.36-1,1.06a2.9,2.9,0,0,0,1.73.82c.82.21,1.65.38,2.49.54,1.62.32,3.24.62,4.87.9a41.51,41.51,0,0,0,4.21.69l0,0a1.33,1.33,0,0,0,.55.22,1.23,1.23,0,0,0,.27,0H86l.17,0a1,1,0,0,0,.89-.66,1.33,1.33,0,0,0,.06-.52A1.05,1.05,0,0,0,86.39,147.77Z" />
  <path class="cls-5"
    d="M65.69,153c0-.07-.15-.13-.18-.2l0,.2a.82.82,0,0,0-.52-.66c.07.08.15.15.22.22a2.09,2.09,0,0,0-1-.65,7.4,7.4,0,0,0-.91-.29c-.3-.08-.62-.13-.93-.19a2.78,2.78,0,0,0-.95-.07h-.1a.52.52,0,0,0-.43.24.12.12,0,0,0-.07.22v0a.5.5,0,0,0,.25.43c-.13-.09.15.16.19.19l.24.11.57.25a10.45,10.45,0,0,0,1.06.4,7.77,7.77,0,0,0,1.06.25,4.46,4.46,0,0,0,.63,0,1.33,1.33,0,0,0,.34,0,.71.71,0,0,0,.17-.11.4.4,0,0,0,.19,0A.21.21,0,0,0,65.69,153Z" />
  <path class="cls-5"
    d="M86.5,158.19A3,3,0,0,0,85.17,157a14.27,14.27,0,0,0-2-.65,14.11,14.11,0,0,0-1.92-.46,7.93,7.93,0,0,0-1-.08,2.33,2.33,0,0,0-.46,0,1.9,1.9,0,0,1-.53.09.18.18,0,0,0-.1.34,2.47,2.47,0,0,1,.4.39,2.52,2.52,0,0,0,.33.24,5.56,5.56,0,0,0,.81.48,15.32,15.32,0,0,0,2,.74,12.07,12.07,0,0,0,1.86.56,3.19,3.19,0,0,0,1.88-.19A.24.24,0,0,0,86.5,158.19Z" />
  <path class="cls-2"
    d="M427.43,121.5c0-1.41,0-3-1.19-4a2.32,2.32,0,0,0-2.74-.35c-1.41,1-1.58,2.23-1.75,3.87-.11,1.12-.17,2.24-.22,3.37-.1,2.41-.21,4.81-.3,7.22-.19,4.89-.32,9.78-.47,14.67l-.45,14.43c-.08,2.41-.15,4.81-.23,7.22,0,1.2-.08,2.4-.11,3.61-.05,1.51-.28,3,.56,4.31a2.86,2.86,0,0,0,4.89,0c.88-1.25.7-2.85.74-4.31l.09-3.37.21-7.22.42-14.43c.14-4.81.3-9.62.41-14.43.06-2.41.09-4.81.13-7.22C427.44,123.75,427.46,122.63,427.43,121.5Z" />
  <path class="cls-2"
    d="M437.05,146.88c-.05-2.32-.08-4.65-.19-7-.06-1.13-.18-2.25-.32-3.37a8.56,8.56,0,0,0-.47-2,3.83,3.83,0,0,0-1-1.39,1.39,1.39,0,0,0-2,0,3.8,3.8,0,0,0-1.05,1.39,9.76,9.76,0,0,0-.5,2c-.14,1.12-.3,2.24-.37,3.37-.16,2.32-.23,4.65-.33,7-.19,4.57-.36,9.13-.38,13.7a3.26,3.26,0,0,0,2.24,3.66l.23.08c2.12.75,4.22-1.2,4.26-3.25C437.27,156.34,437.16,151.61,437.05,146.88Z" />
  <path class="cls-2"
    d="M302.12,145.87c-.21-4.16-.95-8.41-2.77-11.08-3.51-5.15-8.23-4.5-13.55-5.19l-.32,0a15.57,15.57,0,0,0-11.77,3.94c-5.51,4.68-7.52,12.9-5.65,19.74a21.53,21.53,0,0,0,14.51,14.45,16.69,16.69,0,0,0,12.18-.62c4.91-2.41,6.77-7.33,7.21-12.65A64.58,64.58,0,0,0,302.12,145.87Z" />
  <path class="cls-2"
    d="M156.11,150.42c-.06-5-.14-10-.28-14.94-.07-2.5-.22-5-.37-7.47-.15-2.33.13-5.57-1.19-7.6a1.69,1.69,0,0,0-2.89,0c-1.19,2.14-.75,5.23-.78,7.6s-.09,4.82-.09,7.23c0,5.06,0,10.12-.17,15.18s-.37,10-.57,14.94-.58,10.13-.58,15.18a3.19,3.19,0,0,0,6.37,0c.49-4.93.49-10,.59-14.94S156.18,155.48,156.11,150.42Z" />
  <path class="cls-2"
    d="M145.64,133.94c-.09-1-.83-3.43-2.4-2.85s-2,1.84-2.34,3.39-.57,3.25-.77,4.89q-.54,4.62-.87,9.24c-.22,3.08-.27,6.18-.29,9.26,0,1.59,0,3.17,0,4.75,0,1.81,0,3.48.88,5.1s3.64,1.79,4.46,0a6.16,6.16,0,0,0,.72-2.72c0-.79-.06-1.59-.08-2.38,0-1.58-.06-3.16-.07-4.75,0-3.24.08-6.49.16-9.73s.22-6.32.44-9.47A32.5,32.5,0,0,0,145.64,133.94Z" />
  <path class="cls-2"
    d="M107,65.91c-10.55,0-16.8,2.53-16.8,6s32.7,27.16,45.31,29.82,15.91-5.46,15.91-5.46-14.5-9.81-16.48-11.1S107,65.91,107,65.91Z" />
  <path class="cls-3"
    d="M98.87,13.38c-2,6-3.2,54.36-2.1,56.49,2.84,5.51,42.76,28.92,42.76,28.92S161.28,59.08,158.65,57s-5.28-26.48-9.89-25.62S98.87,13.38,98.87,13.38Z" />
  <path class="cls-2"
    d="M480.16,32.35S436.81,4,429.29,1,106.22,3.29,95.87,7.43c-2.67,1.07-7.09,4.8-4.05,6.44,7.54,4.07,45.54,22.74,45.54,22.74s10.33,17.63,17.84,17,243.25-3,246.07-4.25S480.16,32.35,480.16,32.35Z" />
  <path class="cls-4"
    d="M480.16,32.35c-5.63-1.22-337.41,5-342.8,4.26s-5.64,62-1.88,65.07,338.17-3,342.87-4.87S480.16,32.35,480.16,32.35Z" />
  <path class="cls-5"
    d="M121.74,33.77A2.66,2.66,0,0,0,120,32.48c-.92-.3-1.84-.57-2.75-.88-1.73-.58-3.45-1.2-5.16-1.88s-3.28-1.37-4.92-2.09c-.86-.38-1.72-.79-2.59-1.16a5.61,5.61,0,0,0-1.17-.47,3.62,3.62,0,0,0-1.08.12c-.07,0-.09.1-.06.16a4.24,4.24,0,0,0,.54,1,6.65,6.65,0,0,0,1.14.76c.82.51,1.66.95,2.5,1.39,1.69.89,3.41,1.67,5.16,2.39s3.41,1.35,5.14,1.93c1.45.48,3.53,1.6,4.94.63A.49.49,0,0,0,121.74,33.77Z" />
  <path class="cls-5"
    d="M117.69,39.86c-.39-.88-1.72-1.12-2.49-1.39-1-.34-2-.73-3-1.13-1.92-.8-3.79-2-5.84-2.23-.08,0-.18.09-.11.18a7.17,7.17,0,0,0,2.37,2.05,27.24,27.24,0,0,0,2.95,1.5c1,.45,2,.85,3,1.22.82.29,2.15.92,2.94.32A.43.43,0,0,0,117.69,39.86Z" />
  <path class="cls-5"
    d="M127.76,49.81c-.8-1.23-2.67-1.24-3.91-1.54a48,48,0,0,1-4.66-1.41,46.75,46.75,0,0,1-4.6-2c-.69-.34-1.37-.71-2.06-1.05a4.91,4.91,0,0,0-2-.55c-.09,0-.13.13-.09.21a4.5,4.5,0,0,0,1.47,1.65,22.88,22.88,0,0,0,2.25,1.41,36.91,36.91,0,0,0,4.45,2.11,36.79,36.79,0,0,0,4.55,1.52c1.26.33,3.34,1.17,4.5.17A.4.4,0,0,0,127.76,49.81Z" />
  <path class="cls-5"
    d="M123.47,53.7c-.62-.28-1.25-.56-1.86-.85a6.7,6.7,0,0,0-2-.49,15.58,15.58,0,0,0-1.93-.2,4.2,4.2,0,0,0-1,.05c-.18,0-.38.2-.57.18s-.12.17,0,.2.33.28.5.39a5.58,5.58,0,0,0,.94.41,16,16,0,0,0,1.89.51,6.18,6.18,0,0,0,2,.22c.66-.07,1.32-.07,2-.12A.16.16,0,0,0,123.47,53.7Z" />
  <path class="cls-5"
    d="M120.58,61c-.13-.26-.12-.58-.29-.82a2.4,2.4,0,0,0-1-.71,11.29,11.29,0,0,0-2.54-.65,49.13,49.13,0,0,1-5.22-1,34.66,34.66,0,0,1-4.89-1.82c-.81-.37-1.6-.8-2.39-1.2-.58-.3-1.26-.73-1.9-.47a.12.12,0,0,0-.07.12c.1,1.41,2.33,2.41,3.3,3a26.22,26.22,0,0,0,4.86,2.21,31.56,31.56,0,0,0,4.95,1.19,26.17,26.17,0,0,1,2.64.51,13.45,13.45,0,0,0,1.34.38,2.77,2.77,0,0,0,.78-.17A.38.38,0,0,0,120.58,61Z" />
  <path class="cls-5" d="M123.55,69.1Z" />
  <path class="cls-5"
    d="M123.86,67.14a14.5,14.5,0,0,0-3-.68c-1-.17-2-.36-2.93-.52s-2-.32-2.94-.45c-.51-.07-1-.14-1.52-.18a2.73,2.73,0,0,0-.57,0h-.05v0c-.52-.68-1.18.34-.78,1a2.25,2.25,0,0,0,1.42.74c.67.2,1.35.35,2,.5,1.33.29,2.65.56,4,.81a28,28,0,0,0,3.43.63s0,0,0,0a1.08,1.08,0,0,0,.45.2.82.82,0,0,0,.22,0h-.09l.14,0a.78.78,0,0,0,.72-.6,1.08,1.08,0,0,0,0-.47A.94.94,0,0,0,123.86,67.14Z" />
  <path class="cls-5"
    d="M107,71.85c0-.06-.12-.11-.15-.18l0,.19a.71.71,0,0,0-.42-.6l.18.2a1.77,1.77,0,0,0-.83-.6c-.24-.1-.49-.18-.74-.26s-.51-.12-.76-.17a1.87,1.87,0,0,0-.78-.07h-.08a.4.4,0,0,0-.35.22.11.11,0,0,0-.06.2v0a.46.46,0,0,0,.2.39c-.1-.09.13.15.16.17a1.24,1.24,0,0,0,.2.1l.47.23a9.19,9.19,0,0,0,.86.36,4.53,4.53,0,0,0,.86.22,1.83,1.83,0,0,0,.52,0,.7.7,0,0,0,.28,0,.67.67,0,0,0,.14-.09l.15,0A.21.21,0,0,0,107,71.85Z" />
  <path class="cls-5"
    d="M124,76.62a2.62,2.62,0,0,0-1.09-1.05,20.07,20.07,0,0,0-3.21-1,5.39,5.39,0,0,0-.79-.07,1.59,1.59,0,0,0-.38,0,2.14,2.14,0,0,1-.44.08c-.15,0-.19.23-.07.31a2.66,2.66,0,0,1,.32.35c.09.09.18.15.27.23a5.74,5.74,0,0,0,.66.43,11.76,11.76,0,0,0,1.6.67,9.36,9.36,0,0,0,1.52.51,2.42,2.42,0,0,0,1.54-.17A.23.23,0,0,0,124,76.62Z" />
  <path class="cls-4"
    d="M151.39,13.38c-4-.42,16.16,12.31,20.92,13.49s51.73,0,51.73,0c2.73-1-21.54-15.81-25.23-16.7S151.39,13.38,151.39,13.38Z" />
  <path class="cls-2"
    d="M187.33,54.88c-.12-2.41-.32-4.82-.51-7.23s-.23-5-1.15-7.32c-.78-1.92-3.56-2.22-4.23,0-.72,2.37-.57,4.87-.6,7.32s-.08,4.82-.1,7.23c0,4.81-.22,9.63-.27,14.45s-.17,9.63-.35,14.45-.57,9.62-.69,14.44a3.92,3.92,0,0,0,4.44,3.84,3.86,3.86,0,0,0,3.35-3.87l0,0c.4-4.79.41-9.64.51-14.44s.14-9.64.12-14.45S187.59,59.68,187.33,54.88Z" />
  <path class="cls-2"
    d="M200.29,67.37c-.15-5-.4-9.93-.7-14.89-.15-2.56-.31-5.14-.58-7.69a20.19,20.19,0,0,0-.65-4A2.47,2.47,0,0,0,195,39.2c-1.43.75-1.47,2.24-1.65,3.67s-.23,2.55-.28,3.84c-.09,2.4-.19,4.81-.23,7.21-.09,4.81-.13,9.6-.09,14.41q.13,13.77.36,27.54a3.36,3.36,0,0,0-.43,1.78,4.08,4.08,0,0,0,4,4l.45,0a4.05,4.05,0,0,0,4-4Q200.77,82.51,200.29,67.37Z" />
  <path class="cls-2"
    d="M416.36,51.75c-.06-2.25-.11-4.51-.16-6.76s.29-5.66-1.4-7.3a2.2,2.2,0,0,0-3,0c-1,.85-1.18,2.16-1.38,3.4s-.34,2.43-.47,3.66c-.25,2.33-.49,4.67-.74,7-.47,4.49-.71,9-1,13.51-.48,8.79-.94,17.57-1.33,26.36a4.91,4.91,0,0,0,.1,2.28,4.26,4.26,0,0,0,8.35-1.13c.36-9.17.62-18.34.87-27.51C416.33,60.76,416.46,56.25,416.36,51.75Z" />
  <path class="cls-2"
    d="M429.11,66.4c0-4.89-.15-9.79-.33-14.69-.1-2.48-.2-5-.22-7.44s.27-5.18-.22-7.65a2.62,2.62,0,0,0-2.51-1.92,2.73,2.73,0,0,0-2.51,1.92c-1,2.3-1,5.19-1.3,7.65s-.53,5-.71,7.44c-.35,4.81-.38,9.64-.44,14.46s-.2,9.61-.48,14.41c-.15,2.47-.36,4.94-.65,7.4,0,.3-.07.61-.11.92-.07.53-.08.61,0,.25-.09.61-.18,1.22-.28,1.83-.31,2-.69,3.55.3,5.41,1.27,2.37,4.36,2.4,6.19.8,1.35-1.18,1.53-2.76,1.78-4.41.23-1.44.42-2.89.6-4.34q.45-3.69.67-7.39C429.17,76.18,429.15,71.28,429.11,66.4Z" />
  <path class="cls-2"
    d="M467.41,63.57a13.36,13.36,0,0,0-.23-1.65,11.2,11.2,0,0,0-7-8,10.56,10.56,0,0,0-9.71,1.5,14.16,14.16,0,0,0-5.56,8.15,14.86,14.86,0,0,0,1,9.68,12.27,12.27,0,0,0,15,6.14,11.08,11.08,0,0,0,6.92-7.15A15.75,15.75,0,0,0,467.41,63.57Z" />
  <path class="cls-1"
    d="M160,291.31c-5.14,1.23-10.57.14-16,1.11a77.24,77.24,0,0,0-20.3,7.19c-10,5-18,13.77-11.48,25.13,12.07,21,53.51,18.47,73.93,18.69,29.17.32,58.72,3.93,85.74-8.46,8.21-3.76,20.38-12.76,22.53-22.27,3.2-14.09-15.67-20.76-26.41-23.66-23.4-6.3-48.61-3.15-72.25-1.51-11.34.79-22.36-1.66-33.23,2.94A16,16,0,0,1,160,291.31Z" />
  <path class="cls-1"
    d="M317.17,283.81c-19.65,4.39-35.15,12.48-32.43,26.6,3.18,16.48,29.45,17.14,42.19,16.51,33.87-1.68,61.92-6.87,93.61,9,23.25,11.65,63.16,36.43,88.09,12.29,27.22-26.37-40.37-43.06-56.91-45.33-11.21-1.54-24.55-2.4-34.85-8C406.12,289,396,282.68,383.66,280.37,374.55,278.66,342.43,278.17,317.17,283.81Z" />
  <path class="cls-6"
    d="M408.16,192.88a20.88,20.88,0,0,0-4.45,1.52c-1.47.55-2.95,1.09-4.44,1.6l-.15,0a2.87,2.87,0,0,0,.2-.39c.1-.28-.2-.51-.45-.45-1.7.38-3.18,1.35-4.94,1.5a7.9,7.9,0,0,1-5-1.22.89.89,0,0,0-1.35.51,32.19,32.19,0,0,1-2.67-2,58.91,58.91,0,0,1-5.43-5.05l-2.14-2.37c-.72-.8-1.86.37-1.17,1.17s1.45,1.64,2.2,2.43l3.26,3.61a39.42,39.42,0,0,0,5,5.18,6,6,0,0,0,2.68,1.22,7.8,7.8,0,0,0,3.5-.54c2.51-.76,5-1.58,7.47-2.48,1.43-.51,2.85-1,4.27-1.61a16.28,16.28,0,0,0,4-1.89A.42.42,0,0,0,408.16,192.88Z" />
  <path class="cls-6"
    d="M426.4,179.79a9.61,9.61,0,0,1-.86,1.58.77.77,0,0,0-1-.21l0,0a.7.7,0,0,0-1.05-.34q-11.07,7.43-22.55,14.21a.77.77,0,0,0,.59,1.41c5.51-1.13,10.56-3.68,15.33-6.57a66.66,66.66,0,0,0,6.5-4.26,10.11,10.11,0,0,0,4-5.49C427.37,179.66,426.62,179.27,426.4,179.79Z" />
  <path class="cls-7"
    d="M476.26,329.57A8.42,8.42,0,0,0,478,340.81c3.84,3,25.41,1.83,30.15.07S507,329.35,489,329l-7.09-1.2Z" />
  <path class="cls-6"
    d="M466.57,302.66s7.92,25.73,10.57,28.69,9.75,1.8,11.83-2.34-1.71-28.08-3.77-31.33S468.05,300.59,466.57,302.66Z" />
  <path class="cls-8"
    d="M313,259.74s-8.24,37.37,19.53,42.89c43.72,8.7,106.72-37.67,110.19-38.44s21.19,39.35,23.25,41.72,21-5.86,21.89-7-2.5-70.93-20.79-82.21-81,19.61-81,19.61-38.75,15-39.93,15S313,259.74,313,259.74Z" />
  <path class="cls-7"
    d="M456.16,336.64a8.41,8.41,0,0,0,.76,11.34c3.56,3.29,25.15,4.06,30,2.71s-.14-11.58-18.07-13.5l-7-1.81Z" />
  <path class="cls-6" d="M448.87,309s5.63,26.32,8,29.51,9.56,2.64,12-1.3.76-28.12-1-31.54S450.52,307.05,448.87,309Z" />
  <path class="cls-8"
    d="M299.65,252.78s-6.16,38.61,19.83,49.86S425,269,428.48,268.57s17.66,41.05,19.5,43.59,21.43-4,22.42-5.09,3.73-70.88-13.51-83.71-82.42,12.44-82.42,12.44-39.91,11.53-41.09,11.42S299.65,252.78,299.65,252.78Z" />
  <path class="cls-8"
    d="M353.51,44c-31.83-3.37-46.62,23.38-44.39,41.39s-14.51,26-11.21,38.74-24.31,19.47-7.73,42.92,60.75,33.68,83.48,15.26,13.06-39.48,8.59-45.81,3.14-24.94-1.73-33.39,5.3-29.2-.78-37.46S372.61,46,353.51,44Z" />
  <path class="cls-6"
    d="M287.8,176.94s-2.69,16.67-.3,26.38,18.46,5.82,19.42,5,9.42-9,8.24-12.32,4.81-10.54.47-11.82-4.84-2.22-8.22-4.31S287.8,176.94,287.8,176.94Z" />
  <path class="cls-3"
    d="M323.22,127.58c-14.8,2.82-21.77,9.94-27.17,17.17-5,6.7-13,35-13,35s13.47,8.63,25.35,8.51c0,0-2.23,41.05-8.79,64.49,0,0,53.73,9.6,74.82-17,0,0-4.61-34.72-.06-51.93s4-41.48,4.42-42.33-9.45-3.82-14.72-7.86-21.94-3.46-22.83-3.54S323.22,127.58,323.22,127.58Z" />
  <path class="cls-3"
    d="M369.83,136l1.42-5.81s20.89,1.89,35.61,9.75c0,0,14.35-7.73,21.54-8.56l3.42,4.87s-14.22,16.23-15.42,16.42-17.8-.13-20.34-1.54S369.83,136,369.83,136Z" />
  <path class="cls-7"
    d="M367,134.83s-10.08,52.5-11.23,55.36c0,0,30.31,2.74,42.39,10.36,0,0,13.65-12.52,22.51-16.07l13.48-50.71s-19.39,7.75-26.69,13C407.43,146.79,375.69,133.54,367,134.83Z" />
  <path class="cls-6"
    d="M335.55,114.78s-2.17,8.84-4.17,10-8.16,2.79-8.16,2.79,7.77,18,21.07,18.55,19.82-12.45,19.82-12.45a39.09,39.09,0,0,0-5.28-4c-2.81-1.73-3.11-11.55-3.11-11.55Z" />
  <path class="cls-6"
    d="M287.5,203.32s45.12-12.73,60.1-24.84c6.69-5.41,12.59-11.54,16.1-14s4.83-3.22,6.31-4.17,3.77.93,3,2.64c0,0,5,.16,3.48,4.17,0,0,2.76,4.17-.53,5.89,0,0,1.93,1.66-1,4.66a125,125,0,0,1-13.48,11.24c-6.35,4.8-11.2,9.08-25,17.33s-19.34,13.68-32.15,14.3S287.5,203.32,287.5,203.32Z" />
  <path class="cls-6"
    d="M427.37,170c-2.8-4.87-9.4-8.12-11.25-7.78s-1.05,3.19-1.05,3.19-3.24,1.69-2.07,3.66c0,0-1.53,3.55,0,4.64,0,0-1.87,1.48.31,3.21s8.16,5.69,11.66,5.53S429.37,173.47,427.37,170Z" />
  <path class="cls-9"
    d="M356.66,125.4a34.12,34.12,0,0,1-.73-4.46l-5.5-3.72-14.88-2.44s-1.54,6.25-3.21,8.93C339,128.89,349.92,129.29,356.66,125.4Z" />
  <path class="cls-6"
    d="M325.42,86.31s-6.82-1-7.19,6,6,6.89,6,6.89,6.29,27,26.18,26.37,22.36-36.83,22.36-36.83S357,76.33,354.46,68.19C354.46,68.19,340.32,83.42,325.42,86.31Z" />
  <path class="cls-9"
    d="M321.33,89.47s0,0,0-.08l0,0,0,0a.19.19,0,0,0-.1,0h-.09a.11.11,0,0,0-.08,0,.14.14,0,0,0-.08,0l0,0a.16.16,0,0,0,0,.09.06.06,0,0,0,0,.06.11.11,0,0,0,0,.08s0,0,0,0h0l0-.05,0,.06s.05.06.09.07l0,0,0,0h0v0h0a0,0,0,0,0,0,0l0,0,0,0a.16.16,0,0,0,.09,0h.06a.15.15,0,0,0,.09,0,.05.05,0,0,0,.05,0l.06-.06a.28.28,0,0,0,0-.13h0A.2.2,0,0,0,321.33,89.47Z" />
  <path class="cls-9" d="M320.9,89.66h0l0,0h0Z" />
  <path class="cls-9"
    d="M324.75,91.62c-.63-.7-1.9-1.57-2.84-1a.28.28,0,0,0-.06.45,3,3,0,0,0,.69.48l.36.22.19.13h0l.09.08a2.13,2.13,0,0,1,.3.3l.13.15.08.12c.08.11.15.24.22.36s0,.12.07.15l0,.08a1.53,1.53,0,0,0-.91.23c-1.25.81-.9,3.3.75,3.33a1.89,1.89,0,0,0,1.52-.87,2.57,2.57,0,0,0,.45-1.5A4,4,0,0,0,324.75,91.62Z" />
  <path class="cls-9" d="M322.71,93.92h0S322.71,93.93,322.71,93.92Z" />
  <path class="cls-6"
    d="M360.93,160.7q-1.15,2.15-2.22,4.34a.67.67,0,0,0-.21.32,2,2,0,0,1-.08.26c-1.18,2.45-2.3,4.93-3.34,7.45h0l-.07.16c-.29.72.81,1.08,1.2.5s.86-1.34,1.25-2a3.43,3.43,0,0,0,1-1.16c.11-.16.22-.32.32-.49-.06.69,1,1,1.11.26a79.48,79.48,0,0,1,2.12-9.13A.61.61,0,0,0,360.93,160.7Z" />
  <path class="cls-9"
    d="M372.21,163a2.72,2.72,0,0,0-1.12.81c-.33.32-.65.66-1,1-.7.69-1.41,1.37-2.13,2s-1.4,1.28-2.12,1.9c-.31.26-.64.49-1,.75a3,3,0,0,1-1.12.67.18.18,0,0,0,0,.32,2.3,2.3,0,0,0,2.44-.26,26.57,26.57,0,0,0,2.33-2c.75-.71,1.49-1.44,2.22-2.17.39-.39.77-.78,1.14-1.18a3,3,0,0,0,.88-1.28A.44.44,0,0,0,372.21,163Z" />
  <path class="cls-9"
    d="M375.49,167.61a.12.12,0,0,0-.15-.12,1.31,1.31,0,0,0-.48.08,3.12,3.12,0,0,0-.56.46c-.37.34-.71.71-1.07,1.06-.73.73-1.48,1.44-2.27,2.1s-1.6,1.21-2.42,1.79a7.05,7.05,0,0,0-2.19,1.91.13.13,0,0,0,.11.19,5,5,0,0,0,2.79-1.05,27.51,27.51,0,0,0,2.54-1.9,25.07,25.07,0,0,0,2.26-2.11,13.16,13.16,0,0,0,1-1.21,3.11,3.11,0,0,0,.38-.63A1.11,1.11,0,0,0,375.49,167.61Z" />
  <path class="cls-9"
    d="M375.38,173a4.55,4.55,0,0,0-1.94,1.32c-.61.53-1.23,1-1.85,1.55s-1.23,1-1.85,1.45a6.8,6.8,0,0,0-.91.78,8.05,8.05,0,0,0-.68,1,.16.16,0,0,0,.18.24,7.33,7.33,0,0,0,1.11-.31,6.42,6.42,0,0,0,1-.65c.68-.49,1.33-1,2-1.55s1.24-1,1.84-1.57,1.33-1.06,1.51-1.84A.32.32,0,0,0,375.38,173Z" />
  <path class="cls-9"
    d="M315.4,194.54a77.46,77.46,0,0,0-8.23,2c-1.37.37-2.74.69-4.11,1L301,198a3.51,3.51,0,0,0-1.51.6.24.24,0,0,0,.1.4,3.42,3.42,0,0,0,1.68,0c.7-.1,1.4-.23,2.09-.36,1.44-.27,2.86-.61,4.28-1a31.42,31.42,0,0,0,7.86-2.88C315.65,194.71,315.54,194.52,315.4,194.54Z" />
  <path class="cls-9"
    d="M423.36,168.81a11,11,0,0,0-2.15-1.2l-2.7-1.15c-.47-.21-.95-.4-1.44-.59a4,4,0,0,0-1.51-.43.35.35,0,0,0-.24.58,3.87,3.87,0,0,0,1.19.75l1.34.65,2.61,1.19a14.11,14.11,0,0,1,2,1.08c.53.35,1.13,1.18,1.79,1.21a.31.31,0,0,0,.29-.22C424.78,170,423.85,169.19,423.36,168.81Z" />
  <path class="cls-9"
    d="M422.29,174.17a5.36,5.36,0,0,0-2.05-1.58l-2.34-1.43c-.76-.46-1.5-.95-2.29-1.36a1.34,1.34,0,0,0-1-.2.61.61,0,0,0-.46.78.33.33,0,0,0,.32.24,1.65,1.65,0,0,1,.31,0,1,1,0,0,1,.43.26l.89.59,1.93,1.23,1.92,1.23a4.43,4.43,0,0,0,2,.91A.42.42,0,0,0,422.29,174.17Z" />
  <path class="cls-9"
    d="M419.25,175.66c-.57-.42-1.16-.8-1.76-1.16s-1.21-.66-1.83-.95a9.29,9.29,0,0,0-.92-.37,4.1,4.1,0,0,0-.5-.14c-.17,0-.46.06-.6,0a.08.08,0,0,0-.06.14c.13.08.23.32.36.42s.25.19.38.27l.86.5c.6.33,1.18.69,1.76,1.05s1.12.72,1.66,1.1a2.71,2.71,0,0,0,1.67.72.16.16,0,0,0,.12-.16C420.35,176.49,419.69,176,419.25,175.66Z" />
  <path class="cls-6"
    d="M428.5,167.85a10,10,0,0,0-.64-2.15,3.33,3.33,0,0,0-.72-1.28.53.53,0,0,0-1-.13c-.31.89-.61,1.79-.91,2.68l-.43,1.3-.23.69c0,.12-.09.23-.12.34a.47.47,0,0,0,.31.64l.08,0a.58.58,0,0,0,.64-.27,1.52,1.52,0,0,0,.19-.43,5.22,5.22,0,0,0,.28.93.74.74,0,0,0,.69.53l.12,0c.11.6.22,1.21.34,1.82a.67.67,0,0,0,1.29,0A11.31,11.31,0,0,0,428.5,167.85Z" />
  <path class="cls-5"
    d="M364.84,133.48a.46.46,0,0,0-.65-.27c-.79.34-1,1.07-1.48,1.77s-.92,1.45-1.42,2.15A23.14,23.14,0,0,1,358,140.8a16.59,16.59,0,0,1-9.06,4.31c-7.08.91-13.83-2.35-18.56-7.49a37.2,37.2,0,0,1-6.29-9.74.6.6,0,0,0-.53-.3c-.08,0-.23,0-.29,0a.86.86,0,0,1-.14.13.62.62,0,0,0-.1.74c2.94,6.7,7.67,13,14.43,16.17s14.6,3,20.57-1.69a23.6,23.6,0,0,0,4.21-4.38A26.14,26.14,0,0,0,364,136C364.48,135.2,365.06,134.46,364.84,133.48Z" />
  <path class="cls-5"
    d="M314.11,160.42a18.35,18.35,0,0,0-2.25,5.31c-.61,1.91-1.16,3.83-1.62,5.77a91.88,91.88,0,0,0-1.95,11.39c-.1,1-.19,1.94-.26,2.91,0,.65-.4,2,.22,2.49,1.32,1,1.25-2.76,1.29-3.25a93.78,93.78,0,0,1,1.71-11.67c.46-2.2,1-4.4,1.6-6.57s1.45-4.15,1.61-6.29C314.48,160.3,314.21,160.28,314.11,160.42Z" />
  <path class="cls-5"
    d="M423.6,133.88c-.36-.28-.75-.13-1.17,0-.61.19-1.2.48-1.8.73-1.21.53-2.43,1.07-3.62,1.66s-2.29,1.17-3.4,1.82c-.59.34-1.19.69-1.75,1.07s-1,.76-1.45,1.15c-.05,0,0,.15.07.12,1.13-.47,2.24-1,3.34-1.5s2.31-1.15,3.48-1.69,2.34-1.09,3.52-1.59c.59-.26,1.2-.48,1.79-.74.4-.18,1-.37,1-.85C423.65,134,423.65,133.92,423.6,133.88Z" />
  <path class="cls-5"
    d="M429.21,134.59c-3.39,1.16-6.87,1.92-10.18,3.34a29.5,29.5,0,0,0-9,5.62.1.1,0,0,0,.12.15c3.19-1.72,6.3-3.6,9.66-5a47.06,47.06,0,0,1,4.92-1.74,11.5,11.5,0,0,0,4.61-2.12C429.47,134.75,429.35,134.55,429.21,134.59Z" />
  <path class="cls-5"
    d="M395.55,136.92a4.92,4.92,0,0,0-2.63-1.34c-1-.31-2-.59-3.06-.83s-2.06-.47-3.1-.63a7.11,7.11,0,0,0-2.94-.07.06.06,0,0,0,0,.1,9.08,9.08,0,0,0,2.91.92c1,.23,2,.47,3,.73s2,.53,2.94.84a5.61,5.61,0,0,0,2.87.49A.13.13,0,0,0,395.55,136.92Z" />
  <path class="cls-5"
    d="M403.68,142.51a11.71,11.71,0,0,0-3-1.57c-1.05-.46-2.11-.9-3.17-1.33-2.24-.88-4.5-1.67-6.8-2.36s-4.63-1.3-7-1.77c-1.13-.23-2.27-.42-3.41-.6a10.2,10.2,0,0,0-3.26-.13.1.1,0,0,0,0,.18,13.31,13.31,0,0,0,3.19.86c1.08.21,2.15.45,3.22.69,2.29.52,4.57,1.1,6.82,1.78s4.38,1.43,6.52,2.26q1.68.66,3.33,1.38a15.82,15.82,0,0,0,3.16,1.33C403.65,143.31,404,142.81,403.68,142.51Z" />
  <path class="cls-5"
    d="M403.06,140c-.18-.08-.37-.13-.55-.21l-.47-.2-1-.4c-.34-.13-.69-.25-1-.36s-.74-.1-1.09-.25c-.07,0-.14,0-.08.1a9,9,0,0,0,.8.83,4.35,4.35,0,0,0,1.12.56,5,5,0,0,0,2.33.17C403.19,140.24,403.15,140.07,403.06,140Z" />
  <path class="cls-10"
    d="M377.35,89.46a10.48,10.48,0,0,0-1.94-.63,9.8,9.8,0,0,1-1.91-1,26.43,26.43,0,0,1-3.27-2.5,75.18,75.18,0,0,1-6.17-5.94,73.08,73.08,0,0,1-5.56-6.61c-.83-1.13-1.6-2.31-2.41-3.46a16.06,16.06,0,0,0-.91-1.37c.33-.57.67-1.14,1-1.73a.67.67,0,0,0-1.16-.68,39.1,39.1,0,0,1-12.92,12.31c-5.79,3.46-12.25,5.6-18.71,7.41a15.25,15.25,0,0,0-5.08,2.07,15.09,15.09,0,0,0-1.93,1.73,11.81,11.81,0,0,0-1.45,2.18.22.22,0,0,0,.3.3,12,12,0,0,0,1.94-1.1c.64-.5,1.27-1,2-1.44a17,17,0,0,1,4.77-1.88c3.34-.92,6.65-1.93,9.88-3.17A50,50,0,0,0,350,74.37a29,29,0,0,0,4.42-5.22c.31.56.68,1.08.83,1.33.76,1.29,1.61,2.52,2.48,3.74a71.46,71.46,0,0,0,5.54,7,71.71,71.71,0,0,0,6.49,6.2,21.7,21.7,0,0,0,3.47,2.48c1.07.59,2.68,1.42,3.91,1A.81.81,0,0,0,377.35,89.46Z" />
  <path class="cls-10"
    d="M313.55,95c-.05-.3-.57-.3-.61,0a22.48,22.48,0,0,1-4.3,9.64c-2,2.92-4.28,5.84-5.24,9.33a29.88,29.88,0,0,0-.72,7,20.89,20.89,0,0,1-1.11,6.32c-1.28,3.51-3.5,6.59-5.5,9.71a41.4,41.4,0,0,0-3.13,5.55c-.8,1.79-1.69,3.81-1,5.77a.19.19,0,0,0,.34,0c1-1.55,1.31-3.37,2.05-5a39,39,0,0,1,2.74-4.94c2-3.21,4.26-6.3,5.71-9.83a19.6,19.6,0,0,0,1.39-5.79c.2-2.33.06-4.7.45-7,.63-3.78,3-6.91,5.06-10S314.24,99,313.55,95Z" />
  <path class="cls-10"
    d="M317.25,99.2c-.42.25-.38.83-.41,1.28a13.06,13.06,0,0,1-.27,2.06,15.39,15.39,0,0,1-1.72,4.08c-1.36,2.33-3.09,4.42-4.34,6.81a15.09,15.09,0,0,0-1.7,7.89,17.77,17.77,0,0,1-.16,4.37c-.26,1.17-1,2.21-1.2,3.38,0,.12.05.28.2.26,2-.21,2.5-2.86,2.67-4.44.28-2.54-.32-5.11.3-7.62,1.14-4.58,4.86-8,6.57-12.34a11.55,11.55,0,0,0,.85-3.75C318.05,100.91,318,98.76,317.25,99.2Z" />
  <path class="cls-10"
    d="M321.75,104.27a.14.14,0,0,0-.14,0c-.67.47-.55,1.8-.67,2.53a12.75,12.75,0,0,1-1,3.41c-.92,2-2.45,3.65-3.49,5.58a13.14,13.14,0,0,0-1.38,6.64,7.08,7.08,0,0,0,.37,2.63,2.72,2.72,0,0,0,1.75,1.46.16.16,0,0,0,.18-.24,6,6,0,0,1-.62-2.39,13.23,13.23,0,0,1-.08-3,11.91,11.91,0,0,1,2.19-6.1,20.6,20.6,0,0,0,2.92-5.27,11.93,11.93,0,0,0,.56-3C322.36,105.86,322.47,104.64,321.75,104.27Z" />
  <path class="cls-10"
    d="M326.48,112.39c-.07-.17-.34-.51-.57-.41-.47.22-.56.56-.65,1.07a11.14,11.14,0,0,1-.44,1.79c-.41,1.09-1,2.09-1.47,3.18a14.81,14.81,0,0,0-.89,3.4,8.5,8.5,0,0,0-.13,1.74,2.68,2.68,0,0,0,.59,1.43.2.2,0,0,0,.35,0,4,4,0,0,0,.54-1.54c.07-.63.09-1.25.21-1.88a14.1,14.1,0,0,1,1.14-3.58,14.32,14.32,0,0,0,1.3-3.38A3.22,3.22,0,0,0,326.48,112.39Z" />
  <path class="cls-10"
    d="M378,112.39a61.53,61.53,0,0,1-1.9-8.27,33.79,33.79,0,0,1-.13-4.27c0-1.51.28-3,.31-4.53,0-.52-.69-.55-.85-.12a20.31,20.31,0,0,0-.88,8.31,36,36,0,0,0,1.54,8,13.9,13.9,0,0,1,.67,4,17.53,17.53,0,0,1-.68,4.25,29.63,29.63,0,0,1-1.31,3.89c-.26.62-.56,1.24-.78,1.88a19,19,0,0,0-.46,2,.23.23,0,0,0,.38.23,9.26,9.26,0,0,0,2.3-3.26,32.16,32.16,0,0,0,1.39-4A15.88,15.88,0,0,0,378,112.39Z" />
  <path class="cls-10"
    d="M373.29,115.29c-.18-1.14-.43-3.07-1.39-3.84a.33.33,0,0,0-.54.14,4.23,4.23,0,0,0,.17,1.65,19.23,19.23,0,0,1,.34,2,20.2,20.2,0,0,1,0,4,16.57,16.57,0,0,1-.9,3.85,15.16,15.16,0,0,0-1,3.62.16.16,0,0,0,.25.14c2.36-1.41,3-4.84,3.24-7.37A15.7,15.7,0,0,0,373.29,115.29Z" />
  <path class="cls-10"
    d="M367.47,122.77a5.5,5.5,0,0,0-.27-1.34,2,2,0,0,0-.24-.52c-.1-.18-.21-.21-.35-.34a.17.17,0,0,0-.28.08,1.44,1.44,0,0,0-.16.33,3,3,0,0,0-.06.59c0,.4,0,.8,0,1.2a15.28,15.28,0,0,1-.19,2.34,16.78,16.78,0,0,1-.63,2.31c-.24.75-.31,1.53-.53,2.29a.13.13,0,0,0,.22.12,5.41,5.41,0,0,0,1.67-1.92,9.8,9.8,0,0,0,.73-2.55A10.21,10.21,0,0,0,367.47,122.77Z" />
  <path class="cls-10"
    d="M363.12,124.87c-.06-.19-.11-.38-.18-.57,0,.06,0,0,0,0a1,1,0,0,0-.12-.23s0,0,0,0l-.07-.06a.53.53,0,0,0-.06-.1h0c0-.11-.14-.2-.2-.08v0a.44.44,0,0,0-.21.17.85.85,0,0,0-.23.37,1.8,1.8,0,0,0,0,.52,5.6,5.6,0,0,0,.07.59c0,.07,0,.15,0,.23h0a.17.17,0,0,0,0,.08v.16s0,.06,0,.09,0,.1,0,0,0,0,0,0a.77.77,0,0,0,0,.15.08.08,0,0,0,0,0h0v.08c0,.1-.06.2-.08.29a1,1,0,0,0,0,.24.28.28,0,0,0,0,.09.18.18,0,0,0-.05.07.16.16,0,0,0,0,.16.33.33,0,0,0,.23.07.55.55,0,0,0,.42,0,.94.94,0,0,0,.47-.39,1.73,1.73,0,0,0,.27-1A3.16,3.16,0,0,0,363.12,124.87Z" />
  <path class="cls-10"
    d="M352.73,58.17c0-.21-.3-.39-.47-.19a23.16,23.16,0,0,0-2.33,3.89,23.87,23.87,0,0,1-2.66,3.84,28.22,28.22,0,0,1-7.34,6.08A47.83,47.83,0,0,1,329.71,76c-1.69.5-3.39,1-5.1,1.39a43.34,43.34,0,0,0-5.39,1.47,11.18,11.18,0,0,0-4.4,2.92c-1,1.11-1.89,2.67-1.46,4.18a.26.26,0,0,0,.46.06,13.36,13.36,0,0,1,2.35-3.76,11.31,11.31,0,0,1,4.53-2.45c3.46-1.09,7.06-1.65,10.53-2.74,6.26-2,12.51-5,17-9.88A23.43,23.43,0,0,0,351.36,63,7.91,7.91,0,0,0,352.73,58.17Z" />
  <path class="cls-10"
    d="M348.88,51.94a.23.23,0,0,0-.35,0,19.58,19.58,0,0,1-2.5,3.77,38.12,38.12,0,0,1-2.87,3.35,36.66,36.66,0,0,1-6.65,5.53,38.21,38.21,0,0,1-7.73,3.92c-3.14,1.15-6.46,1.71-9.54,3a14.18,14.18,0,0,0-3.77,2.27c-1,.83-2.34,2.15-2.29,3.55,0,.1.14.21.24.13a8.84,8.84,0,0,0,1.23-1.36,11.65,11.65,0,0,1,1.57-1.57,14.89,14.89,0,0,1,4.16-2.27c3.13-1.16,6.45-1.67,9.58-2.83a39.42,39.42,0,0,0,14.68-9.62,40.71,40.71,0,0,0,3.11-3.69C348.59,55,350,53.32,348.88,51.94Z" />
  <path class="cls-10"
    d="M346,46.64a11.72,11.72,0,0,0-1.25,1.19c-.39.47-.69,1-1,1.51A30.21,30.21,0,0,1,335.83,57a32.18,32.18,0,0,1-6.61,3.31c-2.19.81-4.42,1.49-6.57,2.41s-4.81,2.22-5.93,4.49c-.1.2.11.46.33.32a39.8,39.8,0,0,1,5.9-3.58c2.23-1,4.57-1.65,6.85-2.46A30.94,30.94,0,0,0,342,53.65a31.55,31.55,0,0,0,2.56-3.09,13.74,13.74,0,0,0,1.2-1.8,6.71,6.71,0,0,0,.53-2A.17.17,0,0,0,346,46.64Z" />
  <path class="cls-10"
    d="M376.52,79c-4.15-2.24-8.06-4.7-11.21-8.27a29.27,29.27,0,0,1-3.84-5.6A30.64,30.64,0,0,1,360,62c-.31-.82-.49-2.2-1.23-2.73a.31.31,0,0,0-.42.11c-.4.89.29,2.3.61,3.16a30.9,30.9,0,0,0,1.45,3.34,32.08,32.08,0,0,0,4,6,29.23,29.23,0,0,0,5.22,4.9c1.85,1.34,4.45,3.36,6.86,2.59A.17.17,0,0,0,376.52,79Z" />
  <path class="cls-10"
    d="M379.23,72.13a5.88,5.88,0,0,1-2.8-1.44c-.86-.62-1.72-1.25-2.55-1.91a45.29,45.29,0,0,1-4.73-4.24,28.32,28.32,0,0,1-3.83-4.88A24.28,24.28,0,0,1,363.91,57a11.37,11.37,0,0,0-1.26-2.63c-.08-.09-.28,0-.29.08a5.92,5.92,0,0,0,.65,3.07,22.34,22.34,0,0,0,1.52,3.06A29.79,29.79,0,0,0,368.75,66a45.94,45.94,0,0,0,5.3,4.65c1.14.86,4,3.57,5.35,1.74C379.5,72.3,379.37,72.14,379.23,72.13Z" />
  <path class="cls-10"
    d="M377.4,64.15a14.87,14.87,0,0,0-1.28-1.23c-.49-.38-1-.7-1.55-1.05a24.37,24.37,0,0,1-3-2.34A15,15,0,0,1,369.37,57a11.15,11.15,0,0,1-.84-1.41c-.12-.25-.25-.49-.37-.73a8.76,8.76,0,0,1-.55-.85c0-.11-.23-.1-.22,0,0,.29-.07.56,0,.85a4.11,4.11,0,0,0,.2.84,9.39,9.39,0,0,0,.74,1.61,13.11,13.11,0,0,0,2.23,2.86,22.75,22.75,0,0,0,3.1,2.52,17.85,17.85,0,0,0,1.66,1.05,9.39,9.39,0,0,0,1.92.7A.2.2,0,0,0,377.4,64.15Z" />
  <path class="cls-8"
    d="M343.53,85.52a5.44,5.44,0,0,0-2.43-.65,5.63,5.63,0,0,0-2.49.56,5.16,5.16,0,0,0-.9.55,1.78,1.78,0,0,0-.8,1.46.84.84,0,0,0,.81.82,1.43,1.43,0,0,0,.54-.09l.26-.11.09,0a.75.75,0,0,0,.18-.08c.28-.16.53-.35.82-.48h0l.25-.09.41-.1.12,0,.15,0a3.84,3.84,0,0,1,.48,0h.2l.45.1.44.14h0l.18.1c.14.07.27.15.4.23l.16.11.06,0a1.91,1.91,0,0,0,1.27.53,1,1,0,0,0,.91-.68C345.31,86.71,344.42,86,343.53,85.52Z" />
  <path class="cls-8" d="M336.72,87.66Z" />
  <path class="cls-8"
    d="M341.72,93.5a1.49,1.49,0,0,0-.24-.77,1.56,1.56,0,0,0-.53-.58,1.47,1.47,0,0,0-.71-.37l-.55-.08a2.1,2.1,0,0,0-1,.28,2.18,2.18,0,0,0-.95,1.24,10.17,10.17,0,0,0-.36,2.63,1.57,1.57,0,0,0,.18.8,1.55,1.55,0,0,0,.43.67,1.46,1.46,0,0,0,.67.43,1.42,1.42,0,0,0,.81.18l.55-.07a2.1,2.1,0,0,0,.92-.54l.33-.42a2,2,0,0,0,.28-1.05c0-.25,0-.51.06-.76l.12-.77A1.53,1.53,0,0,0,341.72,93.5Z" />
  <path class="cls-8"
    d="M363.12,96.3a1.49,1.49,0,0,0-.24-.77,1.51,1.51,0,0,0-.54-.58,1.44,1.44,0,0,0-.7-.37l-.55-.08a2.1,2.1,0,0,0-1,.28A2.14,2.14,0,0,0,359.1,96a10.11,10.11,0,0,0-.36,2.63,1.57,1.57,0,0,0,.18.8,1.55,1.55,0,0,0,.43.67,1.46,1.46,0,0,0,.67.43,1.59,1.59,0,0,0,.8.18l.56-.07a2.1,2.1,0,0,0,.92-.54l.32-.42a2.05,2.05,0,0,0,.29-1c0-.25,0-.51.06-.76s.08-.51.11-.77A1.53,1.53,0,0,0,363.12,96.3Z" />
  <path class="cls-8"
    d="M366.12,89.5a5.72,5.72,0,0,0-.88-.75,5.16,5.16,0,0,0-2-.83,5.54,5.54,0,0,0-2.33,0,5.27,5.27,0,0,0-1.11.41,2.28,2.28,0,0,0-1,.89.94.94,0,0,0,1.05,1.36,3.25,3.25,0,0,0,.6-.2l.16-.09.08,0,.12,0,.21-.07.41-.1.08,0h.12a3.38,3.38,0,0,1,.45,0l.38,0h0l.22,0a2.75,2.75,0,0,1,.41.11l.18.06.11,0-.1,0c.08,0,.31.15.38.19l.35.22h0l.17.15a2.23,2.23,0,0,1,.26.27l.09.1.06.09a1.3,1.3,0,0,0,1.06.64,1.11,1.11,0,0,0,1.05-.8C367,90.53,366.5,89.94,366.12,89.5Z" />
  <path class="cls-9"
    d="M354.13,101.79a1,1,0,0,0-1.36,0l0,0-.1.06-.28.17-.15.08h0l-.32.11-.32.07h-.69c-.21,0-.4-.1-.61-.16h0l-.14-.07-.27-.16c-.05,0-.26-.2-.14-.09l-.26-.24a2.3,2.3,0,0,0-.65-.43c-.43-.22-1.1,0-1.05.6a1.73,1.73,0,0,0,.41,1.06,3.81,3.81,0,0,0,.71.62,4,4,0,0,0,1.58.7,4.39,4.39,0,0,0,3.72-1A1,1,0,0,0,354.13,101.79Z" />
  <path class="cls-11"
    d="M336.38,99.09a4.33,4.33,0,0,0-1.13-.39,5.4,5.4,0,0,0-3.85.74,1.46,1.46,0,0,0-.27,2.19,5,5,0,0,0,4.77,1.58,2.37,2.37,0,0,0,2.14-2.16A2.17,2.17,0,0,0,336.38,99.09Z" />
  <path class="cls-11"
    d="M366.58,102.29a4,4,0,0,0-1.13-.39,5.42,5.42,0,0,0-3.86.74,1.47,1.47,0,0,0-.26,2.19,5,5,0,0,0,4.77,1.58,2.35,2.35,0,0,0,2.13-2.16A2.15,2.15,0,0,0,366.58,102.29Z" />
  <path class="cls-10"
    d="M430.22,270.2c-.26,0-.58-.67-.72-.86a2.47,2.47,0,0,0-1.18-1c-1.31-.43-2.8.51-3.95,1-2.84,1.28-5.6,2.73-8.33,4.24-5.47,3-10.81,6.3-16.42,9.06-11.37,5.6-23.49,9.45-35.6,13.07q-5.43,1.62-10.88,3.16c-1.76.5-3.53,1-5.3,1.46a47.21,47.21,0,0,0-5.57,1.73c-.51.21-.53,1.16.15,1.08a64.66,64.66,0,0,0,9.58-2.34q4.83-1.33,9.65-2.75c6.18-1.81,12.35-3.7,18.45-5.79a183.53,183.53,0,0,0,17.41-6.88c5.65-2.61,11-5.72,16.44-8.79,3.06-1.74,6.15-3.45,9.32-5,.77-.37,1.54-.73,2.32-1.08.58-.26,1.74-1,2.35-.65.45.28.64.92,1.07,1.25a1.56,1.56,0,0,0,1.38.28A.66.66,0,0,0,430.22,270.2Z" />
  <path class="cls-10"
    d="M471.83,280.69c-.34-8.52-1-17-1.77-25.52-.69-7.75-1.1-15.82-4.47-23-2.65-5.62-7.58-10.87-13.89-12.14a42,42,0,0,0-6.72-.58c-2.28-.09-4.57-.13-6.85-.11-4.52,0-9.3.29-13.62,1.73a.44.44,0,0,0,.23.84,58.85,58.85,0,0,1,11.83-1.35c3.94,0,7.92.1,11.85.4a17,17,0,0,1,9.29,3.51,22.6,22.6,0,0,1,5.85,7.19c3.55,6.66,4,14.5,4.69,21.86.72,8.18,1.47,16.36,1.9,24.55.25,4.63.4,9.27.39,13.91q0,3.39-.1,6.78c-.08,2.36-.38,4.75-.24,7.11,0,.59.95.79,1.09.14a37.59,37.59,0,0,0,.55-6.28q.15-3.22.19-6.46C472.07,289.1,472,284.89,471.83,280.69Z" />
  <path class="cls-11"
    d="M352.54,109.53a.84.84,0,0,0-1.08-.22,1.88,1.88,0,0,0-.24.14,1.67,1.67,0,0,0-.23.12l-.11,0-.27.07-.11,0h-.26a1.22,1.22,0,0,1-.27,0h-.1l-.25-.06-.23-.08s.07,0,0,0h0l-.09,0-.26-.15s-.13-.12,0,0,0,0,0,0a2.78,2.78,0,0,0-.33-.27v0a.07.07,0,0,0,0,0c-.07,0,0,0,0,0l-.07-.06a1.42,1.42,0,0,0-.29-.21.64.64,0,0,0-.71-.06.6.6,0,0,0-.27.57.45.45,0,0,0,0,.11v0a1.56,1.56,0,0,0,.25.7,2.2,2.2,0,0,0,.64.65,3.64,3.64,0,0,0,1.33.6,3.8,3.8,0,0,0,1.61,0,2.67,2.67,0,0,0,1.43-.74A.84.84,0,0,0,352.54,109.53Z" />
  <path class="cls-11" d="M348.59,109h0l0,0h0Z" />
  <path class="cls-11" d="M350,109.69h0Z" />
  <path class="cls-11" d="M349.39,109.54h0Z" />
  <path class="cls-12"
    d="M407,147.23c-1.07,3.25-1.7,6.71-2.46,10.05S403,164,402.29,167.4c-1.43,6.75-2.71,13.53-3.68,20.36q-.41,2.78-.73,5.55c-.22,1.86-.67,3.94-.24,5.79.07.27.52.36.64.08a16.24,16.24,0,0,0,.82-4.61q.3-2.67.66-5.34c.47-3.42,1-6.82,1.62-10.22,1.2-6.75,2.62-13.45,4.13-20.14.42-1.87.84-3.73,1.27-5.6s1-3.83,1.23-5.77A.52.52,0,0,0,407,147.23Z" />
  <path class="cls-12"
    d="M476.46,343.12a3.76,3.76,0,0,0-.25-.54l-.44-.76c-.26-.41-.54-.8-.84-1.19l.52-.41a1.31,1.31,0,0,0,.5-.91.71.71,0,0,0-.87-.72.48.48,0,0,0-.29.22h0s0,0,0,0,0,0,0,0a1.83,1.83,0,0,0-.3.18l-.53.42a7.91,7.91,0,0,0-2-1.61.67.67,0,0,0-.67,0c-.11.08-.19.12-.24.24a.65.65,0,0,0,0,.67c.34.49.71.94,1.09,1.39.12.16.25.32.37.49-.37.31-.73.62-1.08.95a5.92,5.92,0,0,0-.56.56,4,4,0,0,0-.27.31c-.08.12-.1.26-.17.38a.39.39,0,0,0,.43.56c.13,0,.27,0,.4-.08a4.45,4.45,0,0,0,.48-.26c.27-.15.51-.34.76-.51s.58-.45.87-.67c.21.31.42.63.61.95s.28.49.41.74a3.56,3.56,0,0,0,.4.61l.13.16a1,1,0,0,0,1.59-.42A1.44,1.44,0,0,0,476.46,343.12Z" />
  <polygon class="cls-12" points="471.05 338.07 471.06 338.06 471.06 338.06 471.05 338.07" />
  <path class="cls-12"
    d="M498.27,333.25a13,13,0,0,0-1-1.07c-.17-.18-.36-.35-.54-.53l.23-.18h0l.06-.05.24-.2a1.09,1.09,0,0,0,.48-.88.61.61,0,0,0-.43-.56c-.62-.25-1.26.39-1.7.78l-.5-.47a4.73,4.73,0,0,0-1.35-1,.59.59,0,0,0-.72.72,4.51,4.51,0,0,0,.92,1.34c.14.17.29.34.44.5l-.05.05a12.15,12.15,0,0,0-1.17,1.31,5.39,5.39,0,0,0-.43.63,1.46,1.46,0,0,0-.18.43.73.73,0,0,0,.19.63.5.5,0,0,0,.78-.1c-.05.1.09-.12.06-.09l.09-.09.28-.25c.18-.17.36-.34.53-.52s.59-.59.9-.87l.57.62c.28.29.55.6.85.88a.68.68,0,0,0,.33.41,1,1,0,0,0,.69.08.94.94,0,0,0,.47-.28A.93.93,0,0,0,498.27,333.25Z" />
  <path class="cls-7"
    d="M104.79,245.1c14.38-12.31,26.48-15,53-6s61.87,8.4,62.93,7.8,34.25-2,34.25-2,27.72-9.26,38.38-4.41S271.8,273.81,270,274.59s-33.55,16.73-40,17.46-13,2.18-25.94,2.2-29.76.33-39.48-3.57-34.66-20.19-38.39-22.24S104.79,245.1,104.79,245.1Z" />
  <path class="cls-8"
    d="M172.89,304.48c-2.59-2-5.86-2.31-13.39.2-6,2-26.6,10.8-18.6,24.59,3.59,6.2,28.8-2.4,33.39-6.4,3.68-3.19,2.8-8,1.8-10.39S172.89,304.48,172.89,304.48Z" />
  <path class="cls-13"
    d="M194.69,294.28c-.55.24-22.06,8.06-25.79,11.8-2.6,2.6.8,13,4.59,12.6s22.6-6,26.2-6.8S196.49,293.48,194.69,294.28Z" />
  <path class="cls-7"
    d="M290.68,239.49c24.84,7.9,14.59,38.79,1.8,49.19s-92,27.2-95.19,25.6-6.6-17.8-6.2-20S277.48,235.29,290.68,239.49Z" />
  <path class="cls-8"
    d="M232.16,304.48c2.6-2,5.86-2.31,13.39.2,6,2,26.6,10.8,18.6,24.59-3.59,6.2-28.79-2.4-33.39-6.4-3.68-3.19-2.8-8-1.8-10.39S232.16,304.48,232.16,304.48Z" />
  <path class="cls-13"
    d="M210.36,294.28c.55.24,22.06,8.06,25.8,11.8,2.59,2.6-.8,13-4.6,12.6s-22.6-6-26.2-6.8S208.56,293.48,210.36,294.28Z" />
  <path class="cls-13" d="M285.36,211c0-12.69-10-28.48-10-28.48l-21.2,5s6.8,13.79,7.6,18.39,13.2,8.2,13.2,8.2Z" />
  <path class="cls-13"
    d="M137.17,175.9s-10.2,19.79-10.8,34l15,1.8s13.57-16.13,13.6-17.2,2-7.19,3.4-10.59-5.8-3.2-6.8-4.4S137.17,175.9,137.17,175.9Z" />
  <path class="cls-8"
    d="M191.16,130.7c-15.8,1.8-29.59,8.4-35.19,12.6s-22.2,31.6-22.2,31.6,12.2,14.2,27.4,13.6c0,0,2,32.79-3.4,50.59,0,0,46.79,28.19,97.18,5.8,0,0-6.62-40.84-4.82-52.84,0,0,18.62-2.15,28.22-8.15,0,0-15.6-36.4-23.8-42.6s-33.19-10.6-33.19-10.6-17.8-1-19.2-1S191.16,130.7,191.16,130.7Z" />
  <path class="cls-3"
    d="M174,157.7s1-4.37,2-5,24.17,4.46,29.72,7.89c0,0,16.62-8.73,32.06-5.87,0,0,1.35,5.37,1.85,5.71s-16.45,8.56-17,8.39-14.1,1.68-18.63,2S174,157.7,174,157.7Z" />
  <path class="cls-14"
    d="M170.27,155.85s5.2,31.9,5.2,44.32c0,0,21.82,1.85,30.89,10.75,0,0,10.24-9.57,30.22-7.39,0,0,1.68-35.42,5.87-45,0,0-24.17-3-36.43,6.88C206,165.42,179.33,154,170.27,155.85Z" />
  <path class="cls-13" d="M193.36,117.91l-2.2,12.79s16.8,9.2,30.2,0l-3.2-13.19Z" />
  <path class="cls-8"
    d="M188.72,118s-9.32-3.47-12.06-11.33S167,92.37,168.25,85.42s4.57-14.08,4.39-20.11,4.93-15.54,10.23-18.47,13.35-6.58,19-2.37c0,0,9.14-4.57,15.9-2.2s9.69,6.22,15.73,8.6,6.94,6.76,7.49,11.7.37,15.17,1.46,21.2-3,14.31-6,17.92-.91,10.79-12.43,15.36S188.72,118,188.72,118Z" />
  <path class="cls-13"
    d="M126.37,209.89s41.8-27.39,43.6-29.19,5.59-3.4,9.19-6a86.69,86.69,0,0,1,9.6-5.6c2.91-1.66,3.4,1.6,2.4,2.6,0,0,3.4,0,2.8,3,0,0,3.2,1.6,1.2,4.2,0,0,3,1.8-.2,4.6s-10.8,6.2-13.4,8.19-28.39,26-37.79,32.4C135.1,230,124.77,216.29,126.37,209.89Z" />
  <path class="cls-13"
    d="M285.36,211S245.91,183.13,244,181.5s-5.88-2.89-9.69-5.16-7-3.33-10.06-4.72-3.25,1.9-2.16,2.8c0,0-3.39.31-2.52,3.24,0,0-3.05,1.88-.82,4.29,0,0-2.83,2.06.61,4.57s11.8,4,14.56,5.72,24.83,28.16,34.76,33.69C277.79,231,285.75,217.57,285.36,211Z" />
  <path class="cls-7"
    d="M114.37,239.49c-24.84,7.9-14.59,38.79-1.8,49.19s92,27.2,95.19,25.6,6.6-17.8,6.2-20S127.57,235.29,114.37,239.49Z" />
  <path class="cls-15"
    d="M193.36,117.91,191.63,128a37.91,37.91,0,0,0,11.23,1.6c4.82,0,12.68-1.65,16.93-5.36l-.74-3-7.19-3.59Z" />
  <path class="cls-13"
    d="M230.59,90.51s6.22-.18,6.22,5.85c0,6.77-6.59,6.77-6.59,6.77s-4.56,24.15-24.13,24.15c-19.83,0-24.86-24.15-24.86-24.15s-6.58,0-6.58-6.77c0-6,6.21-5.85,6.21-5.85s.73-11.31,5.49-13.13,11.25-4.88,13.34-9.15A22.58,22.58,0,0,0,209,72.44c5.3.91,8,1.28,10.6,3.66S226.2,89.78,230.59,90.51Z" />
  <path class="cls-15" d="M178.44,91.51h0v0Z" />
  <path class="cls-15"
    d="M180,95.1a2.91,2.91,0,0,0-2.51-1.42.67.67,0,0,0-.65.58.66.66,0,0,0,.48.73,2.63,2.63,0,0,1,.39.06l.19,0,.09,0h0l.33.2.06,0,.17.16.15.18h0s0,0,0,0l.25.41s0,.11.08.16l-.17,0a1.35,1.35,0,0,0-.93.37,1.84,1.84,0,0,0-.66,1.37,1.78,1.78,0,0,0,1.91,1.69C181.57,99.55,180.94,96.41,180,95.1Z" />
  <polygon class="cls-15" points="178.2 91.44 178.2 91.44 178.2 91.44 178.2 91.44" />
  <path class="cls-15"
    d="M234.29,93.63a.74.74,0,0,0-.85-.42,5,5,0,0,0-3.6,4.23,3.37,3.37,0,0,0,.85,3,2,2,0,0,0,3-.26,1.76,1.76,0,0,0,.05-1.76,1.53,1.53,0,0,0-.63-.63,1.63,1.63,0,0,0-.47-.16l-.35,0c-.13,0-.08,0,0,0a1,1,0,0,0-.86,0,3.62,3.62,0,0,1,.69-1.66c.09-.13,0,0,.09-.11a2.85,2.85,0,0,1,.23-.26,2.73,2.73,0,0,1,.25-.23,1,1,0,0,1,.17-.15,6.36,6.36,0,0,1,1.11-.63A.72.72,0,0,0,234.29,93.63Z" />
  <path class="cls-15"
    d="M191,170.82a2.6,2.6,0,0,0-.62.05,3.69,3.69,0,0,0-.62.33c-.44.27-.86.59-1.28.88L186,173.81c-.8.57-1.6,1.13-2.38,1.72s-1.61,1.08-1.88,2a.09.09,0,0,0,.09.11,4.42,4.42,0,0,0,2.4-1c.85-.53,1.68-1.1,2.51-1.67s1.61-1.1,2.41-1.66c.4-.27.81-.54,1.2-.83a4.79,4.79,0,0,0,.55-.46,1.84,1.84,0,0,0,.37-.63C191.35,171.12,191.23,170.8,191,170.82Z" />
  <path class="cls-15"
    d="M193,174a4.1,4.1,0,0,0-1.06.39c-.3.16-.58.35-.86.53l-1.89,1.19c-.61.39-1.21.77-1.8,1.19-.29.2-.58.4-.86.63a3,3,0,0,0-.65.8.15.15,0,0,0,.14.23,3.16,3.16,0,0,0,1-.2c.31-.14.61-.29.91-.45.65-.35,1.29-.73,1.93-1.11l1.85-1.12c.3-.18.62-.36.91-.56a4.22,4.22,0,0,0,.85-.78A.45.45,0,0,0,193,174Z" />
  <path class="cls-15"
    d="M193.87,178.79c-.43.2-.83.47-1.24.71l-1.19.69c-.45.27-.91.54-1.35.84a6.26,6.26,0,0,0-.66.49,3.07,3.07,0,0,0-.26.25c-.06.07-.1.18-.17.22s-.05.33.11.26a.76.76,0,0,1,.26,0l.29-.05a3.47,3.47,0,0,0,.72-.19,12.35,12.35,0,0,0,1.3-.55q1.27-.63,2.52-1.35c.39-.22,1-.61.88-1.13S194.23,178.61,193.87,178.79Z" />
  <path class="cls-13"
    d="M180.81,168.34c-2.57.38-4.07,2.92-5.41,4.88-.89,1.31-1.78,2.62-2.65,3.94a13.85,13.85,0,0,0-2.31,4.09c-.05.22.19.45.4.31a12.24,12.24,0,0,0,2.74-3.2l.18-.25a.83.83,0,0,0,.41.3,1,1,0,0,0,.54,0l-.2.39c-.4.77.66,1.73,1.28,1l.12-.16h0v0a34.6,34.6,0,0,0,5.84-10.35C182,168.67,181.34,168.26,180.81,168.34Zm-1.17,2.12c-.16.38-.3.77-.47,1.14a.81.81,0,0,0-.81,0A6.77,6.77,0,0,1,179.64,170.46Z" />
  <path class="cls-13"
    d="M241.63,181.89c-1.06-1.8-2.06-3.64-3-5.49l-1.41-2.74c-.47-.9-.88-1.86-1.43-2.72a2.82,2.82,0,0,0-1.79-1.4,1.71,1.71,0,0,0-1.89,1.22,4.53,4.53,0,0,0,.1,2.31,11.25,11.25,0,0,0,.91,2.51,13.68,13.68,0,0,0,3.58,4.79.56.56,0,0,0,.91-.23,1.07,1.07,0,0,0,.32.16,6.31,6.31,0,0,0,.53.63c.44.68.88,1.37,1.37,2a1.08,1.08,0,0,0,1.43.37A1.05,1.05,0,0,0,241.63,181.89Z" />
  <path class="cls-15"
    d="M229.69,177.59a4.25,4.25,0,0,0-.8-.67,8.6,8.6,0,0,0-1-.46c-.68-.31-1.36-.61-2-.89s-1.33-.55-2-.81a7,7,0,0,0-2.1-.57c-.37,0-.64.53-.32.78a7.63,7.63,0,0,0,1.87.94l2,.82c.66.28,1.31.57,2,.87.33.16.66.32,1,.45a4,4,0,0,0,1,.23C229.66,178.33,230,177.9,229.69,177.59Z" />
  <path class="cls-15"
    d="M228.13,181.36a26,26,0,0,0-4-1.78c-1.36-.58-2.66-1.27-4-1.79-.53-.2-.77.57-.36.86a21.87,21.87,0,0,0,4,2.09c.68.3,1.37.59,2.06.86.33.13.66.25,1,.36a5.81,5.81,0,0,0,1.17.18C228.36,182.18,228.45,181.57,228.13,181.36Z" />
  <path class="cls-15"
    d="M226.88,184.58c-1.35-.58-2.74-1.09-4.13-1.56-.81-.27-1.63-.52-2.46-.72-.68-.17-1.56-.49-2.16,0,0,0,0,0,0,.06.25.64.93.78,1.52,1s1.45.5,2.18.75c1.39.47,2.77,1,4.12,1.58.47.2,1.4.73,1.84.2S227.31,184.77,226.88,184.58Z" />
  <path class="cls-15"
    d="M157.79,189a8,8,0,0,0-2.44,1.38l-2.56,1.9q-2.43,1.84-4.77,3.79a107.48,107.48,0,0,0-9.24,8.34.69.69,0,0,0,1,1c3.06-2.73,6-5.57,9.15-8.21q2.32-1.95,4.7-3.84c.83-.66,1.67-1.31,2.51-1.95a8.81,8.81,0,0,0,2-1.91C158.31,189.23,158,188.92,157.79,189Z" />
  <path class="cls-15"
    d="M275.05,206.31c-.75-.86-1.53-1.7-2.33-2.52A59,59,0,0,0,267.4,199c-1.78-1.4-3.66-2.65-5.52-3.95a23.69,23.69,0,0,1-2.57-2,10.34,10.34,0,0,0-2.38-2.11.22.22,0,0,0-.33.19,3.89,3.89,0,0,0,1.44,2.45,23.08,23.08,0,0,0,2.32,2c1.89,1.43,3.88,2.69,5.74,4.15a57.42,57.42,0,0,1,5.33,4.77c.84.85,1.65,1.72,2.44,2.62s1.32,1.91,2.45,2.12a.21.21,0,0,0,.26-.19C276.64,207.89,275.74,207.1,275.05,206.31Z" />
  <path class="cls-12"
    d="M266.41,248.89a4.85,4.85,0,0,0-3.06.83l-3.3,1.64q-3.17,1.59-6.3,3.22-6.27,3.25-12.44,6.71-12.48,7-24.52,14.69c-2.25,1.44-4.47,2.91-6.68,4.39-1.07.71-2.13,1.42-3.18,2.16a11.08,11.08,0,0,0-2.52,2.15c-11.2-6.85-22.51-13.5-33.82-20.15-6.37-3.76-12.7-7.68-19.28-11a.62.62,0,0,0-.63,1.07c5.29,3.47,10.84,6.58,16.27,9.82s10.82,6.59,16.23,9.89,10.81,6.6,16.2,9.93l8.22,5.08a15.42,15.42,0,0,1,3.09,2.3,6.42,6.42,0,0,1,1.62,3.48c.46,3-.26,6.25-1,9.11a53.24,53.24,0,0,1-3.54,9.13.85.85,0,0,0,1.46.86,31.63,31.63,0,0,0,5.49-16.73,9.9,9.9,0,0,0-2.49-7.54,17.72,17.72,0,0,0-3.35-2.48l-3.37-2.07a11.85,11.85,0,0,0,1.93-1.08l3.08-2c2-1.3,3.94-2.58,5.92-3.85,4-2.54,8-5.05,12-7.48Q240.51,263.57,253,257q3.54-1.86,7.11-3.66l3.57-1.78c1.11-.55,2.32-.94,2.94-2.06A.42.42,0,0,0,266.41,248.89Z" />
  <path class="cls-16"
    d="M207.51,205.17c0-1.53,0-3.06,0-4.58,0-3-.05-6-.07-9-.05-6.11-.16-12.21-.28-18.32,0-1.69-.09-3.38-.14-5.07,0-.16-.09-3-.7-2.66-.89.52-.6,2.3-.62,3.15,0,1.53,0,3.06,0,4.58q0,4.42,0,8.83c0,5.94,0,11.88.09,17.82,0,1.64,0,3.27,0,4.91,0,.87,0,1.74,0,2.62a3.09,3.09,0,0,0,.53,2c.23.29.65.13.83-.11a3.06,3.06,0,0,0,.42-1.9C207.53,206.69,207.52,205.93,207.51,205.17Z" />
  <path class="cls-5"
    d="M235,156.37a7.62,7.62,0,0,0-1.61-.54c-.52-.08-1.05-.1-1.58-.13-1.1-.06-2.2-.06-3.3,0a44,44,0,0,0-6.57.71,37.85,37.85,0,0,0-6.37,1.69c-1,.38-2,.8-3,1.25a5.05,5.05,0,0,0-2.41,1.61s0,.1.06.1a6.38,6.38,0,0,0,2.73-.83c1-.41,1.95-.77,2.95-1.09a48.24,48.24,0,0,1,6.25-1.63,43,43,0,0,1,6.41-.66c1.05,0,2.1,0,3.16,0,.52,0,1.05.08,1.57.09a12.09,12.09,0,0,0,1.71-.19A.19.19,0,0,0,235,156.37Z" />
  <path class="cls-5"
    d="M196.31,159.37a4.2,4.2,0,0,0-1.54-1.1c-.61-.26-1.24-.47-1.86-.69-1.39-.48-2.78-.92-4.19-1.32s-2.75-.7-4.12-1c-.69-.16-1.39-.34-2.09-.43-.47-.07-1-.18-1.32.16a.11.11,0,0,0,0,.15c.22.49.87.59,1.35.72l1.93.46c1.33.33,2.64.73,4,1.13s2.61.82,3.9,1.28l1.87.67a4.91,4.91,0,0,0,2,.29A.18.18,0,0,0,196.31,159.37Z" />
  <path class="cls-5"
    d="M202.07,160.78a2.34,2.34,0,0,0-.43-.26,6.41,6.41,0,0,0-1-.36,6.21,6.21,0,0,0-1-.22l-.27,0a1.2,1.2,0,0,0-.2,0h-.18a.88.88,0,0,1-.28,0c-.06,0-.11.07,0,.1a.82.82,0,0,1,.25.16,1.33,1.33,0,0,0,.19.14,1,1,0,0,0,.25.19c.12.07.24.14.37.2.29.14.59.25.89.36a5.77,5.77,0,0,0,.9.26,2.36,2.36,0,0,0,.46,0c.14,0,.28,0,.39-.07a.14.14,0,0,0,.07-.16C202.33,161,202.18,160.88,202.07,160.78Z" />
  <path class="cls-10"
    d="M197.77,57.27a.18.18,0,0,0-.34,0c-.37.95-.83,1.85-1.21,2.79a12.56,12.56,0,0,1-1.45,2.67A15,15,0,0,1,190,66.85c-1.89,1.07-4,1.64-5.87,2.83A7.88,7.88,0,0,0,181.78,72c-.64,1-1.05,2.08-1.61,3.09a7.83,7.83,0,0,1-2.49,2.69,13,13,0,0,1-3.45,1.38.47.47,0,0,0,.12.91c2.13.25,4.47-1,5.91-2.55,1.73-1.8,2.15-4.52,4.16-6.07s4.27-2,6.32-3.11A17.25,17.25,0,0,0,196,64a12.27,12.27,0,0,0,1.79-3.12A5,5,0,0,0,197.77,57.27Z" />
  <path class="cls-10"
    d="M195.16,48.51c-.71,1.37-1.67,2.55-2.25,4a36.57,36.57,0,0,1-1.65,4A11.14,11.14,0,0,1,186,61.14a34.42,34.42,0,0,0-5.94,3.15,9.06,9.06,0,0,0-2.26,2.48,6.26,6.26,0,0,0-1.24,3.59.06.06,0,0,0,.09,0c1.14-.52,1.6-2,2.24-3a8.53,8.53,0,0,1,2.53-2.51,57,57,0,0,1,6.21-3,11,11,0,0,0,5.17-4.66,29.44,29.44,0,0,0,1.62-3.84,46.23,46.23,0,0,0,1-4.78C195.51,48.46,195.25,48.33,195.16,48.51Z" />
  <path class="cls-10"
    d="M238.62,76.5a5.65,5.65,0,0,1-2,.07,16.52,16.52,0,0,1-2,0,8.5,8.5,0,0,1-3.69-1.41c-2.44-1.61-4.18-4.08-6.15-6.19a15.18,15.18,0,0,0-6.64-4.56c-2.8-.8-5.77-.18-8.45-1.52a11.7,11.7,0,0,1-5.54-6.36.55.55,0,0,0-1.05.29,10.8,10.8,0,0,0,4.36,6.39A11.83,11.83,0,0,0,211,65a22,22,0,0,0,4.78.67c6.71.66,9.16,8,14.3,11.29a10.51,10.51,0,0,0,4.57,1.62,5,5,0,0,0,2.46-.25,6.81,6.81,0,0,0,1.75-1.46C239,76.71,238.82,76.42,238.62,76.5Z" />
  <path class="cls-10"
    d="M237.89,68c-.12-.26-.5-.12-.51.14,0,.68-1.1.74-1.56.7a8.42,8.42,0,0,1-2-.5,11.41,11.41,0,0,1-3.46-1.88c-1.9-1.54-3.11-3.7-4.68-5.53a10,10,0,0,0-6.35-3.47c-2.56-.37-5.22-.28-7.53-1.59a9.6,9.6,0,0,1-3.06-2.75,18,18,0,0,1-1.81-3.68.37.37,0,0,0-.73.1c-.09,2.59,1.74,5.15,3.68,6.7a10.49,10.49,0,0,0,3.54,1.87,25.19,25.19,0,0,0,4.5.67A10.21,10.21,0,0,1,222.3,60a11.38,11.38,0,0,1,2.94,3c1.72,2.36,3.32,4.65,5.92,6.13a10.21,10.21,0,0,0,4.66,1.53C237.37,70.72,238.66,69.51,237.89,68Z" />
  <path class="cls-10"
    d="M238.7,61.56c-1.07-.72-2.47-.64-3.68-.93a10.61,10.61,0,0,1-3.49-1.58c-2.08-1.43-3.24-3.7-5.13-5.32a7.05,7.05,0,0,0-3.31-1.62,35.2,35.2,0,0,1-4.23-.55,8.12,8.12,0,0,1-3.19-2.1c-.71-.7-1.47-2.11-2.55-2.2a.13.13,0,0,0-.14.1c-.14.87.63,1.6,1.15,2.22a13.9,13.9,0,0,0,2.18,2.09A7.62,7.62,0,0,0,219,53c1.2.31,2.45.32,3.67.56,2.19.43,3.51,2.09,4.82,3.75a14,14,0,0,0,4.69,4.13c1.71.84,4.92,2.07,6.54.46A.22.22,0,0,0,238.7,61.56Z" />
  <path class="cls-10"
    d="M191.24,48a.21.21,0,0,0-.24-.1c-.55.22-.92.94-1.19,1.44a13.74,13.74,0,0,1-1.05,1.77,9.83,9.83,0,0,1-3.18,2.8c-1.46.78-3,1.23-4.17,2.45a8.25,8.25,0,0,0-1.34,1.77,3.12,3.12,0,0,0-.4,1c0,.13,0,.5.21.53.65.1,1-.69,1.38-1.15a9.85,9.85,0,0,1,1.6-1.75c1.24-1,2.86-1.35,4.22-2.15a10.17,10.17,0,0,0,3.08-2.87,8.3,8.3,0,0,0,1-1.81,2.81,2.81,0,0,0,.23-1A1.73,1.73,0,0,0,191.24,48Z" />
  <path class="cls-10"
    d="M222.59,130.23c-.86-.63-1.92.4-2.6.82a23.08,23.08,0,0,1-12.48,3.29,34.43,34.43,0,0,1-8.14-1.13c-1.28-.34-2.53-.74-3.78-1.16-.68-.22-1.35-.46-2-.7-.49-.18-1.31-.37-1.63-.83a.56.56,0,0,0-1,.43c.15,1,.89,1.38,1.74,1.75,1.08.48,2.2.92,3.32,1.3a43.64,43.64,0,0,0,7.05,1.8,28.37,28.37,0,0,0,13.36-.75,17.68,17.68,0,0,0,5.78-2.91C222.69,131.72,223.31,130.76,222.59,130.23Z" />
  <path class="cls-10"
    d="M168.23,164.25l-.06.09-.2.27a1,1,0,0,1-.29.23.07.07,0,0,0,0,.12,19,19,0,0,0-1.57,3.65,42.31,42.31,0,0,0-1.48,5c-.38,1.67-.63,3.37-.92,5.06-.15.9-.32,1.79-.53,2.68-.1.39-.2.78-.27,1.18a2.76,2.76,0,0,0,.1,1.18.4.4,0,0,0,.67.18A3.25,3.25,0,0,0,164.8,182c.21-.83.37-1.67.52-2.52.3-1.69.54-3.39.9-5.07s.77-3.22,1.27-4.8a32.14,32.14,0,0,0,1.67-5C169.23,164.12,168.52,163.69,168.23,164.25Z" />
  <path class="cls-10"
    d="M251.67,182.63l-1.09-2.73c-.75-1.87-1.5-3.75-2.27-5.61s-1.46-3.56-2.24-5.32c-.39-.89-.78-1.79-1.2-2.67-.29-.61-1.06-1.7-.76-2.4,0-.07-.06-.16-.12-.09a1.89,1.89,0,0,0-.67,1.66,12,12,0,0,0,.81,2.73c.69,2,1.45,4,2.22,6s1.55,4,2.34,5.92c.4,1,.8,2,1.21,3,.33.83.57,2,1.44,2.38a.59.59,0,0,0,.86-.35C252.52,184.29,252,183.42,251.67,182.63Z" />
  <path class="cls-8"
    d="M199,84.9l-.1-.08-.22-.2c-.19-.15-.37-.3-.57-.44a5.62,5.62,0,0,0-1.17-.6,5.23,5.23,0,0,0-2.57-.32,5.54,5.54,0,0,0-2.26.81,3.15,3.15,0,0,0-1.65,2.11.89.89,0,0,0,.45.79,1,1,0,0,0,.92,0,3,3,0,0,0,.81-.63l.17-.15.05,0c.13-.08.25-.17.38-.24a3.21,3.21,0,0,1,1.4-.41h.48l.24,0h.06l.46.11s.43.15.29.09a5.3,5.3,0,0,1,1.43,1A1.15,1.15,0,1,0,199,84.9Z" />
  <path class="cls-8"
    d="M197.2,96.4a4.7,4.7,0,0,0,0-.65,3.64,3.64,0,0,0-.51-1.84,1.81,1.81,0,0,0-2.3-.56,2.21,2.21,0,0,0-1.06,1.54,7.36,7.36,0,0,0-.2,2,3.94,3.94,0,0,0,.42,1.84,2,2,0,0,0,1.67,1.05,1.89,1.89,0,0,0,1.82-1.3,5.12,5.12,0,0,0,.19-1.6C197.23,96.71,197.21,96.55,197.2,96.4Z" />
  <path class="cls-8"
    d="M220.77,85.53c.12.08-.05-.06-.09-.09l-.23-.2c-.18-.15-.37-.3-.56-.43a5.18,5.18,0,0,0-1.17-.6,5.24,5.24,0,0,0-2.57-.33,5.65,5.65,0,0,0-2.27.82,3.12,3.12,0,0,0-1.64,2.1.89.89,0,0,0,.45.79,1,1,0,0,0,.92,0,3,3,0,0,0,.81-.63l.17-.15,0,0,.38-.24a3.17,3.17,0,0,1,1.4-.41,3.84,3.84,0,0,1,.48,0h.29l.47.11s.43.15.29.09a5.53,5.53,0,0,1,1.43,1,1.15,1.15,0,1,0,1.39-1.8Z" />
  <path class="cls-8"
    d="M219,97a4.7,4.7,0,0,0,0-.65,3.58,3.58,0,0,0-.51-1.83,1.84,1.84,0,0,0-2.31-.57,2.19,2.19,0,0,0-1.05,1.54,7.36,7.36,0,0,0-.2,2,3.9,3.9,0,0,0,.41,1.84,2,2,0,0,0,1.68,1,1.86,1.86,0,0,0,1.81-1.3,4.57,4.57,0,0,0,.19-1.6C219,97.33,219,97.18,219,97Z" />
  <path class="cls-15"
    d="M208.38,105.27a2.41,2.41,0,0,0-.79.59l-.13.1,0,0a2.82,2.82,0,0,1-.29.18c-.09,0-.19.09-.28.15h0l-.16.05a4.23,4.23,0,0,1-.68.17h0l-.14,0h-.35l-.35,0h0l-.18,0a5.48,5.48,0,0,1-.67-.17,1.63,1.63,0,0,0-.28-.11c-.13,0-.32,0-.43-.07a.43.43,0,0,0-.48.63c0,.06.06.16.11.23a1.18,1.18,0,0,0,.17.22,2.06,2.06,0,0,0,.37.29,4.48,4.48,0,0,0,.8.37,4.55,4.55,0,0,0,1.68.22,5.38,5.38,0,0,0,1.77-.46c.55-.26,1.33-.74,1.48-1.36S209,105,208.38,105.27Z" />
  <path class="cls-15"
    d="M209.07,112.88a1,1,0,0,0-.84-.18,1.75,1.75,0,0,0-.43.17,2.18,2.18,0,0,1-.22.12l-.13.05-.29.1q-.3.09-.6.15h-.12l-.27,0a3.77,3.77,0,0,1-.58,0l-.24,0-.21,0a11.65,11.65,0,0,0-1.3-.3.68.68,0,0,0-.58,1,2.82,2.82,0,0,0,1.44,1,5.39,5.39,0,0,0,1.59.35,5,5,0,0,0,1.58-.2,3.34,3.34,0,0,0,.85-.36,1.48,1.48,0,0,0,.73-1.16A.91.91,0,0,0,209.07,112.88Z" />
  <path class="cls-10"
    d="M238,90.65c-1.2-.83-3-.27-4.33-.38a7.15,7.15,0,0,1-4.3-1.72c-2.22-2-3.2-5.07-4.59-7.64A21.69,21.69,0,0,0,219.4,74c-2.55-2-5.47-2.57-8.64-2.82a20.4,20.4,0,0,1-5.55-.86A9.68,9.68,0,0,1,201,66.9c0-.31-.15-.49-.14-.89a.22.22,0,0,0-.37-.15c-.18.19-.39.16-.6.31a2.07,2.07,0,0,0-.48.65c-.35.61-.68,1.23-1.09,1.81a14.28,14.28,0,0,1-2.65,2.84c-2.16,1.78-4.82,2.79-7.29,4a16.09,16.09,0,0,0-5.84,4.56,8.32,8.32,0,0,0-1.45,3.1c-.31,1.4-.16,2.87-.55,4.26a4.61,4.61,0,0,1-5.82,2.89c-.6-.19-1,.78-.44,1a5.79,5.79,0,0,0,6.08-1,5.45,5.45,0,0,0,1.77-2.91c.33-1.42.17-2.9.59-4.3.77-2.52,3-4.32,5.22-5.58,2.61-1.48,5.51-2.48,8-4.26a16.09,16.09,0,0,0,3.32-3.22,14.85,14.85,0,0,0,1.25-1.87l0-.07c1.45,2.48,4.39,3.87,7.15,4.32,3.39.55,6.91.3,9.91,2.25,2.66,1.73,4.45,4.53,5.91,7.28s2.48,5.9,4.89,8a8.87,8.87,0,0,0,4.8,2c1.5.17,4,.4,4.93-1A.2.2,0,0,0,238,90.65Z" />
</svg>